<svg id="Ebene_1" data-name="Ebene 1" xmlns="http://www.w3.org/2000/svg" viewBox="0 0 14.83 15.3">
  <defs>
    <style>
      .cls-1 {
        fill: #a8dae7;
      }
    </style>
  </defs>
  <title>FB</title>
  <path class="cls-1" d="M305.87,295l-2.53,12.89h1.95l1.27-6.4h6.5c.88,0,.79-1.61.06-1.61H307l.5-3.19h7.2a.83.83,0,1,0,0-1.65Z" transform="translate(-303.33 -292.67)"/>
  <path class="cls-1" d="M318.17,295.67a3.1,3.1,0,0,0-2.55-3l-5.75,0-.26,1.61h5.7c.51,0,1.2.34,1.2,1.63-.16,1.17-.89,1.73-2.22,1.77a2.29,2.29,0,0,0-.56-.07s-5.73-.09-5.68,0l-.22,1.67h5.62c.6,0,1.3.57,1.3,1.73a1.44,1.44,0,0,1-1.47,1.47h-6.2l-1,5.54H308l.78-4h4.47a3,3,0,0,0,3.13-3,3.88,3.88,0,0,0-.52-2C317,298.86,318.17,297.55,318.17,295.67Z" transform="translate(-303.33 -292.67)"/>
</svg>
