<svg id="Ebene_1" data-name="Ebene 1" xmlns="http://www.w3.org/2000/svg" viewBox="0 0 14.79 15.26">
  <defs>
    <style>
      .cls-1 {
        fill: #fff;
      }
    </style>
  </defs>
  <title>FB_w</title>
  <g>
    <path class="cls-1" d="M434.09,410.69l-2.53,12.85h1.94l1.27-6.38h6.48c.88,0,.79-1.61.06-1.61h-6.06l.5-3.18h7.18a.83.83,0,1,0,0-1.65Z" transform="translate(-431.57 -408.39)"/>
    <path class="cls-1" d="M446.36,411.38a3.09,3.09,0,0,0-2.54-3l-5.74,0-.26,1.61h5.68c.51,0,1.2.34,1.2,1.62-.16,1.16-.89,1.73-2.22,1.76a2.29,2.29,0,0,0-.56-.07s-5.71-.09-5.67,0l-.22,1.66h5.61c.6,0,1.3.57,1.3,1.72a1.44,1.44,0,0,1-1.47,1.47h-6.18l-1,5.53h1.88l.77-4h4.45a3,3,0,0,0,3.12-3,3.87,3.87,0,0,0-.52-2C445.17,414.56,446.36,413.25,446.36,411.38Z" transform="translate(-431.57 -408.39)"/>
  </g>
</svg>
