<?xml version="1.0" encoding="utf-8"?>
<!-- Generator: Adobe Illustrator 21.0.2, SVG Export Plug-In . SVG Version: 6.00 Build 0)  -->
<svg version="1.1" id="Ebene_1" xmlns="http://www.w3.org/2000/svg" xmlns:xlink="http://www.w3.org/1999/xlink" x="0px" y="0px"
	 viewBox="0 0 595.3 841.9" style="enable-background:new 0 0 595.3 841.9;" xml:space="preserve">
<style type="text/css">
	.st0{fill:#AD1034;}
	.st1{fill:#D0D0D0;}
	.st2{fill:#FBBA00;}
	.st3{fill:#FFFFFF;}
	.st4{fill:none;}
	.st5{font-family:'MyriadPro-Semibold';}
	.st6{font-size:7.7956px;}
	.st7{fill:none;stroke:#000000;stroke-miterlimit:10;}
	.st8{fill:#646363;}
	.st9{fill:#9D9D9C;}
	.st10{font-size:13px;}
	.st11{fill:none;stroke:#FBBA00;stroke-miterlimit:10;}
	.st12{fill:none;stroke:#AD1034;stroke-miterlimit:10;}
	.st13{font-family:'MyriadPro-Bold';}
	.st14{font-size:14px;}
	.st15{font-family:'LucidaHandwriting-Italic';}
	.st16{font-size:6px;}
	.st17{fill:none;stroke:#000000;stroke-width:2;stroke-miterlimit:10;}
	.st18{fill:#A61A18;}
	.st19{fill:none;stroke:#000000;stroke-width:5;stroke-miterlimit:10;}
</style>
<path class="st0" d="M52.1,27.9l26.2,46.1h54.6C128.6,32.2,87.3,10.3,52.1,27.9z"/>
<path class="st1" d="M78.8,77.9l53.1,0c-0.1,40.4-46.2,63.9-80,45.9L78.8,77.9z"/>
<path class="st2" d="M48.4,30.4l27.4,45.2l-27.2,46C15.2,98.3,13.9,54.5,48.4,30.4z"/>
<circle class="st3" cx="77.2" cy="74.5" r="22.1"/>
<path id="SVGID_x5F_1_x5F_" class="st4" d="M112.8,73.7c0,18.8-15.3,34.1-34.1,34.1S44.6,92.5,44.6,73.7s15.3-34.1,34.1-34.1
	S112.8,54.9,112.8,73.7z"/>
<text><textPath  xlink:href="#SVGID_x5F_1_x5F_" startOffset="99.6743%">
<tspan  class="st5" style="font-size:12.3478px; letter-spacing:22;">Technik</tspan></textPath>
</text>
<path id="SVGID_x5F_2_x5F_" class="st4" d="M109.7,75.1c0,18.8-15.3,34.1-34.1,34.1S41.6,93.9,41.6,75.1S56.9,41,75.7,41
	S109.7,56.3,109.7,75.1z"/>
<text><textPath  xlink:href="#SVGID_x5F_2_x5F_" startOffset="319.9%">
<tspan  class="st5" style="font-size:12.3478px; letter-spacing:22;">Mensch</tspan></textPath>
</text>
<path id="SVGID_x5F_3_x5F_" class="st4" d="M112.9,75.8c0,18.8-15.3,34.1-34.1,34.1S44.8,94.6,44.8,75.8S60,41.7,78.8,41.7
	S112.9,57,112.9,75.8z"/>
<text><textPath  xlink:href="#SVGID_x5F_3_x5F_" startOffset="7738.5967%">
<tspan  class="st5" style="font-size:12.3478px; letter-spacing:22;">Interatkion</tspan></textPath>
</text>
<g>
	<path class="st0" d="M479.6,146c-0.1-1.2-0.3-2.3-0.4-3.5c0-0.4-0.1-0.8-0.1-1.2c0-0.1-0.1-0.2-0.2-0.2c-0.9-0.2-1.7-0.5-2.5-0.8
		c-0.2-0.1-0.3,0-0.4,0.1c-1,1.1-2,2.1-3,3.2c-0.1,0.1-0.2,0.2-0.4,0.1c-0.8-0.5-1.6-1.1-2.4-1.6c-0.2-0.1-0.2-0.2-0.1-0.4
		c0.6-1.3,1.2-2.7,1.8-4c0.1-0.2,0.1-0.3-0.1-0.4c-0.6-0.6-1.2-1.2-1.7-1.9c-0.1-0.1-0.2-0.2-0.4-0.1c-1.4,0.4-2.8,0.8-4.2,1.3
		c-0.2,0.1-0.3,0-0.3-0.1c-0.4-0.9-0.9-1.8-1.3-2.6c-0.1-0.2-0.1-0.2,0.1-0.3c1.2-0.9,2.3-1.7,3.5-2.6c0.2-0.1,0.2-0.2,0.1-0.4
		c-0.3-0.8-0.4-1.6-0.5-2.5c0-0.2-0.1-0.3-0.3-0.3c-1.4-0.3-2.8-0.7-4.2-1c-0.2,0-0.3-0.1-0.3-0.3c0.1-1,0.1-1.9,0.2-2.9
		c0-0.2,0.1-0.3,0.3-0.3c1.4-0.2,2.9-0.3,4.3-0.5c0.2,0,0.3-0.1,0.4-0.3c0.2-0.8,0.5-1.6,0.8-2.4c0.1-0.2,0-0.3-0.1-0.4
		c-1.1-1-2.1-2-3.2-3c-0.1-0.1-0.2-0.2-0.1-0.4c0.5-0.8,1.1-1.6,1.6-2.4c0.1-0.1,0.2-0.2,0.3-0.1c1.3,0.6,2.7,1.2,4,1.7
		c0.2,0.1,0.3,0.1,0.5-0.1c0.6-0.6,1.2-1.2,1.9-1.7c0.2-0.1,0.2-0.2,0.1-0.4c-0.4-1.4-0.8-2.8-1.2-4.1c-0.1-0.2,0-0.3,0.2-0.4
		c0.9-0.4,1.7-0.8,2.6-1.3c0.2-0.1,0.2-0.1,0.4,0.1c0.9,1.2,1.7,2.3,2.6,3.5c0.1,0.2,0.3,0.2,0.5,0.2c0.8-0.2,1.6-0.4,2.4-0.5
		c0.2,0,0.3-0.1,0.4-0.3c0.3-1.4,0.7-2.8,1-4.2c0-0.2,0.1-0.3,0.3-0.2c1,0.1,1.9,0.1,2.9,0.2c0.2,0,0.2,0.1,0.3,0.3
		c0.2,1.4,0.3,2.9,0.5,4.3c0,0.2,0.1,0.3,0.3,0.4c0.8,0.2,1.6,0.5,2.4,0.8c0.2,0.1,0.3,0.1,0.4-0.1c1-1.1,2-2.1,3-3.2
		c0.1-0.2,0.2-0.2,0.4,0c0.8,0.5,1.6,1.1,2.4,1.6c0.2,0.1,0.2,0.2,0.1,0.4c-0.6,1.3-1.2,2.6-1.7,4c-0.1,0.2-0.1,0.3,0.1,0.4
		c0.6,0.6,1.2,1.2,1.7,1.9c0.1,0.2,0.2,0.2,0.4,0.1c1.4-0.4,2.8-0.8,4.1-1.2c0.2-0.1,0.3,0,0.4,0.2c0.4,0.9,0.9,1.7,1.3,2.6
		c0.1,0.2,0.1,0.2-0.1,0.3c-1.2,0.9-2.3,1.7-3.5,2.6c-0.2,0.1-0.2,0.2-0.1,0.4c0.3,0.8,0.4,1.6,0.5,2.5c0,0.2,0.1,0.3,0.3,0.3
		c1.4,0.3,2.8,0.7,4.2,1c0.2,0,0.3,0.1,0.3,0.3c-0.1,1-0.1,1.9-0.2,2.9c0,0.2-0.1,0.3-0.3,0.3c-1.4,0.2-2.9,0.3-4.3,0.5
		c-0.2,0-0.3,0.1-0.4,0.3c-0.2,0.8-0.5,1.6-0.8,2.4c-0.1,0.2,0,0.3,0.1,0.4c1.1,1,2.1,2,3.2,3c0.2,0.1,0.2,0.2,0,0.4
		c-0.5,0.8-1.1,1.6-1.6,2.4c-0.1,0.2-0.2,0.2-0.4,0.1c-1.3-0.6-2.7-1.2-4-1.7c-0.2-0.1-0.3-0.1-0.4,0.1c-0.6,0.6-1.2,1.2-1.9,1.7
		c-0.2,0.1-0.2,0.2-0.1,0.4c0.4,1.4,0.8,2.8,1.3,4.2c0.1,0.2,0,0.3-0.1,0.3c-0.9,0.4-1.8,0.9-2.6,1.3c-0.2,0.1-0.2,0.1-0.3-0.1
		c-0.9-1.2-1.7-2.3-2.6-3.5c-0.1-0.2-0.2-0.2-0.4-0.1c-0.8,0.2-1.6,0.4-2.4,0.5c-0.3,0-0.4,0.1-0.4,0.4c-0.3,1.4-0.7,2.8-1,4.2
		c0,0.1,0,0.1-0.1,0.2C481.9,146.1,480.8,146,479.6,146z"/>
	<path class="st3" d="M494.4,126.7c-0.4,6.6-6.1,11.6-12.6,11.2c-6.6-0.4-11.6-6.1-11.2-12.7c0.4-6.6,6.1-11.6,12.6-11.2
		C489.8,114.4,494.8,120.1,494.4,126.7z"/>
</g>
<path class="st0" d="M444.7,129.2c-0.1-1.2-0.3-2.3-0.4-3.5c0-0.4-0.1-0.8-0.1-1.2c0-0.1-0.1-0.2-0.2-0.2c-0.9-0.2-1.7-0.5-2.5-0.8
	c-0.2-0.1-0.3,0-0.4,0.1c-1,1.1-2,2.1-3,3.2c-0.1,0.1-0.2,0.2-0.4,0.1c-0.8-0.5-1.6-1.1-2.4-1.6c-0.2-0.1-0.2-0.2-0.1-0.4
	c0.6-1.3,1.2-2.7,1.8-4c0.1-0.2,0.1-0.3-0.1-0.4c-0.6-0.6-1.2-1.2-1.7-1.9c-0.1-0.1-0.2-0.2-0.4-0.1c-1.4,0.4-2.8,0.8-4.2,1.3
	c-0.2,0.1-0.3,0-0.3-0.1c-0.4-0.9-0.9-1.8-1.3-2.6c-0.1-0.2-0.1-0.2,0.1-0.3c1.2-0.9,2.3-1.7,3.5-2.6c0.2-0.1,0.2-0.2,0.1-0.4
	c-0.3-0.8-0.4-1.6-0.5-2.5c0-0.2-0.1-0.3-0.3-0.3c-1.4-0.3-2.8-0.7-4.2-1c-0.2,0-0.3-0.1-0.3-0.3c0.1-1,0.1-1.9,0.2-2.9
	c0-0.2,0.1-0.3,0.3-0.3c1.4-0.2,2.9-0.3,4.3-0.5c0.2,0,0.3-0.1,0.4-0.3c0.2-0.8,0.5-1.6,0.8-2.4c0.1-0.2,0-0.3-0.1-0.4
	c-1.1-1-2.1-2-3.2-3c-0.1-0.1-0.2-0.2-0.1-0.4c0.5-0.8,1.1-1.6,1.6-2.4c0.1-0.1,0.2-0.2,0.3-0.1c1.3,0.6,2.7,1.2,4,1.7
	c0.2,0.1,0.3,0.1,0.5-0.1c0.6-0.6,1.2-1.2,1.9-1.7c0.2-0.1,0.2-0.2,0.1-0.4c-0.4-1.4-0.8-2.8-1.2-4.1c-0.1-0.2,0-0.3,0.2-0.4
	c0.9-0.4,1.7-0.8,2.6-1.3c0.2-0.1,0.2-0.1,0.4,0.1c0.9,1.2,1.7,2.3,2.6,3.5c0.1,0.2,0.3,0.2,0.5,0.2c0.8-0.2,1.6-0.4,2.4-0.5
	c0.2,0,0.3-0.1,0.4-0.3c0.3-1.4,0.7-2.8,1-4.2c0-0.2,0.1-0.3,0.3-0.2c1,0.1,1.9,0.1,2.9,0.2c0.2,0,0.2,0.1,0.3,0.3
	c0.2,1.4,0.3,2.9,0.5,4.3c0,0.2,0.1,0.3,0.3,0.4c0.8,0.2,1.6,0.5,2.4,0.8c0.2,0.1,0.3,0.1,0.4-0.1c1-1.1,2-2.1,3-3.2
	c0.1-0.2,0.2-0.2,0.4,0c0.8,0.5,1.6,1.1,2.4,1.6c0.2,0.1,0.2,0.2,0.1,0.4c-0.6,1.3-1.2,2.6-1.7,4c-0.1,0.2-0.1,0.3,0.1,0.4
	c0.6,0.6,1.2,1.2,1.7,1.9c0.1,0.2,0.2,0.2,0.4,0.1c1.4-0.4,2.8-0.8,4.1-1.2c0.2-0.1,0.3,0,0.4,0.2c0.4,0.9,0.9,1.7,1.3,2.6
	c0.1,0.2,0.1,0.2-0.1,0.3c-1.2,0.9-2.3,1.7-3.5,2.6c-0.2,0.1-0.2,0.2-0.1,0.4c0.3,0.8,0.4,1.6,0.5,2.5c0,0.2,0.1,0.3,0.3,0.3
	c1.4,0.3,2.8,0.7,4.2,1c0.2,0,0.3,0.1,0.3,0.3c-0.1,1-0.1,1.9-0.2,2.9c0,0.2-0.1,0.3-0.3,0.3c-1.4,0.2-2.9,0.3-4.3,0.5
	c-0.2,0-0.3,0.1-0.4,0.3c-0.2,0.8-0.5,1.6-0.8,2.4c-0.1,0.2,0,0.3,0.1,0.4c1.1,1,2.1,2,3.2,3c0.2,0.1,0.2,0.2,0,0.4
	c-0.5,0.8-1.1,1.6-1.6,2.4c-0.1,0.2-0.2,0.2-0.4,0.1c-1.3-0.6-2.7-1.2-4-1.7c-0.2-0.1-0.3-0.1-0.4,0.1c-0.6,0.6-1.2,1.2-1.9,1.7
	c-0.2,0.1-0.2,0.2-0.1,0.4c0.4,1.4,0.8,2.8,1.3,4.2c0.1,0.2,0,0.3-0.1,0.3c-0.9,0.4-1.8,0.9-2.6,1.3c-0.2,0.1-0.2,0.1-0.3-0.1
	c-0.9-1.2-1.7-2.3-2.6-3.5c-0.1-0.2-0.2-0.2-0.4-0.1c-0.8,0.2-1.6,0.4-2.4,0.5c-0.3,0-0.4,0.1-0.4,0.4c-0.3,1.4-0.7,2.8-1,4.2
	c0,0.1,0,0.1-0.1,0.2C447,129.3,445.8,129.2,444.7,129.2z"/>
<path class="st3" d="M459.5,109.9c-0.4,6.6-6.1,11.6-12.6,11.2c-6.6-0.4-11.6-6.1-11.2-12.7c0.4-6.6,6.1-11.6,12.6-11.2
	C454.9,97.6,459.9,103.3,459.5,109.9z"/>
<path class="st0" d="M410.2,111.9c-0.1-1.2-0.3-2.3-0.4-3.5c0-0.4-0.1-0.8-0.1-1.2c0-0.1-0.1-0.2-0.2-0.2c-0.9-0.2-1.7-0.5-2.5-0.8
	c-0.2-0.1-0.3,0-0.4,0.1c-1,1.1-2,2.1-3,3.2c-0.1,0.1-0.2,0.2-0.4,0.1c-0.8-0.5-1.6-1.1-2.4-1.6c-0.2-0.1-0.2-0.2-0.1-0.4
	c0.6-1.3,1.2-2.7,1.8-4c0.1-0.2,0.1-0.3-0.1-0.4c-0.6-0.6-1.2-1.2-1.7-1.9c-0.1-0.1-0.2-0.2-0.4-0.1c-1.4,0.4-2.8,0.8-4.2,1.3
	c-0.2,0.1-0.3,0-0.3-0.1c-0.4-0.9-0.9-1.8-1.3-2.6c-0.1-0.2-0.1-0.2,0.1-0.3c1.2-0.9,2.3-1.7,3.5-2.6c0.2-0.1,0.2-0.2,0.1-0.4
	c-0.3-0.8-0.4-1.6-0.5-2.5c0-0.2-0.1-0.3-0.3-0.3c-1.4-0.3-2.8-0.7-4.2-1c-0.2,0-0.3-0.1-0.3-0.3c0.1-1,0.1-1.9,0.2-2.9
	c0-0.2,0.1-0.3,0.3-0.3c1.4-0.2,2.9-0.3,4.3-0.5c0.2,0,0.3-0.1,0.4-0.3c0.2-0.8,0.5-1.6,0.8-2.4c0.1-0.2,0-0.3-0.1-0.4
	c-1.1-1-2.1-2-3.2-3c-0.1-0.1-0.2-0.2-0.1-0.4c0.5-0.8,1.1-1.6,1.6-2.4c0.1-0.1,0.2-0.2,0.3-0.1c1.3,0.6,2.7,1.2,4,1.7
	c0.2,0.1,0.3,0.1,0.5-0.1c0.6-0.6,1.2-1.2,1.9-1.7c0.2-0.1,0.2-0.2,0.1-0.4c-0.4-1.4-0.8-2.8-1.2-4.1c-0.1-0.2,0-0.3,0.2-0.4
	c0.9-0.4,1.7-0.8,2.6-1.3c0.2-0.1,0.2-0.1,0.4,0.1c0.9,1.2,1.7,2.3,2.6,3.5c0.1,0.2,0.3,0.2,0.5,0.2c0.8-0.2,1.6-0.4,2.4-0.5
	c0.2,0,0.3-0.1,0.4-0.3c0.3-1.4,0.7-2.8,1-4.2c0-0.2,0.1-0.3,0.3-0.2c1,0.1,1.9,0.1,2.9,0.2c0.2,0,0.2,0.1,0.3,0.3
	c0.2,1.4,0.3,2.9,0.5,4.3c0,0.2,0.1,0.3,0.3,0.4c0.8,0.2,1.6,0.5,2.4,0.8c0.2,0.1,0.3,0.1,0.4-0.1c1-1.1,2-2.1,3-3.2
	c0.1-0.2,0.2-0.2,0.4,0c0.8,0.5,1.6,1.1,2.4,1.6c0.2,0.1,0.2,0.2,0.1,0.4c-0.6,1.3-1.2,2.6-1.7,4c-0.1,0.2-0.1,0.3,0.1,0.4
	c0.6,0.6,1.2,1.2,1.7,1.9c0.1,0.2,0.2,0.2,0.4,0.1c1.4-0.4,2.8-0.8,4.1-1.2c0.2-0.1,0.3,0,0.4,0.2c0.4,0.9,0.9,1.7,1.3,2.6
	c0.1,0.2,0.1,0.2-0.1,0.3c-1.2,0.9-2.3,1.7-3.5,2.6c-0.2,0.1-0.2,0.2-0.1,0.4c0.3,0.8,0.4,1.6,0.5,2.5c0,0.2,0.1,0.3,0.3,0.3
	c1.4,0.3,2.8,0.7,4.2,1c0.2,0,0.3,0.1,0.3,0.3c-0.1,1-0.1,1.9-0.2,2.9c0,0.2-0.1,0.3-0.3,0.3c-1.4,0.2-2.9,0.3-4.3,0.5
	c-0.2,0-0.3,0.1-0.4,0.3c-0.2,0.8-0.5,1.6-0.8,2.4c-0.1,0.2,0,0.3,0.1,0.4c1.1,1,2.1,2,3.2,3c0.2,0.1,0.2,0.2,0,0.4
	c-0.5,0.8-1.1,1.6-1.6,2.4c-0.1,0.2-0.2,0.2-0.4,0.1c-1.3-0.6-2.7-1.2-4-1.7c-0.2-0.1-0.3-0.1-0.4,0.1c-0.6,0.6-1.2,1.2-1.9,1.7
	c-0.2,0.1-0.2,0.2-0.1,0.4c0.4,1.4,0.8,2.8,1.3,4.2c0.1,0.2,0,0.3-0.1,0.3c-0.9,0.4-1.8,0.9-2.6,1.3c-0.2,0.1-0.2,0.1-0.3-0.1
	c-0.9-1.2-1.7-2.3-2.6-3.5c-0.1-0.2-0.2-0.2-0.4-0.1c-0.8,0.2-1.6,0.4-2.4,0.5c-0.3,0-0.4,0.1-0.4,0.4c-0.3,1.4-0.7,2.8-1,4.2
	c0,0.1,0,0.1-0.1,0.2C412.5,112.1,411.3,112,410.2,111.9z"/>
<path class="st3" d="M425,92.6c-0.4,6.6-6.1,11.6-12.6,11.2c-6.6-0.4-11.6-6.1-11.2-12.7c0.4-6.6,6.1-11.6,12.6-11.2
	C420.4,80.4,425.4,86.1,425,92.6z"/>
<path class="st0" d="M395.5,72.7c-0.1-1.2-0.3-2.3-0.4-3.5c0-0.4-0.1-0.8-0.1-1.2c0-0.1-0.1-0.2-0.2-0.2c-0.9-0.2-1.7-0.5-2.5-0.8
	c-0.2-0.1-0.3,0-0.4,0.1c-1,1.1-2,2.1-3,3.2c-0.1,0.1-0.2,0.2-0.4,0.1c-0.8-0.5-1.6-1.1-2.4-1.6c-0.2-0.1-0.2-0.2-0.1-0.4
	c0.6-1.3,1.2-2.7,1.8-4c0.1-0.2,0.1-0.3-0.1-0.4c-0.6-0.6-1.2-1.2-1.7-1.9c-0.1-0.1-0.2-0.2-0.4-0.1c-1.4,0.4-2.8,0.8-4.2,1.3
	c-0.2,0.1-0.3,0-0.3-0.1c-0.4-0.9-0.9-1.8-1.3-2.6c-0.1-0.2-0.1-0.2,0.1-0.3c1.2-0.9,2.3-1.7,3.5-2.6c0.2-0.1,0.2-0.2,0.1-0.4
	c-0.3-0.8-0.4-1.6-0.5-2.5c0-0.2-0.1-0.3-0.3-0.3c-1.4-0.3-2.8-0.7-4.2-1c-0.2,0-0.3-0.1-0.3-0.3c0.1-1,0.1-1.9,0.2-2.9
	c0-0.2,0.1-0.3,0.3-0.3c1.4-0.2,2.9-0.3,4.3-0.5c0.2,0,0.3-0.1,0.4-0.3c0.2-0.8,0.5-1.6,0.8-2.4c0.1-0.2,0-0.3-0.1-0.4
	c-1.1-1-2.1-2-3.2-3c-0.1-0.1-0.2-0.2-0.1-0.4c0.5-0.8,1.1-1.6,1.6-2.4c0.1-0.1,0.2-0.2,0.3-0.1c1.3,0.6,2.7,1.2,4,1.7
	c0.2,0.1,0.3,0.1,0.5-0.1c0.6-0.6,1.2-1.2,1.9-1.7c0.2-0.1,0.2-0.2,0.1-0.4c-0.4-1.4-0.8-2.8-1.2-4.1c-0.1-0.2,0-0.3,0.2-0.4
	c0.9-0.4,1.7-0.8,2.6-1.3c0.2-0.1,0.2-0.1,0.4,0.1c0.9,1.2,1.7,2.3,2.6,3.5c0.1,0.2,0.3,0.2,0.5,0.2c0.8-0.2,1.6-0.4,2.4-0.5
	c0.2,0,0.3-0.1,0.4-0.3c0.3-1.4,0.7-2.8,1-4.2c0-0.2,0.1-0.3,0.3-0.2c1,0.1,1.9,0.1,2.9,0.2c0.2,0,0.2,0.1,0.3,0.3
	c0.2,1.4,0.3,2.9,0.5,4.3c0,0.2,0.1,0.3,0.3,0.4c0.8,0.2,1.6,0.5,2.4,0.8c0.2,0.1,0.3,0.1,0.4-0.1c1-1.1,2-2.1,3-3.2
	c0.1-0.2,0.2-0.2,0.4,0c0.8,0.5,1.6,1.1,2.4,1.6c0.2,0.1,0.2,0.2,0.1,0.4c-0.6,1.3-1.2,2.6-1.7,4c-0.1,0.2-0.1,0.3,0.1,0.4
	c0.6,0.6,1.2,1.2,1.7,1.9c0.1,0.2,0.2,0.2,0.4,0.1c1.4-0.4,2.8-0.8,4.1-1.2c0.2-0.1,0.3,0,0.4,0.2c0.4,0.9,0.9,1.7,1.3,2.6
	c0.1,0.2,0.1,0.2-0.1,0.3c-1.2,0.9-2.3,1.7-3.5,2.6c-0.2,0.1-0.2,0.2-0.1,0.4c0.3,0.8,0.4,1.6,0.5,2.5c0,0.2,0.1,0.3,0.3,0.3
	c1.4,0.3,2.8,0.7,4.2,1c0.2,0,0.3,0.1,0.3,0.3c-0.1,1-0.1,1.9-0.2,2.9c0,0.2-0.1,0.3-0.3,0.3c-1.4,0.2-2.9,0.3-4.3,0.5
	c-0.2,0-0.3,0.1-0.4,0.3c-0.2,0.8-0.5,1.6-0.8,2.4c-0.1,0.2,0,0.3,0.1,0.4c1.1,1,2.1,2,3.2,3c0.2,0.1,0.2,0.2,0,0.4
	c-0.5,0.8-1.1,1.6-1.6,2.4c-0.1,0.2-0.2,0.2-0.4,0.1c-1.3-0.6-2.7-1.2-4-1.7c-0.2-0.1-0.3-0.1-0.4,0.1c-0.6,0.6-1.2,1.2-1.9,1.7
	c-0.2,0.1-0.2,0.2-0.1,0.4c0.4,1.4,0.8,2.8,1.3,4.2c0.1,0.2,0,0.3-0.1,0.3c-0.9,0.4-1.8,0.9-2.6,1.3c-0.2,0.1-0.2,0.1-0.3-0.1
	c-0.9-1.2-1.7-2.3-2.6-3.5c-0.1-0.2-0.2-0.2-0.4-0.1c-0.8,0.2-1.6,0.4-2.4,0.5c-0.3,0-0.4,0.1-0.4,0.4c-0.3,1.4-0.7,2.8-1,4.2
	c0,0.1,0,0.1-0.1,0.2C397.7,72.8,396.6,72.8,395.5,72.7z"/>
<path class="st3" d="M410.3,53.4c-0.4,6.6-6.1,11.6-12.6,11.2c-6.6-0.4-11.6-6.1-11.2-12.7c0.4-6.6,6.1-11.6,12.6-11.2
	C405.7,41.2,410.7,46.9,410.3,53.4z"/>
<path class="st0" d="M428.6,55.7c-0.1-1.2-0.3-2.3-0.4-3.5c0-0.4-0.1-0.8-0.1-1.2c0-0.1-0.1-0.2-0.2-0.2c-0.9-0.2-1.7-0.5-2.5-0.8
	c-0.2-0.1-0.3,0-0.4,0.1c-1,1.1-2,2.1-3,3.2c-0.1,0.1-0.2,0.2-0.4,0.1c-0.8-0.5-1.6-1.1-2.4-1.6c-0.2-0.1-0.2-0.2-0.1-0.4
	c0.6-1.3,1.2-2.7,1.8-4c0.1-0.2,0.1-0.3-0.1-0.4c-0.6-0.6-1.2-1.2-1.7-1.9c-0.1-0.1-0.2-0.2-0.4-0.1c-1.4,0.4-2.8,0.8-4.2,1.3
	c-0.2,0.1-0.3,0-0.3-0.1c-0.4-0.9-0.9-1.8-1.3-2.6c-0.1-0.2-0.1-0.2,0.1-0.3c1.2-0.9,2.3-1.7,3.5-2.6c0.2-0.1,0.2-0.2,0.1-0.4
	c-0.3-0.8-0.4-1.6-0.5-2.5c0-0.2-0.1-0.3-0.3-0.3c-1.4-0.3-2.8-0.7-4.2-1c-0.2,0-0.3-0.1-0.3-0.3c0.1-1,0.1-1.9,0.2-2.9
	c0-0.2,0.1-0.3,0.3-0.3c1.4-0.2,2.9-0.3,4.3-0.5c0.2,0,0.3-0.1,0.4-0.3c0.2-0.8,0.5-1.6,0.8-2.4c0.1-0.2,0-0.3-0.1-0.4
	c-1.1-1-2.1-2-3.2-3c-0.1-0.1-0.2-0.2-0.1-0.4c0.5-0.8,1.1-1.6,1.6-2.4c0.1-0.1,0.2-0.2,0.3-0.1c1.3,0.6,2.7,1.2,4,1.7
	c0.2,0.1,0.3,0.1,0.5-0.1c0.6-0.6,1.2-1.2,1.9-1.7c0.2-0.1,0.2-0.2,0.1-0.4c-0.4-1.4-0.8-2.8-1.2-4.1c-0.1-0.2,0-0.3,0.2-0.4
	c0.9-0.4,1.7-0.8,2.6-1.3c0.2-0.1,0.2-0.1,0.4,0.1c0.9,1.2,1.7,2.3,2.6,3.5c0.1,0.2,0.3,0.2,0.5,0.2c0.8-0.2,1.6-0.4,2.4-0.5
	c0.2,0,0.3-0.1,0.4-0.3c0.3-1.4,0.7-2.8,1-4.2c0-0.2,0.1-0.3,0.3-0.2c1,0.1,1.9,0.1,2.9,0.2c0.2,0,0.2,0.1,0.3,0.3
	c0.2,1.4,0.3,2.9,0.5,4.3c0,0.2,0.1,0.3,0.3,0.4c0.8,0.2,1.6,0.5,2.4,0.8c0.2,0.1,0.3,0.1,0.4-0.1c1-1.1,2-2.1,3-3.2
	c0.1-0.2,0.2-0.2,0.4,0c0.8,0.5,1.6,1.1,2.4,1.6c0.2,0.1,0.2,0.2,0.1,0.4c-0.6,1.3-1.2,2.6-1.7,4c-0.1,0.2-0.1,0.3,0.1,0.4
	c0.6,0.6,1.2,1.2,1.7,1.9c0.1,0.2,0.2,0.2,0.4,0.1c1.4-0.4,2.8-0.8,4.1-1.2c0.2-0.1,0.3,0,0.4,0.2c0.4,0.9,0.9,1.7,1.3,2.6
	c0.1,0.2,0.1,0.2-0.1,0.3c-1.2,0.9-2.3,1.7-3.5,2.6c-0.2,0.1-0.2,0.2-0.1,0.4c0.3,0.8,0.4,1.6,0.5,2.5c0,0.2,0.1,0.3,0.3,0.3
	c1.4,0.3,2.8,0.7,4.2,1c0.2,0,0.3,0.1,0.3,0.3c-0.1,1-0.1,1.9-0.2,2.9c0,0.2-0.1,0.3-0.3,0.3c-1.4,0.2-2.9,0.3-4.3,0.5
	c-0.2,0-0.3,0.1-0.4,0.3c-0.2,0.8-0.5,1.6-0.8,2.4c-0.1,0.2,0,0.3,0.1,0.4c1.1,1,2.1,2,3.2,3c0.2,0.1,0.2,0.2,0,0.4
	c-0.5,0.8-1.1,1.6-1.6,2.4c-0.1,0.2-0.2,0.2-0.4,0.1c-1.3-0.6-2.7-1.2-4-1.7c-0.2-0.1-0.3-0.1-0.4,0.1c-0.6,0.6-1.2,1.2-1.9,1.7
	c-0.2,0.1-0.2,0.2-0.1,0.4c0.4,1.4,0.8,2.8,1.3,4.2c0.1,0.2,0,0.3-0.1,0.3c-0.9,0.4-1.8,0.9-2.6,1.3c-0.2,0.1-0.2,0.1-0.3-0.1
	c-0.9-1.2-1.7-2.3-2.6-3.5c-0.1-0.2-0.2-0.2-0.4-0.1c-0.8,0.2-1.6,0.4-2.4,0.5c-0.3,0-0.4,0.1-0.4,0.4c-0.3,1.4-0.7,2.8-1,4.2
	c0,0.1,0,0.1-0.1,0.2C430.9,55.8,429.7,55.8,428.6,55.7z"/>
<path class="st3" d="M443.4,36.4C443,43,437.3,48,430.8,47.6c-6.6-0.4-11.6-6.1-11.2-12.7c0.4-6.6,6.1-11.6,12.6-11.2
	C438.8,24.2,443.8,29.8,443.4,36.4z"/>
<path class="st0" d="M441.3,90.9c-0.1-1.2-0.3-2.3-0.4-3.5c0-0.4-0.1-0.8-0.1-1.2c0-0.1-0.1-0.2-0.2-0.2c-0.9-0.2-1.7-0.5-2.5-0.8
	c-0.2-0.1-0.3,0-0.4,0.1c-1,1.1-2,2.1-3,3.2c-0.1,0.1-0.2,0.2-0.4,0.1c-0.8-0.5-1.6-1.1-2.4-1.6c-0.2-0.1-0.2-0.2-0.1-0.4
	c0.6-1.3,1.2-2.7,1.8-4c0.1-0.2,0.1-0.3-0.1-0.4c-0.6-0.6-1.2-1.2-1.7-1.9c-0.1-0.1-0.2-0.2-0.4-0.1c-1.4,0.4-2.8,0.8-4.2,1.3
	c-0.2,0.1-0.3,0-0.3-0.1c-0.4-0.9-0.9-1.8-1.3-2.6c-0.1-0.2-0.1-0.2,0.1-0.3c1.2-0.9,2.3-1.7,3.5-2.6c0.2-0.1,0.2-0.2,0.1-0.4
	c-0.3-0.8-0.4-1.6-0.5-2.5c0-0.2-0.1-0.3-0.3-0.3c-1.4-0.3-2.8-0.7-4.2-1c-0.2,0-0.3-0.1-0.3-0.3c0.1-1,0.1-1.9,0.2-2.9
	c0-0.2,0.1-0.3,0.3-0.3c1.4-0.2,2.9-0.3,4.3-0.5c0.2,0,0.3-0.1,0.4-0.3c0.2-0.8,0.5-1.6,0.8-2.4c0.1-0.2,0-0.3-0.1-0.4
	c-1.1-1-2.1-2-3.2-3c-0.1-0.1-0.2-0.2-0.1-0.4c0.5-0.8,1.1-1.6,1.6-2.4c0.1-0.1,0.2-0.2,0.3-0.1c1.3,0.6,2.7,1.2,4,1.7
	c0.2,0.1,0.3,0.1,0.5-0.1c0.6-0.6,1.2-1.2,1.9-1.7c0.2-0.1,0.2-0.2,0.1-0.4c-0.4-1.4-0.8-2.8-1.2-4.1c-0.1-0.2,0-0.3,0.2-0.4
	c0.9-0.4,1.7-0.8,2.6-1.3c0.2-0.1,0.2-0.1,0.4,0.1c0.9,1.2,1.7,2.3,2.6,3.5c0.1,0.2,0.3,0.2,0.5,0.2c0.8-0.2,1.6-0.4,2.4-0.5
	c0.2,0,0.3-0.1,0.4-0.3c0.3-1.4,0.7-2.8,1-4.2c0-0.2,0.1-0.3,0.3-0.2c1,0.1,1.9,0.1,2.9,0.2c0.2,0,0.2,0.1,0.3,0.3
	c0.2,1.4,0.3,2.9,0.5,4.3c0,0.2,0.1,0.3,0.3,0.4c0.8,0.2,1.6,0.5,2.4,0.8c0.2,0.1,0.3,0.1,0.4-0.1c1-1.1,2-2.1,3-3.2
	c0.1-0.2,0.2-0.2,0.4,0c0.8,0.5,1.6,1.1,2.4,1.6c0.2,0.1,0.2,0.2,0.1,0.4c-0.6,1.3-1.2,2.6-1.7,4c-0.1,0.2-0.1,0.3,0.1,0.4
	c0.6,0.6,1.2,1.2,1.7,1.9c0.1,0.2,0.2,0.2,0.4,0.1c1.4-0.4,2.8-0.8,4.1-1.2c0.2-0.1,0.3,0,0.4,0.2c0.4,0.9,0.9,1.7,1.3,2.6
	c0.1,0.2,0.1,0.2-0.1,0.3c-1.2,0.9-2.3,1.7-3.5,2.6c-0.2,0.1-0.2,0.2-0.1,0.4c0.3,0.8,0.4,1.6,0.5,2.5c0,0.2,0.1,0.3,0.3,0.3
	c1.4,0.3,2.8,0.7,4.2,1c0.2,0,0.3,0.1,0.3,0.3c-0.1,1-0.1,1.9-0.2,2.9c0,0.2-0.1,0.3-0.3,0.3c-1.4,0.2-2.9,0.3-4.3,0.5
	c-0.2,0-0.3,0.1-0.4,0.3c-0.2,0.8-0.5,1.6-0.8,2.4c-0.1,0.2,0,0.3,0.1,0.4c1.1,1,2.1,2,3.2,3c0.2,0.1,0.2,0.2,0,0.4
	c-0.5,0.8-1.1,1.6-1.6,2.4c-0.1,0.2-0.2,0.2-0.4,0.1c-1.3-0.6-2.7-1.2-4-1.7c-0.2-0.1-0.3-0.1-0.4,0.1c-0.6,0.6-1.2,1.2-1.9,1.7
	c-0.2,0.1-0.2,0.2-0.1,0.4c0.4,1.4,0.8,2.8,1.3,4.2c0.1,0.2,0,0.3-0.1,0.3c-0.9,0.4-1.8,0.9-2.6,1.3c-0.2,0.1-0.2,0.1-0.3-0.1
	c-0.9-1.2-1.7-2.3-2.6-3.5c-0.1-0.2-0.2-0.2-0.4-0.1c-0.8,0.2-1.6,0.4-2.4,0.5c-0.3,0-0.4,0.1-0.4,0.4c-0.3,1.4-0.7,2.8-1,4.2
	c0,0.1,0,0.1-0.1,0.2C443.5,91,442.4,90.9,441.3,90.9z"/>
<path class="st3" d="M456.1,71.6c-0.4,6.6-6.1,11.6-12.6,11.2c-6.6-0.4-11.6-6.1-11.2-12.7c0.4-6.6,6.1-11.6,12.6-11.2
	C451.5,59.3,456.5,65,456.1,71.6z"/>
<path class="st0" d="M476.9,108.3c-0.1-1.2-0.3-2.3-0.4-3.5c0-0.4-0.1-0.8-0.1-1.2c0-0.1-0.1-0.2-0.2-0.2c-0.9-0.2-1.7-0.5-2.5-0.8
	c-0.2-0.1-0.3,0-0.4,0.1c-1,1.1-2,2.1-3,3.2c-0.1,0.1-0.2,0.2-0.4,0.1c-0.8-0.5-1.6-1.1-2.4-1.6c-0.2-0.1-0.2-0.2-0.1-0.4
	c0.6-1.3,1.2-2.7,1.8-4c0.1-0.2,0.1-0.3-0.1-0.4c-0.6-0.6-1.2-1.2-1.7-1.9c-0.1-0.1-0.2-0.2-0.4-0.1c-1.4,0.4-2.8,0.8-4.2,1.3
	c-0.2,0.1-0.3,0-0.3-0.1c-0.4-0.9-0.9-1.8-1.3-2.6c-0.1-0.2-0.1-0.2,0.1-0.3c1.2-0.9,2.3-1.7,3.5-2.6c0.2-0.1,0.2-0.2,0.1-0.4
	c-0.3-0.8-0.4-1.6-0.5-2.5c0-0.2-0.1-0.3-0.3-0.3c-1.4-0.3-2.8-0.7-4.2-1c-0.2,0-0.3-0.1-0.3-0.3c0.1-1,0.1-1.9,0.2-2.9
	c0-0.2,0.1-0.3,0.3-0.3c1.4-0.2,2.9-0.3,4.3-0.5c0.2,0,0.3-0.1,0.4-0.3c0.2-0.8,0.5-1.6,0.8-2.4c0.1-0.2,0-0.3-0.1-0.4
	c-1.1-1-2.1-2-3.2-3c-0.1-0.1-0.2-0.2-0.1-0.4c0.5-0.8,1.1-1.6,1.6-2.4c0.1-0.1,0.2-0.2,0.3-0.1c1.3,0.6,2.7,1.2,4,1.7
	c0.2,0.1,0.3,0.1,0.5-0.1c0.6-0.6,1.2-1.2,1.9-1.7c0.2-0.1,0.2-0.2,0.1-0.4c-0.4-1.4-0.8-2.8-1.2-4.1c-0.1-0.2,0-0.3,0.2-0.4
	c0.9-0.4,1.7-0.8,2.6-1.3c0.2-0.1,0.2-0.1,0.4,0.1c0.9,1.2,1.7,2.3,2.6,3.5c0.1,0.2,0.3,0.2,0.5,0.2c0.8-0.2,1.6-0.4,2.4-0.5
	c0.2,0,0.3-0.1,0.4-0.3c0.3-1.4,0.7-2.8,1-4.2c0-0.2,0.1-0.3,0.3-0.2c1,0.1,1.9,0.1,2.9,0.2c0.2,0,0.2,0.1,0.3,0.3
	c0.2,1.4,0.3,2.9,0.5,4.3c0,0.2,0.1,0.3,0.3,0.4c0.8,0.2,1.6,0.5,2.4,0.8c0.2,0.1,0.3,0.1,0.4-0.1c1-1.1,2-2.1,3-3.2
	c0.1-0.2,0.2-0.2,0.4,0c0.8,0.5,1.6,1.1,2.4,1.6c0.2,0.1,0.2,0.2,0.1,0.4c-0.6,1.3-1.2,2.6-1.7,4c-0.1,0.2-0.1,0.3,0.1,0.4
	c0.6,0.6,1.2,1.2,1.7,1.9c0.1,0.2,0.2,0.2,0.4,0.1c1.4-0.4,2.8-0.8,4.1-1.2c0.2-0.1,0.3,0,0.4,0.2c0.4,0.9,0.9,1.7,1.3,2.6
	c0.1,0.2,0.1,0.2-0.1,0.3c-1.2,0.9-2.3,1.7-3.5,2.6c-0.2,0.1-0.2,0.2-0.1,0.4c0.3,0.8,0.4,1.6,0.5,2.5c0,0.2,0.1,0.3,0.3,0.3
	c1.4,0.3,2.8,0.7,4.2,1c0.2,0,0.3,0.1,0.3,0.3c-0.1,1-0.1,1.9-0.2,2.9c0,0.2-0.1,0.3-0.3,0.3c-1.4,0.2-2.9,0.3-4.3,0.5
	c-0.2,0-0.3,0.1-0.4,0.3c-0.2,0.8-0.5,1.6-0.8,2.4c-0.1,0.2,0,0.3,0.1,0.4c1.1,1,2.1,2,3.2,3c0.2,0.1,0.2,0.2,0,0.4
	c-0.5,0.8-1.1,1.6-1.6,2.4c-0.1,0.2-0.2,0.2-0.4,0.1c-1.3-0.6-2.7-1.2-4-1.7c-0.2-0.1-0.3-0.1-0.4,0.1c-0.6,0.6-1.2,1.2-1.9,1.7
	c-0.2,0.1-0.2,0.2-0.1,0.4c0.4,1.4,0.8,2.8,1.3,4.2c0.1,0.2,0,0.3-0.1,0.3c-0.9,0.4-1.8,0.9-2.6,1.3c-0.2,0.1-0.2,0.1-0.3-0.1
	c-0.9-1.2-1.7-2.3-2.6-3.5c-0.1-0.2-0.2-0.2-0.4-0.1c-0.8,0.2-1.6,0.4-2.4,0.5c-0.3,0-0.4,0.1-0.4,0.4c-0.3,1.4-0.7,2.8-1,4.2
	c0,0.1,0,0.1-0.1,0.2C479.2,108.5,478,108.4,476.9,108.3z"/>
<path class="st3" d="M491.7,89c-0.4,6.6-6.1,11.6-12.6,11.2c-6.6-0.4-11.6-6.1-11.2-12.7c0.4-6.6,6.1-11.6,12.6-11.2
	C487.1,76.8,492.1,82.5,491.7,89z"/>
<path class="st0" d="M493.7,75c-0.1-1.2-0.3-2.3-0.4-3.5c0-0.4-0.1-0.8-0.1-1.2c0-0.1-0.1-0.2-0.2-0.2c-0.9-0.2-1.7-0.5-2.5-0.8
	c-0.2-0.1-0.3,0-0.4,0.1c-1,1.1-2,2.1-3,3.2c-0.1,0.1-0.2,0.2-0.4,0.1c-0.8-0.5-1.6-1.1-2.4-1.6c-0.2-0.1-0.2-0.2-0.1-0.4
	c0.6-1.3,1.2-2.7,1.8-4c0.1-0.2,0.1-0.3-0.1-0.4c-0.6-0.6-1.2-1.2-1.7-1.9c-0.1-0.1-0.2-0.2-0.4-0.1c-1.4,0.4-2.8,0.8-4.2,1.3
	c-0.2,0.1-0.3,0-0.3-0.1c-0.4-0.9-0.9-1.8-1.3-2.6c-0.1-0.2-0.1-0.2,0.1-0.3c1.2-0.9,2.3-1.7,3.5-2.6c0.2-0.1,0.2-0.2,0.1-0.4
	c-0.3-0.8-0.4-1.6-0.5-2.5c0-0.2-0.1-0.3-0.3-0.3c-1.4-0.3-2.8-0.7-4.2-1c-0.2,0-0.3-0.1-0.3-0.3c0.1-1,0.1-1.9,0.2-2.9
	c0-0.2,0.1-0.3,0.3-0.3c1.4-0.2,2.9-0.3,4.3-0.5c0.2,0,0.3-0.1,0.4-0.3c0.2-0.8,0.5-1.6,0.8-2.4c0.1-0.2,0-0.3-0.1-0.4
	c-1.1-1-2.1-2-3.2-3c-0.1-0.1-0.2-0.2-0.1-0.4c0.5-0.8,1.1-1.6,1.6-2.4c0.1-0.1,0.2-0.2,0.3-0.1c1.3,0.6,2.7,1.2,4,1.7
	c0.2,0.1,0.3,0.1,0.5-0.1c0.6-0.6,1.2-1.2,1.9-1.7c0.2-0.1,0.2-0.2,0.1-0.4c-0.4-1.4-0.8-2.8-1.2-4.1c-0.1-0.2,0-0.3,0.2-0.4
	c0.9-0.4,1.7-0.8,2.6-1.3c0.2-0.1,0.2-0.1,0.4,0.1c0.9,1.2,1.7,2.3,2.6,3.5c0.1,0.2,0.3,0.2,0.5,0.2c0.8-0.2,1.6-0.4,2.4-0.5
	c0.2,0,0.3-0.1,0.4-0.3c0.3-1.4,0.7-2.8,1-4.2c0-0.2,0.1-0.3,0.3-0.2c1,0.1,1.9,0.1,2.9,0.2c0.2,0,0.2,0.1,0.3,0.3
	c0.2,1.4,0.3,2.9,0.5,4.3c0,0.2,0.1,0.3,0.3,0.4c0.8,0.2,1.6,0.5,2.4,0.8c0.2,0.1,0.3,0.1,0.4-0.1c1-1.1,2-2.1,3-3.2
	c0.1-0.2,0.2-0.2,0.4,0c0.8,0.5,1.6,1.1,2.4,1.6c0.2,0.1,0.2,0.2,0.1,0.4c-0.6,1.3-1.2,2.6-1.7,4c-0.1,0.2-0.1,0.3,0.1,0.4
	c0.6,0.6,1.2,1.2,1.7,1.9c0.1,0.2,0.2,0.2,0.4,0.1c1.4-0.4,2.8-0.8,4.1-1.2c0.2-0.1,0.3,0,0.4,0.2c0.4,0.9,0.9,1.7,1.3,2.6
	c0.1,0.2,0.1,0.2-0.1,0.3c-1.2,0.9-2.3,1.7-3.5,2.6c-0.2,0.1-0.2,0.2-0.1,0.4c0.3,0.8,0.4,1.6,0.5,2.5c0,0.2,0.1,0.3,0.3,0.3
	c1.4,0.3,2.8,0.7,4.2,1c0.2,0,0.3,0.1,0.3,0.3c-0.1,1-0.1,1.9-0.2,2.9c0,0.2-0.1,0.3-0.3,0.3c-1.4,0.2-2.9,0.3-4.3,0.5
	c-0.2,0-0.3,0.1-0.4,0.3c-0.2,0.8-0.5,1.6-0.8,2.4c-0.1,0.2,0,0.3,0.1,0.4c1.1,1,2.1,2,3.2,3c0.2,0.1,0.2,0.2,0,0.4
	c-0.5,0.8-1.1,1.6-1.6,2.4c-0.1,0.2-0.2,0.2-0.4,0.1c-1.3-0.6-2.7-1.2-4-1.7c-0.2-0.1-0.3-0.1-0.4,0.1c-0.6,0.6-1.2,1.2-1.9,1.7
	c-0.2,0.1-0.2,0.2-0.1,0.4c0.4,1.4,0.8,2.8,1.3,4.2c0.1,0.2,0,0.3-0.1,0.3c-0.9,0.4-1.8,0.9-2.6,1.3c-0.2,0.1-0.2,0.1-0.3-0.1
	c-0.9-1.2-1.7-2.3-2.6-3.5c-0.1-0.2-0.2-0.2-0.4-0.1c-0.8,0.2-1.6,0.4-2.4,0.5c-0.3,0-0.4,0.1-0.4,0.4c-0.3,1.4-0.7,2.8-1,4.2
	c0,0.1,0,0.1-0.1,0.2C495.9,75.1,494.8,75.1,493.7,75z"/>
<path class="st3" d="M508.5,55.7c-0.4,6.6-6.1,11.6-12.6,11.2c-6.6-0.4-11.6-6.1-11.2-12.7c0.4-6.6,6.1-11.6,12.6-11.2
	C503.9,43.5,508.9,49.1,508.5,55.7z"/>
<path class="st0" d="M514.2,103.2c-0.1-1-0.2-2.1-0.4-3.1c0-0.3-0.1-0.7-0.1-1c0-0.1,0-0.2-0.2-0.2c-0.8-0.2-1.5-0.4-2.3-0.8
	c-0.2-0.1-0.2,0-0.3,0.1c-0.9,0.9-1.8,1.9-2.7,2.8c-0.1,0.1-0.2,0.1-0.3,0c-0.7-0.5-1.4-1-2.2-1.4c-0.1-0.1-0.2-0.2-0.1-0.3
	c0.5-1.2,1-2.4,1.6-3.6c0.1-0.1,0.1-0.2-0.1-0.3c-0.6-0.5-1.1-1.1-1.5-1.7c-0.1-0.1-0.2-0.2-0.3-0.1c-1.2,0.4-2.5,0.7-3.7,1.1
	c-0.1,0-0.2,0-0.3-0.1c-0.4-0.8-0.8-1.6-1.2-2.3c-0.1-0.1,0-0.2,0.1-0.3c1-0.8,2.1-1.5,3.1-2.3c0.1-0.1,0.2-0.2,0.1-0.4
	c-0.2-0.7-0.4-1.5-0.5-2.2c0-0.2-0.1-0.3-0.3-0.3c-1.2-0.3-2.5-0.6-3.7-0.9c-0.2,0-0.2-0.1-0.2-0.3c0.1-0.9,0.1-1.7,0.2-2.6
	c0-0.2,0.1-0.2,0.2-0.2c1.3-0.1,2.5-0.3,3.8-0.4c0.2,0,0.3-0.1,0.3-0.3c0.2-0.7,0.4-1.5,0.7-2.1c0.1-0.2,0-0.2-0.1-0.4
	c-0.9-0.9-1.9-1.8-2.8-2.7c-0.1-0.1-0.2-0.2-0.1-0.4c0.5-0.7,1-1.4,1.4-2.2c0.1-0.1,0.2-0.2,0.3-0.1c1.2,0.5,2.4,1,3.6,1.6
	c0.2,0.1,0.3,0.1,0.4-0.1c0.5-0.6,1.1-1.1,1.7-1.5c0.1-0.1,0.2-0.2,0.1-0.4c-0.4-1.2-0.7-2.5-1.1-3.7c-0.1-0.2,0-0.3,0.2-0.4
	c0.8-0.4,1.5-0.8,2.3-1.1c0.1-0.1,0.2-0.1,0.3,0.1c0.8,1,1.5,2.1,2.3,3.1c0.1,0.2,0.2,0.2,0.4,0.1c0.7-0.2,1.4-0.4,2.2-0.4
	c0.2,0,0.3-0.1,0.3-0.3c0.3-1.2,0.6-2.5,0.9-3.7c0-0.2,0.1-0.2,0.3-0.2c0.9,0.1,1.7,0.1,2.6,0.2c0.2,0,0.2,0.1,0.2,0.2
	c0.1,1.3,0.3,2.6,0.4,3.8c0,0.2,0.1,0.3,0.3,0.3c0.7,0.2,1.4,0.4,2.1,0.7c0.2,0.1,0.3,0.1,0.4-0.1c0.9-0.9,1.8-1.9,2.7-2.8
	c0.1-0.1,0.2-0.1,0.4,0c0.7,0.5,1.4,0.9,2.1,1.4c0.2,0.1,0.2,0.2,0.1,0.3c-0.5,1.2-1,2.4-1.6,3.5c-0.1,0.2-0.1,0.3,0.1,0.4
	c0.6,0.5,1.1,1.1,1.5,1.7c0.1,0.2,0.2,0.2,0.4,0.1c1.2-0.4,2.5-0.7,3.7-1.1c0.2-0.1,0.3,0,0.3,0.1c0.4,0.8,0.8,1.6,1.2,2.3
	c0.1,0.1,0,0.2-0.1,0.3c-1,0.8-2.1,1.5-3.1,2.3c-0.1,0.1-0.2,0.2-0.1,0.4c0.2,0.7,0.4,1.5,0.5,2.2c0,0.2,0.1,0.3,0.3,0.3
	c1.2,0.3,2.5,0.6,3.7,0.9c0.2,0,0.2,0.1,0.2,0.3c-0.1,0.9-0.1,1.7-0.2,2.6c0,0.2-0.1,0.2-0.2,0.2c-1.3,0.1-2.6,0.3-3.8,0.4
	c-0.2,0-0.3,0.1-0.3,0.3c-0.2,0.7-0.4,1.5-0.7,2.1c-0.1,0.2,0,0.2,0.1,0.4c0.9,0.9,1.9,1.8,2.8,2.7c0.1,0.1,0.1,0.2,0,0.4
	c-0.5,0.7-1,1.4-1.4,2.1c-0.1,0.1-0.2,0.2-0.3,0.1c-1.2-0.5-2.4-1-3.6-1.6c-0.2-0.1-0.3-0.1-0.4,0.1c-0.5,0.6-1.1,1.1-1.7,1.5
	c-0.1,0.1-0.2,0.2-0.1,0.4c0.4,1.2,0.7,2.5,1.1,3.7c0,0.2,0,0.2-0.1,0.3c-0.8,0.4-1.6,0.8-2.3,1.2c-0.1,0.1-0.2,0-0.3-0.1
	c-0.8-1-1.5-2.1-2.3-3.1c-0.1-0.1-0.2-0.2-0.4-0.1c-0.7,0.2-1.4,0.4-2.2,0.4c-0.2,0-0.3,0.1-0.4,0.3c-0.3,1.3-0.6,2.5-0.9,3.8
	c0,0,0,0.1,0,0.1C516.2,103.3,515.2,103.2,514.2,103.2z"/>
<path class="st3" d="M527.4,85.9c-0.4,5.9-5.4,10.3-11.3,10c-5.9-0.4-10.3-5.4-10-11.3c0.4-5.9,5.4-10.3,11.3-9.9
	C523.3,75,527.7,80.1,527.4,85.9z"/>
<path class="st0" d="M462.8,46c-0.1-0.8-0.2-1.6-0.3-2.4c0-0.3-0.1-0.5-0.1-0.8c0-0.1,0-0.1-0.1-0.2c-0.6-0.1-1.2-0.3-1.7-0.6
	c-0.1-0.1-0.2,0-0.2,0.1c-0.7,0.7-1.4,1.5-2.1,2.2c-0.1,0.1-0.1,0.1-0.3,0c-0.6-0.4-1.1-0.7-1.7-1.1c-0.1-0.1-0.1-0.1-0.1-0.2
	c0.4-0.9,0.8-1.8,1.2-2.8c0.1-0.1,0-0.2,0-0.3c-0.4-0.4-0.8-0.9-1.2-1.3c-0.1-0.1-0.1-0.1-0.3-0.1c-1,0.3-1.9,0.6-2.9,0.9
	c-0.1,0-0.2,0-0.2-0.1c-0.3-0.6-0.6-1.2-0.9-1.8c-0.1-0.1,0-0.2,0.1-0.2c0.8-0.6,1.6-1.2,2.4-1.8c0.1-0.1,0.1-0.1,0.1-0.3
	c-0.2-0.6-0.3-1.1-0.3-1.7c0-0.2-0.1-0.2-0.2-0.2c-1-0.2-1.9-0.5-2.9-0.7c-0.1,0-0.2-0.1-0.2-0.2c0-0.7,0.1-1.3,0.1-2
	c0-0.1,0.1-0.2,0.2-0.2c1-0.1,2-0.2,2.9-0.3c0.1,0,0.2-0.1,0.3-0.2c0.1-0.6,0.3-1.1,0.6-1.7c0.1-0.1,0-0.2-0.1-0.3
	c-0.7-0.7-1.4-1.4-2.2-2c-0.1-0.1-0.1-0.2,0-0.3c0.4-0.5,0.7-1.1,1.1-1.7c0.1-0.1,0.1-0.1,0.2-0.1c0.9,0.4,1.8,0.8,2.7,1.2
	c0.1,0.1,0.2,0.1,0.3-0.1c0.4-0.4,0.8-0.8,1.3-1.2c0.1-0.1,0.1-0.1,0.1-0.3c-0.3-0.9-0.6-1.9-0.9-2.8c-0.1-0.2,0-0.2,0.1-0.3
	c0.6-0.3,1.2-0.6,1.8-0.9c0.1-0.1,0.2,0,0.2,0.1c0.6,0.8,1.2,1.6,1.8,2.4c0.1,0.1,0.2,0.1,0.3,0.1c0.5-0.2,1.1-0.3,1.7-0.3
	c0.2,0,0.2-0.1,0.2-0.2c0.2-1,0.5-1.9,0.7-2.9c0-0.1,0.1-0.2,0.2-0.2c0.7,0,1.3,0.1,2,0.1c0.1,0,0.2,0.1,0.2,0.2c0.1,1,0.2,2,0.3,3
	c0,0.2,0.1,0.2,0.2,0.2c0.6,0.1,1.1,0.3,1.6,0.5c0.1,0.1,0.2,0,0.3-0.1c0.7-0.7,1.4-1.4,2-2.2c0.1-0.1,0.2-0.1,0.3,0
	c0.5,0.4,1.1,0.7,1.6,1.1c0.1,0.1,0.1,0.1,0.1,0.3c-0.4,0.9-0.8,1.8-1.2,2.7c-0.1,0.1-0.1,0.2,0.1,0.3c0.4,0.4,0.8,0.8,1.2,1.3
	c0.1,0.1,0.2,0.1,0.3,0.1c0.9-0.3,1.9-0.6,2.8-0.9c0.1,0,0.2,0,0.3,0.1c0.3,0.6,0.6,1.2,0.9,1.8c0.1,0.1,0,0.2-0.1,0.2
	c-0.8,0.6-1.6,1.2-2.4,1.8c-0.1,0.1-0.1,0.1-0.1,0.3c0.2,0.6,0.3,1.1,0.4,1.7c0,0.2,0.1,0.2,0.2,0.2c1,0.2,1.9,0.5,2.9,0.7
	c0.1,0,0.2,0.1,0.2,0.2c0,0.7-0.1,1.3-0.1,2c0,0.1,0,0.2-0.2,0.2c-1,0.1-2,0.2-3,0.3c-0.2,0-0.2,0.1-0.2,0.2
	c-0.1,0.6-0.3,1.1-0.6,1.7c-0.1,0.1,0,0.2,0.1,0.3c0.7,0.7,1.4,1.4,2.2,2c0.1,0.1,0.1,0.2,0,0.3c-0.4,0.5-0.7,1.1-1.1,1.7
	c-0.1,0.1-0.1,0.1-0.2,0.1c-0.9-0.4-1.8-0.8-2.7-1.2c-0.1-0.1-0.2,0-0.3,0.1c-0.4,0.4-0.8,0.8-1.3,1.2c-0.1,0.1-0.1,0.1-0.1,0.3
	c0.3,1,0.6,1.9,0.9,2.9c0,0.1,0,0.2-0.1,0.2c-0.6,0.3-1.2,0.6-1.8,0.9c-0.1,0.1-0.2,0-0.2-0.1c-0.6-0.8-1.2-1.6-1.8-2.4
	c-0.1-0.1-0.1-0.1-0.3-0.1c-0.5,0.2-1.1,0.3-1.7,0.3c-0.2,0-0.2,0.1-0.3,0.3c-0.2,1-0.5,1.9-0.7,2.9c0,0,0,0.1,0,0.1
	C464.4,46.1,463.6,46,462.8,46z"/>
<path class="st3" d="M473,32.7c-0.3,4.5-4.2,8-8.7,7.7c-4.5-0.3-8-4.2-7.7-8.7c0.3-4.5,4.2-7.9,8.7-7.7
	C469.8,24.3,473.3,28.2,473,32.7z"/>
<path class="st0" d="M506.1,119.4c-0.1-0.5-0.1-1.1-0.2-1.6c0-0.2,0-0.4-0.1-0.5c0-0.1,0-0.1-0.1-0.1c-0.4-0.1-0.8-0.2-1.2-0.4
	c-0.1,0-0.1,0-0.2,0c-0.5,0.5-0.9,1-1.4,1.5c-0.1,0.1-0.1,0.1-0.2,0c-0.4-0.3-0.8-0.5-1.1-0.8c-0.1,0-0.1-0.1,0-0.2
	c0.3-0.6,0.5-1.3,0.8-1.9c0-0.1,0-0.1,0-0.2c-0.3-0.3-0.6-0.6-0.8-0.9c0-0.1-0.1-0.1-0.2-0.1c-0.7,0.2-1.3,0.4-2,0.6
	c-0.1,0-0.1,0-0.2-0.1c-0.2-0.4-0.4-0.8-0.6-1.2c0-0.1,0-0.1,0-0.2c0.5-0.4,1.1-0.8,1.6-1.2c0.1-0.1,0.1-0.1,0.1-0.2
	c-0.1-0.4-0.2-0.8-0.2-1.2c0-0.1-0.1-0.1-0.1-0.2c-0.7-0.2-1.3-0.3-2-0.5c-0.1,0-0.1,0-0.1-0.2c0-0.4,0.1-0.9,0.1-1.3
	c0-0.1,0-0.1,0.1-0.1c0.7-0.1,1.3-0.2,2-0.2c0.1,0,0.1,0,0.2-0.1c0.1-0.4,0.2-0.8,0.4-1.1c0-0.1,0-0.1,0-0.2c-0.5-0.5-1-0.9-1.5-1.4
	c-0.1-0.1-0.1-0.1,0-0.2c0.3-0.4,0.5-0.8,0.8-1.1c0-0.1,0.1-0.1,0.2,0c0.6,0.3,1.2,0.5,1.9,0.8c0.1,0,0.1,0,0.2,0
	c0.3-0.3,0.6-0.6,0.9-0.8c0.1-0.1,0.1-0.1,0.1-0.2c-0.2-0.6-0.4-1.3-0.6-1.9c0-0.1,0-0.1,0.1-0.2c0.4-0.2,0.8-0.4,1.2-0.6
	c0.1,0,0.1,0,0.2,0c0.4,0.5,0.8,1.1,1.2,1.6c0.1,0.1,0.1,0.1,0.2,0.1c0.4-0.1,0.8-0.2,1.1-0.2c0.1,0,0.1-0.1,0.2-0.2
	c0.2-0.7,0.3-1.3,0.5-2c0-0.1,0.1-0.1,0.2-0.1c0.4,0,0.9,0.1,1.3,0.1c0.1,0,0.1,0,0.1,0.1c0.1,0.7,0.2,1.3,0.2,2
	c0,0.1,0,0.1,0.2,0.2c0.4,0.1,0.8,0.2,1.1,0.4c0.1,0,0.1,0,0.2,0c0.5-0.5,0.9-1,1.4-1.5c0.1-0.1,0.1-0.1,0.2,0
	c0.4,0.3,0.7,0.5,1.1,0.7c0.1,0.1,0.1,0.1,0.1,0.2c-0.3,0.6-0.5,1.2-0.8,1.9c0,0.1,0,0.1,0,0.2c0.3,0.3,0.6,0.6,0.8,0.9
	c0.1,0.1,0.1,0.1,0.2,0.1c0.6-0.2,1.3-0.4,1.9-0.6c0.1,0,0.1,0,0.2,0.1c0.2,0.4,0.4,0.8,0.6,1.2c0,0.1,0,0.1,0,0.2
	c-0.5,0.4-1.1,0.8-1.6,1.2c-0.1,0.1-0.1,0.1-0.1,0.2c0.1,0.4,0.2,0.8,0.2,1.2c0,0.1,0.1,0.1,0.1,0.2c0.7,0.2,1.3,0.3,2,0.5
	c0.1,0,0.1,0.1,0.1,0.2c0,0.4-0.1,0.9-0.1,1.3c0,0.1,0,0.1-0.1,0.1c-0.7,0.1-1.3,0.2-2,0.2c-0.1,0-0.1,0-0.2,0.2
	c-0.1,0.4-0.2,0.8-0.4,1.1c0,0.1,0,0.1,0,0.2c0.5,0.5,1,0.9,1.5,1.4c0.1,0.1,0.1,0.1,0,0.2c-0.3,0.4-0.5,0.7-0.7,1.1
	c0,0.1-0.1,0.1-0.2,0c-0.6-0.3-1.2-0.5-1.9-0.8c-0.1,0-0.1,0-0.2,0c-0.3,0.3-0.6,0.6-0.9,0.8c-0.1,0.1-0.1,0.1-0.1,0.2
	c0.2,0.7,0.4,1.3,0.6,2c0,0.1,0,0.1-0.1,0.2c-0.4,0.2-0.8,0.4-1.2,0.6c-0.1,0-0.1,0-0.2,0c-0.4-0.5-0.8-1.1-1.2-1.6
	c-0.1-0.1-0.1-0.1-0.2-0.1c-0.4,0.1-0.8,0.2-1.1,0.2c-0.1,0-0.2,0.1-0.2,0.2c-0.2,0.7-0.3,1.3-0.5,2c0,0,0,0,0,0.1
	C507.1,119.4,506.6,119.4,506.1,119.4z"/>
<path class="st3" d="M513,110.3c-0.2,3.1-2.8,5.4-5.9,5.2c-3.1-0.2-5.4-2.9-5.2-5.9c0.2-3.1,2.8-5.4,5.9-5.2
	C510.8,104.6,513.2,107.3,513,110.3z"/>
<path class="st0" d="M378.4,83.1c-0.1-0.5-0.1-1.1-0.2-1.6c0-0.2,0-0.4-0.1-0.5c0-0.1,0-0.1-0.1-0.1c-0.4-0.1-0.8-0.2-1.2-0.4
	c-0.1,0-0.1,0-0.2,0c-0.5,0.5-0.9,1-1.4,1.5c-0.1,0.1-0.1,0.1-0.2,0c-0.4-0.3-0.8-0.5-1.1-0.8c-0.1,0-0.1-0.1,0-0.2
	c0.3-0.6,0.5-1.3,0.8-1.9c0-0.1,0-0.1,0-0.2c-0.3-0.3-0.6-0.6-0.8-0.9c0-0.1-0.1-0.1-0.2-0.1c-0.7,0.2-1.3,0.4-2,0.6
	c-0.1,0-0.1,0-0.2-0.1c-0.2-0.4-0.4-0.8-0.6-1.2c0-0.1,0-0.1,0-0.2c0.5-0.4,1.1-0.8,1.6-1.2c0.1-0.1,0.1-0.1,0.1-0.2
	c-0.1-0.4-0.2-0.8-0.2-1.2c0-0.1-0.1-0.1-0.1-0.2c-0.7-0.2-1.3-0.3-2-0.5c-0.1,0-0.1,0-0.1-0.2c0-0.4,0.1-0.9,0.1-1.3
	c0-0.1,0-0.1,0.1-0.1c0.7-0.1,1.3-0.2,2-0.2c0.1,0,0.1,0,0.2-0.1c0.1-0.4,0.2-0.8,0.4-1.1c0-0.1,0-0.1,0-0.2c-0.5-0.5-1-0.9-1.5-1.4
	c-0.1-0.1-0.1-0.1,0-0.2c0.3-0.4,0.5-0.8,0.8-1.1c0-0.1,0.1-0.1,0.2,0c0.6,0.3,1.2,0.5,1.9,0.8c0.1,0,0.1,0,0.2,0
	c0.3-0.3,0.6-0.6,0.9-0.8c0.1-0.1,0.1-0.1,0.1-0.2c-0.2-0.6-0.4-1.3-0.6-1.9c0-0.1,0-0.1,0.1-0.2c0.4-0.2,0.8-0.4,1.2-0.6
	c0.1,0,0.1,0,0.2,0c0.4,0.5,0.8,1.1,1.2,1.6c0.1,0.1,0.1,0.1,0.2,0.1c0.4-0.1,0.8-0.2,1.1-0.2c0.1,0,0.1-0.1,0.2-0.2
	c0.2-0.7,0.3-1.3,0.5-2c0-0.1,0.1-0.1,0.2-0.1c0.4,0,0.9,0.1,1.3,0.1c0.1,0,0.1,0,0.1,0.1c0.1,0.7,0.2,1.3,0.2,2
	c0,0.1,0,0.1,0.2,0.2c0.4,0.1,0.8,0.2,1.1,0.4c0.1,0,0.1,0,0.2,0c0.5-0.5,0.9-1,1.4-1.5c0.1-0.1,0.1-0.1,0.2,0
	c0.4,0.3,0.7,0.5,1.1,0.7c0.1,0.1,0.1,0.1,0.1,0.2c-0.3,0.6-0.5,1.2-0.8,1.9c0,0.1,0,0.1,0,0.2c0.3,0.3,0.6,0.6,0.8,0.9
	c0.1,0.1,0.1,0.1,0.2,0.1c0.6-0.2,1.3-0.4,1.9-0.6c0.1,0,0.1,0,0.2,0.1c0.2,0.4,0.4,0.8,0.6,1.2c0,0.1,0,0.1,0,0.2
	c-0.5,0.4-1.1,0.8-1.6,1.2c-0.1,0.1-0.1,0.1-0.1,0.2c0.1,0.4,0.2,0.8,0.2,1.2c0,0.1,0.1,0.1,0.1,0.2c0.7,0.2,1.3,0.3,2,0.5
	c0.1,0,0.1,0.1,0.1,0.2c0,0.4-0.1,0.9-0.1,1.3c0,0.1,0,0.1-0.1,0.1c-0.7,0.1-1.3,0.2-2,0.2c-0.1,0-0.1,0-0.2,0.2
	c-0.1,0.4-0.2,0.8-0.4,1.1c0,0.1,0,0.1,0,0.2c0.5,0.5,1,0.9,1.5,1.4c0.1,0.1,0.1,0.1,0,0.2c-0.3,0.4-0.5,0.7-0.7,1.1
	c0,0.1-0.1,0.1-0.2,0c-0.6-0.3-1.2-0.5-1.9-0.8c-0.1,0-0.1,0-0.2,0c-0.3,0.3-0.6,0.6-0.9,0.8c-0.1,0.1-0.1,0.1-0.1,0.2
	c0.2,0.7,0.4,1.3,0.6,2c0,0.1,0,0.1-0.1,0.2c-0.4,0.2-0.8,0.4-1.2,0.6c-0.1,0-0.1,0-0.2,0c-0.4-0.5-0.8-1.1-1.2-1.6
	c-0.1-0.1-0.1-0.1-0.2-0.1c-0.4,0.1-0.8,0.2-1.1,0.2c-0.1,0-0.2,0.1-0.2,0.2c-0.2,0.7-0.3,1.3-0.5,2c0,0,0,0,0,0.1
	C379.5,83.2,378.9,83.1,378.4,83.1z"/>
<path class="st3" d="M385.3,74.1c-0.2,3.1-2.8,5.4-5.9,5.2c-3.1-0.2-5.4-2.9-5.2-5.9c0.2-3.1,2.8-5.4,5.9-5.2
	C383.2,68.3,385.5,71,385.3,74.1z"/>
<path class="st0" d="M384.8,100.1c-0.1-0.5-0.1-1.1-0.2-1.6c0-0.2,0-0.4-0.1-0.5c0-0.1,0-0.1-0.1-0.1c-0.4-0.1-0.8-0.2-1.2-0.4
	c-0.1,0-0.1,0-0.2,0c-0.5,0.5-0.9,1-1.4,1.5c-0.1,0.1-0.1,0.1-0.2,0c-0.4-0.3-0.8-0.5-1.1-0.8c-0.1,0-0.1-0.1,0-0.2
	c0.3-0.6,0.5-1.3,0.8-1.9c0-0.1,0-0.1,0-0.2c-0.3-0.3-0.6-0.6-0.8-0.9c0-0.1-0.1-0.1-0.2-0.1c-0.7,0.2-1.3,0.4-2,0.6
	c-0.1,0-0.1,0-0.2-0.1c-0.2-0.4-0.4-0.8-0.6-1.2c0-0.1,0-0.1,0-0.2c0.5-0.4,1.1-0.8,1.6-1.2c0.1-0.1,0.1-0.1,0.1-0.2
	c-0.1-0.4-0.2-0.8-0.2-1.2c0-0.1-0.1-0.1-0.1-0.2c-0.7-0.2-1.3-0.3-2-0.5c-0.1,0-0.1,0-0.1-0.2c0-0.4,0.1-0.9,0.1-1.3
	c0-0.1,0-0.1,0.1-0.1c0.7-0.1,1.3-0.2,2-0.2c0.1,0,0.1,0,0.2-0.1c0.1-0.4,0.2-0.8,0.4-1.1c0-0.1,0-0.1,0-0.2c-0.5-0.5-1-0.9-1.5-1.4
	c-0.1-0.1-0.1-0.1,0-0.2c0.3-0.4,0.5-0.8,0.8-1.1c0-0.1,0.1-0.1,0.2,0c0.6,0.3,1.2,0.5,1.9,0.8c0.1,0,0.1,0,0.2,0
	c0.3-0.3,0.6-0.6,0.9-0.8c0.1-0.1,0.1-0.1,0.1-0.2c-0.2-0.6-0.4-1.3-0.6-1.9c0-0.1,0-0.1,0.1-0.2c0.4-0.2,0.8-0.4,1.2-0.6
	c0.1,0,0.1,0,0.2,0c0.4,0.5,0.8,1.1,1.2,1.6c0.1,0.1,0.1,0.1,0.2,0.1c0.4-0.1,0.8-0.2,1.1-0.2c0.1,0,0.1-0.1,0.2-0.2
	c0.2-0.7,0.3-1.3,0.5-2c0-0.1,0.1-0.1,0.2-0.1c0.4,0,0.9,0.1,1.3,0.1c0.1,0,0.1,0,0.1,0.1c0.1,0.7,0.2,1.3,0.2,2
	c0,0.1,0,0.1,0.2,0.2c0.4,0.1,0.8,0.2,1.1,0.4c0.1,0,0.1,0,0.2,0c0.5-0.5,0.9-1,1.4-1.5c0.1-0.1,0.1-0.1,0.2,0
	c0.4,0.3,0.7,0.5,1.1,0.7c0.1,0.1,0.1,0.1,0.1,0.2c-0.3,0.6-0.5,1.2-0.8,1.9c0,0.1,0,0.1,0,0.2c0.3,0.3,0.6,0.6,0.8,0.9
	c0.1,0.1,0.1,0.1,0.2,0.1c0.6-0.2,1.3-0.4,1.9-0.6c0.1,0,0.1,0,0.2,0.1c0.2,0.4,0.4,0.8,0.6,1.2c0,0.1,0,0.1,0,0.2
	c-0.5,0.4-1.1,0.8-1.6,1.2c-0.1,0.1-0.1,0.1-0.1,0.2c0.1,0.4,0.2,0.8,0.2,1.2c0,0.1,0.1,0.1,0.1,0.2c0.7,0.2,1.3,0.3,2,0.5
	c0.1,0,0.1,0.1,0.1,0.2c0,0.4-0.1,0.9-0.1,1.3c0,0.1,0,0.1-0.1,0.1c-0.7,0.1-1.3,0.2-2,0.2c-0.1,0-0.1,0-0.2,0.2
	c-0.1,0.4-0.2,0.8-0.4,1.1c0,0.1,0,0.1,0,0.2c0.5,0.5,1,0.9,1.5,1.4c0.1,0.1,0.1,0.1,0,0.2c-0.3,0.4-0.5,0.7-0.7,1.1
	c0,0.1-0.1,0.1-0.2,0c-0.6-0.3-1.2-0.5-1.9-0.8c-0.1,0-0.1,0-0.2,0c-0.3,0.3-0.6,0.6-0.9,0.8c-0.1,0.1-0.1,0.1-0.1,0.2
	c0.2,0.7,0.4,1.3,0.6,2c0,0.1,0,0.1-0.1,0.2c-0.4,0.2-0.8,0.4-1.2,0.6c-0.1,0-0.1,0-0.2,0c-0.4-0.5-0.8-1.1-1.2-1.6
	c-0.1-0.1-0.1-0.1-0.2-0.1c-0.4,0.1-0.8,0.2-1.1,0.2c-0.1,0-0.2,0.1-0.2,0.2c-0.2,0.7-0.3,1.3-0.5,2c0,0,0,0,0,0.1
	C385.8,100.2,385.3,100.1,384.8,100.1z"/>
<path class="st3" d="M391.7,91.1c-0.2,3.1-2.8,5.4-5.9,5.2c-3.1-0.2-5.4-2.9-5.2-5.9c0.2-3.1,2.8-5.4,5.9-5.2
	C389.5,85.3,391.9,88,391.7,91.1z"/>
<path class="st0" d="M468.2,67.7c-0.1-0.5-0.1-1.1-0.2-1.6c0-0.2,0-0.4-0.1-0.5c0-0.1,0-0.1-0.1-0.1c-0.4-0.1-0.8-0.2-1.2-0.4
	c-0.1,0-0.1,0-0.2,0c-0.5,0.5-0.9,1-1.4,1.5c-0.1,0.1-0.1,0.1-0.2,0c-0.4-0.3-0.8-0.5-1.1-0.8c-0.1,0-0.1-0.1,0-0.2
	c0.3-0.6,0.5-1.3,0.8-1.9c0-0.1,0-0.1,0-0.2c-0.3-0.3-0.6-0.6-0.8-0.9c0-0.1-0.1-0.1-0.2-0.1c-0.7,0.2-1.3,0.4-2,0.6
	c-0.1,0-0.1,0-0.2-0.1c-0.2-0.4-0.4-0.8-0.6-1.2c0-0.1,0-0.1,0-0.2c0.5-0.4,1.1-0.8,1.6-1.2c0.1-0.1,0.1-0.1,0.1-0.2
	c-0.1-0.4-0.2-0.8-0.2-1.2c0-0.1-0.1-0.1-0.1-0.2c-0.7-0.2-1.3-0.3-2-0.5c-0.1,0-0.1,0-0.1-0.2c0-0.4,0.1-0.9,0.1-1.3
	c0-0.1,0-0.1,0.1-0.1c0.7-0.1,1.3-0.2,2-0.2c0.1,0,0.1,0,0.2-0.1c0.1-0.4,0.2-0.8,0.4-1.1c0-0.1,0-0.1,0-0.2c-0.5-0.5-1-0.9-1.5-1.4
	c-0.1-0.1-0.1-0.1,0-0.2c0.3-0.4,0.5-0.8,0.8-1.1c0-0.1,0.1-0.1,0.2,0c0.6,0.3,1.2,0.5,1.9,0.8c0.1,0,0.1,0,0.2,0
	c0.3-0.3,0.6-0.6,0.9-0.8c0.1-0.1,0.1-0.1,0.1-0.2c-0.2-0.6-0.4-1.3-0.6-1.9c0-0.1,0-0.1,0.1-0.2c0.4-0.2,0.8-0.4,1.2-0.6
	c0.1,0,0.1,0,0.2,0c0.4,0.5,0.8,1.1,1.2,1.6c0.1,0.1,0.1,0.1,0.2,0.1c0.4-0.1,0.8-0.2,1.1-0.2c0.1,0,0.1-0.1,0.2-0.2
	c0.2-0.7,0.3-1.3,0.5-2c0-0.1,0.1-0.1,0.2-0.1c0.4,0,0.9,0.1,1.3,0.1c0.1,0,0.1,0,0.1,0.1c0.1,0.7,0.2,1.3,0.2,2
	c0,0.1,0,0.1,0.2,0.2c0.4,0.1,0.8,0.2,1.1,0.4c0.1,0,0.1,0,0.2,0c0.5-0.5,0.9-1,1.4-1.5c0.1-0.1,0.1-0.1,0.2,0
	c0.4,0.3,0.7,0.5,1.1,0.7c0.1,0.1,0.1,0.1,0.1,0.2c-0.3,0.6-0.5,1.2-0.8,1.9c0,0.1,0,0.1,0,0.2c0.3,0.3,0.6,0.6,0.8,0.9
	c0.1,0.1,0.1,0.1,0.2,0.1c0.6-0.2,1.3-0.4,1.9-0.6c0.1,0,0.1,0,0.2,0.1c0.2,0.4,0.4,0.8,0.6,1.2c0,0.1,0,0.1,0,0.2
	c-0.5,0.4-1.1,0.8-1.6,1.2c-0.1,0.1-0.1,0.1-0.1,0.2c0.1,0.4,0.2,0.8,0.2,1.2c0,0.1,0.1,0.1,0.1,0.2c0.7,0.2,1.3,0.3,2,0.5
	c0.1,0,0.1,0.1,0.1,0.2c0,0.4-0.1,0.9-0.1,1.3c0,0.1,0,0.1-0.1,0.1c-0.7,0.1-1.3,0.2-2,0.2c-0.1,0-0.1,0-0.2,0.2
	c-0.1,0.4-0.2,0.8-0.4,1.1c0,0.1,0,0.1,0,0.2c0.5,0.5,1,0.9,1.5,1.4c0.1,0.1,0.1,0.1,0,0.2c-0.3,0.4-0.5,0.7-0.7,1.1
	c0,0.1-0.1,0.1-0.2,0c-0.6-0.3-1.2-0.5-1.9-0.8c-0.1,0-0.1,0-0.2,0c-0.3,0.3-0.6,0.6-0.9,0.8c-0.1,0.1-0.1,0.1-0.1,0.2
	c0.2,0.7,0.4,1.3,0.6,2c0,0.1,0,0.1-0.1,0.2c-0.4,0.2-0.8,0.4-1.2,0.6c-0.1,0-0.1,0-0.2,0c-0.4-0.5-0.8-1.1-1.2-1.6
	c-0.1-0.1-0.1-0.1-0.2-0.1c-0.4,0.1-0.8,0.2-1.1,0.2c-0.1,0-0.2,0.1-0.2,0.2c-0.2,0.7-0.3,1.3-0.5,2c0,0,0,0,0,0.1
	C469.3,67.7,468.7,67.7,468.2,67.7z"/>
<path class="st3" d="M475.1,58.6c-0.2,3.1-2.8,5.4-5.9,5.2c-3.1-0.2-5.4-2.9-5.2-5.9c0.2-3.1,2.8-5.4,5.9-5.2
	C473,52.9,475.3,55.6,475.1,58.6z"/>
<path class="st0" d="M477.9,165c-0.1-0.5-0.1-1.1-0.2-1.6c0-0.2,0-0.4-0.1-0.5c0-0.1,0-0.1-0.1-0.1c-0.4-0.1-0.8-0.2-1.2-0.4
	c-0.1,0-0.1,0-0.2,0c-0.5,0.5-0.9,1-1.4,1.5c-0.1,0.1-0.1,0.1-0.2,0c-0.4-0.3-0.8-0.5-1.1-0.8c-0.1,0-0.1-0.1,0-0.2
	c0.3-0.6,0.5-1.3,0.8-1.9c0-0.1,0-0.1,0-0.2c-0.3-0.3-0.6-0.6-0.8-0.9c0-0.1-0.1-0.1-0.2-0.1c-0.7,0.2-1.3,0.4-2,0.6
	c-0.1,0-0.1,0-0.2-0.1c-0.2-0.4-0.4-0.8-0.6-1.2c0-0.1,0-0.1,0-0.2c0.5-0.4,1.1-0.8,1.6-1.2c0.1-0.1,0.1-0.1,0.1-0.2
	c-0.1-0.4-0.2-0.8-0.2-1.2c0-0.1-0.1-0.1-0.1-0.2c-0.7-0.2-1.3-0.3-2-0.5c-0.1,0-0.1,0-0.1-0.2c0-0.4,0.1-0.9,0.1-1.3
	c0-0.1,0-0.1,0.1-0.1c0.7-0.1,1.3-0.2,2-0.2c0.1,0,0.1,0,0.2-0.1c0.1-0.4,0.2-0.8,0.4-1.1c0-0.1,0-0.1,0-0.2c-0.5-0.5-1-0.9-1.5-1.4
	c-0.1-0.1-0.1-0.1,0-0.2c0.3-0.4,0.5-0.8,0.8-1.1c0-0.1,0.1-0.1,0.2,0c0.6,0.3,1.2,0.5,1.9,0.8c0.1,0,0.1,0,0.2,0
	c0.3-0.3,0.6-0.6,0.9-0.8c0.1-0.1,0.1-0.1,0.1-0.2c-0.2-0.6-0.4-1.3-0.6-1.9c0-0.1,0-0.1,0.1-0.2c0.4-0.2,0.8-0.4,1.2-0.6
	c0.1,0,0.1,0,0.2,0c0.4,0.5,0.8,1.1,1.2,1.6c0.1,0.1,0.1,0.1,0.2,0.1c0.4-0.1,0.8-0.2,1.1-0.2c0.1,0,0.1-0.1,0.2-0.2
	c0.2-0.7,0.3-1.3,0.5-2c0-0.1,0.1-0.1,0.2-0.1c0.4,0,0.9,0.1,1.3,0.1c0.1,0,0.1,0,0.1,0.1c0.1,0.7,0.2,1.3,0.2,2
	c0,0.1,0,0.1,0.2,0.2c0.4,0.1,0.8,0.2,1.1,0.4c0.1,0,0.1,0,0.2,0c0.5-0.5,0.9-1,1.4-1.5c0.1-0.1,0.1-0.1,0.2,0
	c0.4,0.3,0.7,0.5,1.1,0.7c0.1,0.1,0.1,0.1,0.1,0.2c-0.3,0.6-0.5,1.2-0.8,1.9c0,0.1,0,0.1,0,0.2c0.3,0.3,0.6,0.6,0.8,0.9
	c0.1,0.1,0.1,0.1,0.2,0.1c0.6-0.2,1.3-0.4,1.9-0.6c0.1,0,0.1,0,0.2,0.1c0.2,0.4,0.4,0.8,0.6,1.2c0,0.1,0,0.1,0,0.2
	c-0.5,0.4-1.1,0.8-1.6,1.2c-0.1,0.1-0.1,0.1-0.1,0.2c0.1,0.4,0.2,0.8,0.2,1.2c0,0.1,0.1,0.1,0.1,0.2c0.7,0.2,1.3,0.3,2,0.5
	c0.1,0,0.1,0.1,0.1,0.2c0,0.4-0.1,0.9-0.1,1.3c0,0.1,0,0.1-0.1,0.1c-0.7,0.1-1.3,0.2-2,0.2c-0.1,0-0.1,0-0.2,0.2
	c-0.1,0.4-0.2,0.8-0.4,1.1c0,0.1,0,0.1,0,0.2c0.5,0.5,1,0.9,1.5,1.4c0.1,0.1,0.1,0.1,0,0.2c-0.3,0.4-0.5,0.7-0.7,1.1
	c0,0.1-0.1,0.1-0.2,0c-0.6-0.3-1.2-0.5-1.9-0.8c-0.1,0-0.1,0-0.2,0c-0.3,0.3-0.6,0.6-0.9,0.8c-0.1,0.1-0.1,0.1-0.1,0.2
	c0.2,0.7,0.4,1.3,0.6,2c0,0.1,0,0.1-0.1,0.2c-0.4,0.2-0.8,0.4-1.2,0.6c-0.1,0-0.1,0-0.2,0c-0.4-0.5-0.8-1.1-1.2-1.6
	c-0.1-0.1-0.1-0.1-0.2-0.1c-0.4,0.1-0.8,0.2-1.1,0.2c-0.1,0-0.2,0.1-0.2,0.2c-0.2,0.7-0.3,1.3-0.5,2c0,0,0,0,0,0.1
	C479,165,478.5,165,477.9,165z"/>
<path class="st3" d="M484.9,155.9c-0.2,3.1-2.8,5.4-5.9,5.2c-3.1-0.2-5.4-2.9-5.2-5.9c0.2-3.1,2.8-5.4,5.9-5.2
	C482.7,150.2,485.1,152.8,484.9,155.9z"/>
<path class="st0" d="M476.1,194.3c-0.1-0.5-0.1-1.1-0.2-1.6c0-0.2,0-0.4-0.1-0.5c0-0.1,0-0.1-0.1-0.1c-0.4-0.1-0.8-0.2-1.2-0.4
	c-0.1,0-0.1,0-0.2,0c-0.5,0.5-0.9,1-1.4,1.5c-0.1,0.1-0.1,0.1-0.2,0c-0.4-0.3-0.8-0.5-1.1-0.8c-0.1,0-0.1-0.1,0-0.2
	c0.3-0.6,0.5-1.3,0.8-1.9c0-0.1,0-0.1,0-0.2c-0.3-0.3-0.6-0.6-0.8-0.9c0-0.1-0.1-0.1-0.2-0.1c-0.7,0.2-1.3,0.4-2,0.6
	c-0.1,0-0.1,0-0.2-0.1c-0.2-0.4-0.4-0.8-0.6-1.2c0-0.1,0-0.1,0-0.2c0.5-0.4,1.1-0.8,1.6-1.2c0.1-0.1,0.1-0.1,0.1-0.2
	c-0.1-0.4-0.2-0.8-0.2-1.2c0-0.1-0.1-0.1-0.1-0.2c-0.7-0.2-1.3-0.3-2-0.5c-0.1,0-0.1,0-0.1-0.2c0-0.4,0.1-0.9,0.1-1.3
	c0-0.1,0-0.1,0.1-0.1c0.7-0.1,1.3-0.2,2-0.2c0.1,0,0.1,0,0.2-0.1c0.1-0.4,0.2-0.8,0.4-1.1c0-0.1,0-0.1,0-0.2c-0.5-0.5-1-0.9-1.5-1.4
	c-0.1-0.1-0.1-0.1,0-0.2c0.3-0.4,0.5-0.8,0.8-1.1c0-0.1,0.1-0.1,0.2,0c0.6,0.3,1.2,0.5,1.9,0.8c0.1,0,0.1,0,0.2,0
	c0.3-0.3,0.6-0.6,0.9-0.8c0.1-0.1,0.1-0.1,0.1-0.2c-0.2-0.6-0.4-1.3-0.6-1.9c0-0.1,0-0.1,0.1-0.2c0.4-0.2,0.8-0.4,1.2-0.6
	c0.1,0,0.1,0,0.2,0c0.4,0.5,0.8,1.1,1.2,1.6c0.1,0.1,0.1,0.1,0.2,0.1c0.4-0.1,0.8-0.2,1.1-0.2c0.1,0,0.1-0.1,0.2-0.2
	c0.2-0.7,0.3-1.3,0.5-2c0-0.1,0.1-0.1,0.2-0.1c0.4,0,0.9,0.1,1.3,0.1c0.1,0,0.1,0,0.1,0.1c0.1,0.7,0.2,1.3,0.2,2
	c0,0.1,0,0.1,0.2,0.2c0.4,0.1,0.8,0.2,1.1,0.4c0.1,0,0.1,0,0.2,0c0.5-0.5,0.9-1,1.4-1.5c0.1-0.1,0.1-0.1,0.2,0
	c0.4,0.3,0.7,0.5,1.1,0.7c0.1,0.1,0.1,0.1,0.1,0.2c-0.3,0.6-0.5,1.2-0.8,1.9c0,0.1,0,0.1,0,0.2c0.3,0.3,0.6,0.6,0.8,0.9
	c0.1,0.1,0.1,0.1,0.2,0.1c0.6-0.2,1.3-0.4,1.9-0.6c0.1,0,0.1,0,0.2,0.1c0.2,0.4,0.4,0.8,0.6,1.2c0,0.1,0,0.1,0,0.2
	c-0.5,0.4-1.1,0.8-1.6,1.2c-0.1,0.1-0.1,0.1-0.1,0.2c0.1,0.4,0.2,0.8,0.2,1.2c0,0.1,0.1,0.1,0.1,0.2c0.7,0.2,1.3,0.3,2,0.5
	c0.1,0,0.1,0.1,0.1,0.2c0,0.4-0.1,0.9-0.1,1.3c0,0.1,0,0.1-0.1,0.1c-0.7,0.1-1.3,0.2-2,0.2c-0.1,0-0.1,0-0.2,0.2
	c-0.1,0.4-0.2,0.8-0.4,1.1c0,0.1,0,0.1,0,0.2c0.5,0.5,1,0.9,1.5,1.4c0.1,0.1,0.1,0.1,0,0.2c-0.3,0.4-0.5,0.7-0.7,1.1
	c0,0.1-0.1,0.1-0.2,0c-0.6-0.3-1.2-0.5-1.9-0.8c-0.1,0-0.1,0-0.2,0c-0.3,0.3-0.6,0.6-0.9,0.8c-0.1,0.1-0.1,0.1-0.1,0.2
	c0.2,0.7,0.4,1.3,0.6,2c0,0.1,0,0.1-0.1,0.2c-0.4,0.2-0.8,0.4-1.2,0.6c-0.1,0-0.1,0-0.2,0c-0.4-0.5-0.8-1.1-1.2-1.6
	c-0.1-0.1-0.1-0.1-0.2-0.1c-0.4,0.1-0.8,0.2-1.1,0.2c-0.1,0-0.2,0.1-0.2,0.2c-0.2,0.7-0.3,1.3-0.5,2c0,0,0,0,0,0.1
	C477.1,194.4,476.6,194.3,476.1,194.3z"/>
<path class="st3" d="M483,185.3c-0.2,3.1-2.8,5.4-5.9,5.2c-3.1-0.2-5.4-2.9-5.2-5.9c0.2-3.1,2.8-5.4,5.9-5.2
	C480.8,179.5,483.2,182.2,483,185.3z"/>
<path class="st0" d="M419,130c-0.1-0.5-0.1-1.1-0.2-1.6c0-0.2,0-0.4-0.1-0.5c0-0.1,0-0.1-0.1-0.1c-0.4-0.1-0.8-0.2-1.2-0.4
	c-0.1,0-0.1,0-0.2,0c-0.5,0.5-0.9,1-1.4,1.5c-0.1,0.1-0.1,0.1-0.2,0c-0.4-0.3-0.8-0.5-1.1-0.8c-0.1,0-0.1-0.1,0-0.2
	c0.3-0.6,0.5-1.3,0.8-1.9c0-0.1,0-0.1,0-0.2c-0.3-0.3-0.6-0.6-0.8-0.9c0-0.1-0.1-0.1-0.2-0.1c-0.7,0.2-1.3,0.4-2,0.6
	c-0.1,0-0.1,0-0.2-0.1c-0.2-0.4-0.4-0.8-0.6-1.2c0-0.1,0-0.1,0-0.2c0.5-0.4,1.1-0.8,1.6-1.2c0.1-0.1,0.1-0.1,0.1-0.2
	c-0.1-0.4-0.2-0.8-0.2-1.2c0-0.1-0.1-0.1-0.1-0.2c-0.7-0.2-1.3-0.3-2-0.5c-0.1,0-0.1,0-0.1-0.2c0-0.4,0.1-0.9,0.1-1.3
	c0-0.1,0-0.1,0.1-0.1c0.7-0.1,1.3-0.2,2-0.2c0.1,0,0.1,0,0.2-0.1c0.1-0.4,0.2-0.8,0.4-1.1c0-0.1,0-0.1,0-0.2c-0.5-0.5-1-0.9-1.5-1.4
	c-0.1-0.1-0.1-0.1,0-0.2c0.3-0.4,0.5-0.8,0.8-1.1c0-0.1,0.1-0.1,0.2,0c0.6,0.3,1.2,0.5,1.9,0.8c0.1,0,0.1,0,0.2,0
	c0.3-0.3,0.6-0.6,0.9-0.8c0.1-0.1,0.1-0.1,0.1-0.2c-0.2-0.6-0.4-1.3-0.6-1.9c0-0.1,0-0.1,0.1-0.2c0.4-0.2,0.8-0.4,1.2-0.6
	c0.1,0,0.1,0,0.2,0c0.4,0.5,0.8,1.1,1.2,1.6c0.1,0.1,0.1,0.1,0.2,0.1c0.4-0.1,0.8-0.2,1.1-0.2c0.1,0,0.1-0.1,0.2-0.2
	c0.2-0.7,0.3-1.3,0.5-2c0-0.1,0.1-0.1,0.2-0.1c0.4,0,0.9,0.1,1.3,0.1c0.1,0,0.1,0,0.1,0.1c0.1,0.7,0.2,1.3,0.2,2
	c0,0.1,0,0.1,0.2,0.2c0.4,0.1,0.8,0.2,1.1,0.4c0.1,0,0.1,0,0.2,0c0.5-0.5,0.9-1,1.4-1.5c0.1-0.1,0.1-0.1,0.2,0
	c0.4,0.3,0.7,0.5,1.1,0.7c0.1,0.1,0.1,0.1,0.1,0.2c-0.3,0.6-0.5,1.2-0.8,1.9c0,0.1,0,0.1,0,0.2c0.3,0.3,0.6,0.6,0.8,0.9
	c0.1,0.1,0.1,0.1,0.2,0.1c0.6-0.2,1.3-0.4,1.9-0.6c0.1,0,0.1,0,0.2,0.1c0.2,0.4,0.4,0.8,0.6,1.2c0,0.1,0,0.1,0,0.2
	c-0.5,0.4-1.1,0.8-1.6,1.2c-0.1,0.1-0.1,0.1-0.1,0.2c0.1,0.4,0.2,0.8,0.2,1.2c0,0.1,0.1,0.1,0.1,0.2c0.7,0.2,1.3,0.3,2,0.5
	c0.1,0,0.1,0.1,0.1,0.2c0,0.4-0.1,0.9-0.1,1.3c0,0.1,0,0.1-0.1,0.1c-0.7,0.1-1.3,0.2-2,0.2c-0.1,0-0.1,0-0.2,0.2
	c-0.1,0.4-0.2,0.8-0.4,1.1c0,0.1,0,0.1,0,0.2c0.5,0.5,1,0.9,1.5,1.4c0.1,0.1,0.1,0.1,0,0.2c-0.3,0.4-0.5,0.7-0.7,1.1
	c0,0.1-0.1,0.1-0.2,0c-0.6-0.3-1.2-0.5-1.9-0.8c-0.1,0-0.1,0-0.2,0c-0.3,0.3-0.6,0.6-0.9,0.8c-0.1,0.1-0.1,0.1-0.1,0.2
	c0.2,0.7,0.4,1.3,0.6,2c0,0.1,0,0.1-0.1,0.2c-0.4,0.2-0.8,0.4-1.2,0.6c-0.1,0-0.1,0-0.2,0c-0.4-0.5-0.8-1.1-1.2-1.6
	c-0.1-0.1-0.1-0.1-0.2-0.1c-0.4,0.1-0.8,0.2-1.1,0.2c-0.1,0-0.2,0.1-0.2,0.2c-0.2,0.7-0.3,1.3-0.5,2c0,0,0,0,0,0.1
	C420,130,419.5,130,419,130z"/>
<path class="st3" d="M425.9,120.9c-0.2,3.1-2.8,5.4-5.9,5.2c-3.1-0.2-5.4-2.9-5.2-5.9c0.2-3.1,2.8-5.4,5.9-5.2
	C423.8,115.2,426.1,117.9,425.9,120.9z"/>
<path class="st0" d="M510.5,140.8c-0.1-0.5-0.1-1.1-0.2-1.6c0-0.2,0-0.4-0.1-0.5c0-0.1,0-0.1-0.1-0.1c-0.4-0.1-0.8-0.2-1.2-0.4
	c-0.1,0-0.1,0-0.2,0c-0.5,0.5-0.9,1-1.4,1.5c-0.1,0.1-0.1,0.1-0.2,0c-0.4-0.3-0.8-0.5-1.1-0.8c-0.1,0-0.1-0.1,0-0.2
	c0.3-0.6,0.5-1.3,0.8-1.9c0-0.1,0-0.1,0-0.2c-0.3-0.3-0.6-0.6-0.8-0.9c0-0.1-0.1-0.1-0.2-0.1c-0.7,0.2-1.3,0.4-2,0.6
	c-0.1,0-0.1,0-0.2-0.1c-0.2-0.4-0.4-0.8-0.6-1.2c0-0.1,0-0.1,0-0.2c0.5-0.4,1.1-0.8,1.6-1.2c0.1-0.1,0.1-0.1,0.1-0.2
	c-0.1-0.4-0.2-0.8-0.2-1.2c0-0.1-0.1-0.1-0.1-0.2c-0.7-0.2-1.3-0.3-2-0.5c-0.1,0-0.1,0-0.1-0.2c0-0.4,0.1-0.9,0.1-1.3
	c0-0.1,0-0.1,0.1-0.1c0.7-0.1,1.3-0.2,2-0.2c0.1,0,0.1,0,0.2-0.1c0.1-0.4,0.2-0.8,0.4-1.1c0-0.1,0-0.1,0-0.2c-0.5-0.5-1-0.9-1.5-1.4
	c-0.1-0.1-0.1-0.1,0-0.2c0.3-0.4,0.5-0.8,0.8-1.1c0-0.1,0.1-0.1,0.2,0c0.6,0.3,1.2,0.5,1.9,0.8c0.1,0,0.1,0,0.2,0
	c0.3-0.3,0.6-0.6,0.9-0.8c0.1-0.1,0.1-0.1,0.1-0.2c-0.2-0.6-0.4-1.3-0.6-1.9c0-0.1,0-0.1,0.1-0.2c0.4-0.2,0.8-0.4,1.2-0.6
	c0.1,0,0.1,0,0.2,0c0.4,0.5,0.8,1.1,1.2,1.6c0.1,0.1,0.1,0.1,0.2,0.1c0.4-0.1,0.8-0.2,1.1-0.2c0.1,0,0.1-0.1,0.2-0.2
	c0.2-0.7,0.3-1.3,0.5-2c0-0.1,0.1-0.1,0.2-0.1c0.4,0,0.9,0.1,1.3,0.1c0.1,0,0.1,0,0.1,0.1c0.1,0.7,0.2,1.3,0.2,2
	c0,0.1,0,0.1,0.2,0.2c0.4,0.1,0.8,0.2,1.1,0.4c0.1,0,0.1,0,0.2,0c0.5-0.5,0.9-1,1.4-1.5c0.1-0.1,0.1-0.1,0.2,0
	c0.4,0.3,0.7,0.5,1.1,0.7c0.1,0.1,0.1,0.1,0.1,0.2c-0.3,0.6-0.5,1.2-0.8,1.9c0,0.1,0,0.1,0,0.2c0.3,0.3,0.6,0.6,0.8,0.9
	c0.1,0.1,0.1,0.1,0.2,0.1c0.6-0.2,1.3-0.4,1.9-0.6c0.1,0,0.1,0,0.2,0.1c0.2,0.4,0.4,0.8,0.6,1.2c0,0.1,0,0.1,0,0.2
	c-0.5,0.4-1.1,0.8-1.6,1.2c-0.1,0.1-0.1,0.1-0.1,0.2c0.1,0.4,0.2,0.8,0.2,1.2c0,0.1,0.1,0.1,0.1,0.2c0.7,0.2,1.3,0.3,2,0.5
	c0.1,0,0.1,0.1,0.1,0.2c0,0.4-0.1,0.9-0.1,1.3c0,0.1,0,0.1-0.1,0.1c-0.7,0.1-1.3,0.2-2,0.2c-0.1,0-0.1,0-0.2,0.2
	c-0.1,0.4-0.2,0.8-0.4,1.1c0,0.1,0,0.1,0,0.2c0.5,0.5,1,0.9,1.5,1.4c0.1,0.1,0.1,0.1,0,0.2c-0.3,0.4-0.5,0.7-0.7,1.1
	c0,0.1-0.1,0.1-0.2,0c-0.6-0.3-1.2-0.5-1.9-0.8c-0.1,0-0.1,0-0.2,0c-0.3,0.3-0.6,0.6-0.9,0.8c-0.1,0.1-0.1,0.1-0.1,0.2
	c0.2,0.7,0.4,1.3,0.6,2c0,0.1,0,0.1-0.1,0.2c-0.4,0.2-0.8,0.4-1.2,0.6c-0.1,0-0.1,0-0.2,0c-0.4-0.5-0.8-1.1-1.2-1.6
	c-0.1-0.1-0.1-0.1-0.2-0.1c-0.4,0.1-0.8,0.2-1.1,0.2c-0.1,0-0.2,0.1-0.2,0.2c-0.2,0.7-0.3,1.3-0.5,2c0,0,0,0,0,0.1
	C511.5,140.9,511,140.9,510.5,140.8z"/>
<path class="st3" d="M517.4,131.8c-0.2,3.1-2.8,5.4-5.9,5.2c-3.1-0.2-5.4-2.9-5.2-5.9c0.2-3.1,2.8-5.4,5.9-5.2
	C515.2,126.1,517.6,128.7,517.4,131.8z"/>
<path class="st0" d="M465.6,179.2c-0.1-0.5-0.1-1.1-0.2-1.6c0-0.2,0-0.4-0.1-0.5c0-0.1,0-0.1-0.1-0.1c-0.4-0.1-0.8-0.2-1.2-0.4
	c-0.1,0-0.1,0-0.2,0c-0.5,0.5-0.9,1-1.4,1.5c-0.1,0.1-0.1,0.1-0.2,0c-0.4-0.3-0.8-0.5-1.1-0.8c-0.1,0-0.1-0.1,0-0.2
	c0.3-0.6,0.5-1.3,0.8-1.9c0-0.1,0-0.1,0-0.2c-0.3-0.3-0.6-0.6-0.8-0.9c0-0.1-0.1-0.1-0.2-0.1c-0.7,0.2-1.3,0.4-2,0.6
	c-0.1,0-0.1,0-0.2-0.1c-0.2-0.4-0.4-0.8-0.6-1.2c0-0.1,0-0.1,0-0.2c0.5-0.4,1.1-0.8,1.6-1.2c0.1-0.1,0.1-0.1,0.1-0.2
	c-0.1-0.4-0.2-0.8-0.2-1.2c0-0.1-0.1-0.1-0.1-0.2c-0.7-0.2-1.3-0.3-2-0.5c-0.1,0-0.1,0-0.1-0.2c0-0.4,0.1-0.9,0.1-1.3
	c0-0.1,0-0.1,0.1-0.1c0.7-0.1,1.3-0.2,2-0.2c0.1,0,0.1,0,0.2-0.1c0.1-0.4,0.2-0.8,0.4-1.1c0-0.1,0-0.1,0-0.2c-0.5-0.5-1-0.9-1.5-1.4
	c-0.1-0.1-0.1-0.1,0-0.2c0.3-0.4,0.5-0.8,0.8-1.1c0-0.1,0.1-0.1,0.2,0c0.6,0.3,1.2,0.5,1.9,0.8c0.1,0,0.1,0,0.2,0
	c0.3-0.3,0.6-0.6,0.9-0.8c0.1-0.1,0.1-0.1,0.1-0.2c-0.2-0.6-0.4-1.3-0.6-1.9c0-0.1,0-0.1,0.1-0.2c0.4-0.2,0.8-0.4,1.2-0.6
	c0.1,0,0.1,0,0.2,0c0.4,0.5,0.8,1.1,1.2,1.6c0.1,0.1,0.1,0.1,0.2,0.1c0.4-0.1,0.8-0.2,1.1-0.2c0.1,0,0.1-0.1,0.2-0.2
	c0.2-0.7,0.3-1.3,0.5-2c0-0.1,0.1-0.1,0.2-0.1c0.4,0,0.9,0.1,1.3,0.1c0.1,0,0.1,0,0.1,0.1c0.1,0.7,0.2,1.3,0.2,2
	c0,0.1,0,0.1,0.2,0.2c0.4,0.1,0.8,0.2,1.1,0.4c0.1,0,0.1,0,0.2,0c0.5-0.5,0.9-1,1.4-1.5c0.1-0.1,0.1-0.1,0.2,0
	c0.4,0.3,0.7,0.5,1.1,0.7c0.1,0.1,0.1,0.1,0.1,0.2c-0.3,0.6-0.5,1.2-0.8,1.9c0,0.1,0,0.1,0,0.2c0.3,0.3,0.6,0.6,0.8,0.9
	c0.1,0.1,0.1,0.1,0.2,0.1c0.6-0.2,1.3-0.4,1.9-0.6c0.1,0,0.1,0,0.2,0.1c0.2,0.4,0.4,0.8,0.6,1.2c0,0.1,0,0.1,0,0.2
	c-0.5,0.4-1.1,0.8-1.6,1.2c-0.1,0.1-0.1,0.1-0.1,0.2c0.1,0.4,0.2,0.8,0.2,1.2c0,0.1,0.1,0.1,0.1,0.2c0.7,0.2,1.3,0.3,2,0.5
	c0.1,0,0.1,0.1,0.1,0.2c0,0.4-0.1,0.9-0.1,1.3c0,0.1,0,0.1-0.1,0.1c-0.7,0.1-1.3,0.2-2,0.2c-0.1,0-0.1,0-0.2,0.2
	c-0.1,0.4-0.2,0.8-0.4,1.1c0,0.1,0,0.1,0,0.2c0.5,0.5,1,0.9,1.5,1.4c0.1,0.1,0.1,0.1,0,0.2c-0.3,0.4-0.5,0.7-0.7,1.1
	c0,0.1-0.1,0.1-0.2,0c-0.6-0.3-1.2-0.5-1.9-0.8c-0.1,0-0.1,0-0.2,0c-0.3,0.3-0.6,0.6-0.9,0.8c-0.1,0.1-0.1,0.1-0.1,0.2
	c0.2,0.7,0.4,1.3,0.6,2c0,0.1,0,0.1-0.1,0.2c-0.4,0.2-0.8,0.4-1.2,0.6c-0.1,0-0.1,0-0.2,0c-0.4-0.5-0.8-1.1-1.2-1.6
	c-0.1-0.1-0.1-0.1-0.2-0.1c-0.4,0.1-0.8,0.2-1.1,0.2c-0.1,0-0.2,0.1-0.2,0.2c-0.2,0.7-0.3,1.3-0.5,2c0,0,0,0,0,0.1
	C466.6,179.3,466.1,179.3,465.6,179.2z"/>
<path class="st3" d="M472.5,170.2c-0.2,3.1-2.8,5.4-5.9,5.2c-3.1-0.2-5.4-2.9-5.2-5.9c0.2-3.1,2.8-5.4,5.9-5.2
	C470.3,164.5,472.7,167.1,472.5,170.2z"/>
<text transform="matrix(1 0 0 1 374.6616 168.7848)" class="st5 st6">KOGNITION</text>
<text transform="matrix(1 0 0 1 337.6401 150.7643)" class="st5 st6">MENSCH-TECHNIK-INTERAKTION</text>
<line class="st7" x1="338" y1="165.9" x2="369.7" y2="165.9"/>
<line class="st7" x1="419.9" y1="165.9" x2="451.6" y2="165.9"/>
<path class="st8" d="M157.3,261.4c0,0-18.3,29.9-40.8,29.9s-40.8-29.9-40.8-29.9s18.3-29.9,40.8-29.9S157.3,261.4,157.3,261.4z"/>
<ellipse class="st9" cx="116.3" cy="261.3" rx="29.2" ry="29.8"/>
<ellipse class="st3" cx="116.1" cy="261.2" rx="23.7" ry="24.1"/>
<path class="st0" d="M116.6,250.3c-0.2,0-0.5,0-0.7,0c1.2,1.2,1.9,2.8,1.9,4.6c0,3.6-3,6.6-6.6,6.6c-2.2,0-4.2-1.1-5.4-2.8
	c-0.2,0.9-0.4,1.8-0.4,2.8c0,6.2,5,11.2,11.2,11.2c6.2,0,11.2-5,11.2-11.2C127.9,255.3,122.9,250.3,116.6,250.3z"/>
<text transform="matrix(1 0 0 1 26.7968 321.9829)"><tspan x="0" y="0" class="st5 st10">Mensch - Technik - Interaktion</tspan><tspan x="59.8" y="24" class="st5 st10">Kognition</tspan></text>
<line class="st7" x1="28.2" y1="341.5" x2="78.5" y2="341.5"/>
<line class="st7" x1="151.8" y1="341.5" x2="202.2" y2="341.5"/>
<ellipse transform="matrix(0.3686 -0.9296 0.9296 0.3686 2.3285 620.5392)" class="st11" cx="457.9" cy="308.6" rx="24" ry="55.5"/>
<ellipse transform="matrix(0.8488 -0.5287 0.5287 0.8488 -94.2734 288.9413)" class="st12" cx="458" cy="309.3" rx="54.7" ry="23.7"/>
<ellipse class="st12" cx="458.3" cy="310.2" rx="24.1" ry="54.7"/>
<circle class="st0" cx="491.5" cy="269.2" r="3.3"/>
<circle class="st0" cx="420.9" cy="349.4" r="3.3"/>
<circle class="st0" cx="500.9" cy="278.2" r="3.3"/>
<circle class="st0" cx="484.1" cy="269.8" r="2.7"/>
<circle class="st0" cx="413.6" cy="346.1" r="2.7"/>
<circle class="st0" cx="432.1" cy="272.5" r="2.7"/>
<path class="st0" d="M460.3,292.4c2.5,0,5,0,7.6,0c0.3,0,0.5,0.1,0.8,0.2c1.5,0.8,3.1,1.6,4.6,2.4c0.3,0.2,0.5,0.4,0.5,0.7
	c0,4.3,0,8.6,0,12.9c0,0.6-0.2,0.8-0.8,0.4c-3.5-1.8-6.9-3.6-10.4-5.4c-0.4-0.2-0.6-0.4-0.6-0.9c0-1.2,0-2.4,0-3.6
	c0-1.1-0.7-1.8-1.7-1.8c-1,0-1.7,0.8-1.7,1.8c0,1.2,0,2.4,0,3.6c0,0.4-0.1,0.6-0.5,0.8c-3.5,1.8-7,3.7-10.5,5.5
	c-0.6,0.3-0.7,0.2-0.7-0.5c0-4.2,0-8.3,0-12.5c0-0.8,0.2-1.2,0.9-1.5c1.4-0.6,2.7-1.3,4-2c0.3-0.2,0.6-0.2,0.9-0.2
	C455.3,292.4,457.8,292.4,460.3,292.4z"/>
<path class="st0" d="M473.8,315.6c0,1.7,0,3.4,0,5.1c0,0.3-0.1,0.5-0.4,0.7c-4.2,2.2-8.4,4.4-12.6,6.6c-0.3,0.2-0.6,0.2-0.9,0
	c-4.2-2.2-8.3-4.4-12.5-6.5c-0.3-0.2-0.5-0.4-0.5-0.8c0-3.3,0-6.7,0-10c0-0.4,0.1-0.6,0.4-0.8c2.7-1.4,5.5-2.9,8.2-4.3
	c0.7-0.4,0.9-0.3,0.9,0.6c0,3.1,0,6.2,0,9.3c0,0.4,0.1,0.6,0.4,0.7c1.1,0.5,2.1,1.1,3.2,1.7c0.2,0.1,0.4,0.1,0.6,0
	c1.1-0.6,2.2-1.2,3.3-1.8c0.3-0.2,0.3-0.4,0.3-0.6c0-3.1,0-6.3,0-9.4c0-0.7,0.2-0.8,0.8-0.5c2.7,1.4,5.4,2.8,8.1,4.2
	c0.4,0.2,0.6,0.5,0.6,0.9C473.8,312.3,473.8,313.9,473.8,315.6z"/>
<path class="st3" d="M447.6,302c0-1.9,0-3.8,0-5.8c0-0.4,0.1-0.5,0.5-0.5c2.4,0,4.8,0,7.1,0c0.4,0,0.5,0.1,0.5,0.5c0,2.5,0,5,0,7.5
	c0,0.3-0.1,0.5-0.4,0.6c-2.4,1.3-4.8,2.5-7.2,3.8c-0.4,0.2-0.5,0.2-0.5-0.3C447.6,305.8,447.6,303.9,447.6,302z"/>
<path class="st3" d="M473,308.3c-0.9-0.5-1.7-0.9-2.6-1.4c-1.7-0.9-3.3-1.7-5-2.6c-0.3-0.2-0.5-0.4-0.5-0.8c0-2.4,0.1-4.8,0.1-7.2
	c0-0.4,0.1-0.5,0.5-0.5c2.4,0,4.7,0,7.1,0c0.3,0,0.4,0,0.4,0.4c0,4,0,7.9,0,11.9C473,308.1,473,308.2,473,308.3z"/>
<path class="st3" d="M460.9,294.1c1.1,0.5,2.1,1,3.2,1.5c0.2,0.1,0.3,0.2,0.3,0.4c0,2.4,0,4.7-0.1,7.1c0,0.6,0,0.5-0.5,0.3
	c-0.8-0.3-1.1-0.7-1-1.6c0.1-0.9,0-1.8,0-2.8c0-1.4-1.1-2.5-2.5-2.4c-1.4,0-2.4,1.1-2.4,2.4c0,1.1,0,2.2,0,3.3
	c0,0.4-0.1,0.6-0.4,0.7c-0.3,0.1-0.6,0.3-1,0.5c0-0.3,0-0.5,0-0.8c0-2.1,0-4.2,0-6.3c0-0.6,0.2-1,0.8-1.3c0.7-0.3,1.4-0.7,2.1-1
	c0.1,0,0.1,0,0.2,0.1c0.1,0.2,0,0.4,0,0.6c-0.1,0.5,0.1,0.9,0.4,1c0.4,0.1,0.7,0.1,1-0.2c0.3-0.3,0.3-0.8,0-1.2
	c-0.1-0.1-0.2-0.3-0.2-0.4C460.8,294.2,460.8,294.1,460.9,294.1z"/>
<path class="st3" d="M460.9,293.2c2.4,0,4.7,0,7.1,0c0.1,0,0.2,0,0.4,0.1c1.1,0.6,2.3,1.2,3.4,1.7c0,0.1-0.1,0.1-0.2,0.1
	c-2.2,0-4.3,0-6.5,0.1c-0.1,0-0.3,0-0.4-0.1c-1.3-0.6-2.5-1.2-3.8-1.8C460.9,293.2,460.9,293.2,460.9,293.2z"/>
<path class="st3" d="M449,294.9c1.2-0.6,2.3-1.2,3.4-1.7c0.1,0,0.1,0,0.2,0c2.4,0,4.8,0,7.2,0.1c-0.7,0.4-1.5,0.7-2.2,1.1
	c-0.9,0.5-1.7,0.7-2.7,0.6c-1.8-0.1-3.5,0-5.3,0C449.4,295,449.2,295.1,449,294.9z"/>
<path class="st3" d="M460.9,294.1c0,0,0,0.1,0,0.1c-0.4,0.2-0.9,0.2-1.4,0.3c0,0-0.1-0.1-0.1-0.1
	C459.8,294.1,460.3,293.5,460.9,294.1z"/>
<path class="st3" d="M455.7,306.4c0,0.2,0,0.4,0,0.7c0,2.9,0,5.8,0,8.7c0,0.4,0.1,0.7,0.5,0.9c1.2,0.6,2.4,1.3,3.6,1.9
	c0.4,0.2,0.7,0.2,1,0c1.2-0.6,2.4-1.3,3.6-1.9c0.4-0.2,0.6-0.5,0.6-0.9c0-2.9,0-5.9,0-8.8c0-0.7,0-0.7,0.6-0.4
	c2.4,1.2,4.7,2.5,7.1,3.7c0.3,0.1,0.4,0.3,0.4,0.6c0,3.1,0,6.3,0,9.4c0,0.3-0.1,0.4-0.4,0.6c-4,2.1-8,4.2-12,6.3
	c-0.3,0.1-0.5,0.1-0.7,0c-4-2.1-8-4.2-12-6.3c-0.3-0.1-0.4-0.3-0.4-0.6c0-3.1,0-6.2,0-9.3c0-0.3,0.1-0.5,0.3-0.6
	c2.5-1.3,4.9-2.6,7.4-3.9C455.4,306.4,455.5,306.4,455.7,306.4z"/>
<path class="st0" d="M459.5,294.5c0.4-0.3,0.9-0.4,1.4-0.3c0.6,0.5,0.7,1,0.5,1.5c-0.2,0.5-0.8,0.7-1.3,0.5
	C459.3,296.1,459,295.3,459.5,294.5z"/>
<path class="st3" d="M460.4,294.8c0.2,0,0.4,0.2,0.4,0.4c0,0.2-0.2,0.4-0.4,0.4c-0.2,0-0.4-0.1-0.4-0.4
	C460,295,460.1,294.9,460.4,294.8z"/>
<g>
	<g>
		<path d="M877,43.8l-0.6-0.7l0.7-3l1.3,0l0.6,2.9l-0.6,0.7l-0.1,9l1.8,0l0,1.5c-1,0.4-1.2,1-0.6,1.8l0.6,0.5L880,65l-0.7,0.8
			l-3.8,0l-0.8-0.5l0.1-8.6c1.1-0.7,1-1.4,0-2.1l0-1.5l2.3-0.1L877,43.8z"/>
	</g>
	<g>
		<text transform="matrix(1 0 0 1 635.5775 66.0512)"><tspan x="0" y="0" class="st5" style="font-size:34.062px;">Men  ch </tspan><tspan x="127.2" y="0" class="st5" style="font-size:34.062px;">-</tspan><tspan x="138.6" y="0" class="st5" style="font-size:34.062px;"> Techn  k </tspan><tspan x="281.4" y="0" class="st5" style="font-size:34.062px;">-</tspan><tspan x="292.9" y="0" class="st5" style="font-size:34.062px;"> Interakti  n</tspan><tspan x="0" y="62.9" class="st5" style="font-size:34.062px;">Kognition</tspan></text>
		<path d="M708.2,64.2c-0.1,0.5,1.2,0.8,1,1.3c-1.2,1-2.6-0.1-3-1.5c-0.2-0.7,0.8-0.9,1.2-0.8c4,0.7,4.7-0.3,4.7-1.9
			c-0.2-1.9-4.3-2.6-4.7-3c-1-0.7-1.9-1.5-2.3-2.5c-0.1-0.2-0.5-1.2-0.2-2c-1.2-0.6-0.1,3.1-0.4,3.8c-0.1,0.2-0.7,0.5-0.9-0.1
			s-0.7-4.5,0.5-5.5c0.5-0.4,1.5-0.1,1.8-0.1c0.1,0-0.1-0.4-0.1-0.4c-0.4,0-1.3-0.9-1.3-1.8c0-2.7,5.9-1.7,4.2,1.3
			c-0.1,0.5,0,0.5,0.4,0.5c0.8-1.5,5.8-1.2,6-0.6c0.3,0.6-0.4,0.7-0.4,0.7c-3.3-0.3-5.7,1-5.7,1.4c-0.6,1,0.3,1.9,0.7,2.2
			c1.1,1,4,1.5,4.7,2.4c1,0.5,1.8,2.4,1.7,3.4c0,0.9-0.4,2.4-0.7,2.7c0.3,0.3,0.4,0.6,0.5,0.9c0.1,1.1-1.1,1-2.1,0.7
			c0.1-0.5,0.4-0.9-0.4-1.8c1-0.6,1.4-1.9,1.5-2.2c0.6-1.8-0.4-2.3-2.5-2.9C714.9,59.8,713.5,65.7,708.2,64.2z"/>
	</g>
</g>
<g>
	<path d="M1070.7,66.1c-0.1-0.5-0.2-0.9-0.3-1.4c0-0.2-0.1-0.3-0.1-0.5c0-0.1,0-0.1-0.1-0.1c-0.4-0.1-0.7-0.2-1.1-0.3
		c-0.1,0-0.1,0-0.1,0.1c-0.4,0.5-0.8,0.9-1.2,1.4c-0.1,0.1-0.1,0.1-0.2,0c-0.3-0.2-0.7-0.4-1-0.6c-0.1,0-0.1-0.1,0-0.1
		c0.2-0.6,0.4-1.1,0.6-1.7c0-0.1,0-0.1,0-0.2c-0.3-0.2-0.5-0.5-0.8-0.8c0-0.1-0.1-0.1-0.2,0c-0.6,0.2-1.1,0.4-1.7,0.6
		c-0.1,0-0.1,0-0.1,0c-0.2-0.4-0.4-0.7-0.6-1c0-0.1,0-0.1,0-0.1c0.5-0.4,0.9-0.8,1.4-1.2c0.1-0.1,0.1-0.1,0.1-0.2
		c-0.1-0.3-0.2-0.7-0.3-1c0-0.1-0.1-0.1-0.1-0.1c-0.6-0.1-1.2-0.2-1.7-0.3c-0.1,0-0.1,0-0.1-0.1c0-0.4,0-0.8,0-1.2
		c0-0.1,0-0.1,0.1-0.1c0.6-0.1,1.2-0.2,1.7-0.3c0.1,0,0.1,0,0.1-0.1c0.1-0.3,0.1-0.7,0.3-1c0-0.1,0-0.1,0-0.2
		c-0.5-0.4-0.9-0.8-1.4-1.1c-0.1-0.1-0.1-0.1,0-0.2c0.2-0.3,0.4-0.7,0.6-1c0-0.1,0.1-0.1,0.1,0c0.6,0.2,1.1,0.4,1.7,0.6
		c0.1,0,0.1,0,0.2,0c0.2-0.3,0.5-0.5,0.7-0.7c0.1,0,0.1-0.1,0-0.2c-0.2-0.6-0.4-1.1-0.6-1.7c0-0.1,0-0.1,0.1-0.2
		c0.3-0.2,0.7-0.4,1-0.6c0.1,0,0.1,0,0.1,0c0.4,0.5,0.8,0.9,1.1,1.4c0.1,0.1,0.1,0.1,0.2,0.1c0.3-0.1,0.6-0.2,1-0.3
		c0.1,0,0.1-0.1,0.1-0.1c0.1-0.6,0.2-1.2,0.3-1.7c0-0.1,0-0.1,0.1-0.1c0.4,0,0.8,0,1.2,0c0.1,0,0.1,0,0.1,0.1
		c0.1,0.6,0.2,1.2,0.3,1.8c0,0.1,0.1,0.1,0.1,0.1c0.3,0.1,0.7,0.1,1,0.3c0.1,0,0.1,0,0.2,0c0.4-0.5,0.8-0.9,1.1-1.4
		c0.1-0.1,0.1-0.1,0.2,0c0.3,0.2,0.7,0.4,1,0.6c0.1,0,0.1,0.1,0.1,0.2c-0.2,0.6-0.4,1.1-0.6,1.7c0,0.1,0,0.1,0,0.2
		c0.3,0.2,0.5,0.5,0.7,0.7c0.1,0.1,0.1,0.1,0.2,0c0.6-0.2,1.1-0.4,1.7-0.6c0.1,0,0.1,0,0.2,0.1c0.2,0.3,0.4,0.7,0.6,1
		c0,0.1,0,0.1,0,0.1c-0.5,0.4-0.9,0.8-1.4,1.2c-0.1,0.1-0.1,0.1,0,0.2c0.1,0.3,0.2,0.7,0.3,1c0,0.1,0.1,0.1,0.1,0.1
		c0.6,0.1,1.2,0.2,1.7,0.3c0.1,0,0.1,0,0.1,0.1c0,0.4,0,0.8,0,1.2c0,0.1,0,0.1-0.1,0.1c-0.6,0.1-1.2,0.2-1.8,0.3
		c-0.1,0-0.1,0-0.1,0.1c-0.1,0.3-0.1,0.7-0.3,1c0,0.1,0,0.1,0,0.2c0.5,0.4,0.9,0.8,1.4,1.1c0.1,0.1,0.1,0.1,0,0.2
		c-0.2,0.3-0.4,0.7-0.6,1c0,0.1-0.1,0.1-0.1,0.1c-0.6-0.2-1.1-0.4-1.7-0.6c-0.1,0-0.1,0-0.2,0c-0.2,0.3-0.5,0.5-0.7,0.7
		c-0.1,0.1-0.1,0.1,0,0.2c0.2,0.6,0.4,1.1,0.6,1.7c0,0.1,0,0.1,0,0.1c-0.4,0.2-0.7,0.4-1,0.6c-0.1,0-0.1,0-0.1,0
		c-0.4-0.5-0.8-0.9-1.2-1.4c-0.1-0.1-0.1-0.1-0.2-0.1c-0.3,0.1-0.6,0.2-1,0.3c-0.1,0-0.1,0.1-0.2,0.2c-0.1,0.6-0.2,1.2-0.3,1.8
		c0,0,0,0,0,0.1C1071.6,66.1,1071.2,66.1,1070.7,66.1z"/>
	
		<ellipse transform="matrix(1.922686e-03 -1 1 1.922686e-03 1011.5463 1129.0975)" class="st3" cx="1071.4" cy="57.8" rx="4.1" ry="4.1"/>
</g>
<g>
	<text transform="matrix(1 0 0 1 201.5646 670.624)"><tspan x="0" y="0" class="st0 st13 st14">K</tspan><tspan x="-0.7" y="16.8" class="st0 st13 st14">O</tspan><tspan x="-0.5" y="33.6" class="st0 st13 st14">G</tspan><tspan x="2.3" y="67.2" class="st0 st13 st14">I</tspan><tspan x="2.3" y="100.8" class="st0 st13 st14">I</tspan><tspan x="-0.5" y="134.4" class="st0 st13 st14">N</tspan></text>
	<text transform="matrix(1 0 0 1 181.6945 721.027)"><tspan x="0" y="0" class="st13 st14">ME</tspan><tspan x="19.3" y="0" class="st0 st13 st14">N</tspan><tspan x="29" y="0" class="st13 st14">SCH</tspan></text>
	<text transform="matrix(1 0 0 1 134.0636 788.0963)"><tspan x="0" y="0" class="st13 st14">INTERAKTI</tspan><tspan x="66.5" y="0" class="st0 st13 st14">O</tspan><tspan x="76.6" y="0" class="st13 st14">N</tspan></text>
	<text transform="matrix(1 0 0 1 202.0057 754.6138)"><tspan x="0" y="0" class="st0 st13 st14">T</tspan><tspan x="7.7" y="0" class="st13 st14">ECHNIK</tspan></text>
</g>
<text transform="matrix(1 0 0 1 65.3586 553.6953)"><tspan x="0" y="0" class="st15 st10">Mensch</tspan><tspan x="-2.7" y="24" class="st15 st10">Technik</tspan><tspan x="-17.9" y="48" class="st15 st10">Interaktion</tspan></text>
<g>
	<g>
		<path d="M84.6,514.5c-6.8-8.2-14.3-18.9-13.4-30.2c0.6-7.1,5.2-12.7,11.6-15.6c11.7-5.3,30.4-2.3,33.9,12
			c3,12.1-5.6,24.8-12.7,33.7c-0.5,0.6,0.4,1.5,0.9,0.9c7-8.8,14.6-20.2,13.5-32c-0.7-7.4-5.6-13.2-12.3-16.1
			c-12.7-5.4-32.3-1-35.7,14c-2.9,12.5,5.8,25,13.3,34C84.2,516,85.1,515.1,84.6,514.5L84.6,514.5z"/>
	</g>
</g>
<g>
	<g>
		<path d="M84.2,515.7c6.7,0,13.4,0,20.1,0c0.8,0,0.8-1.3,0-1.3c-6.7,0-13.4,0-20.1,0C83.4,514.4,83.4,515.7,84.2,515.7L84.2,515.7z
			"/>
	</g>
</g>
<g>
	<g>
		<path d="M86.8,518.8c5,0,10.1,0,15.1,0c0.8,0,0.8-1.3,0-1.3c-5,0-10.1,0-15.1,0C86,517.6,86,518.8,86.8,518.8L86.8,518.8z"/>
	</g>
</g>
<g>
	<g>
		<path d="M92.4,521.9c1.2,0,2.3,0,3.5,0c0.8,0,0.8-1.3,0-1.3c-1.2,0-2.3,0-3.5,0C91.6,520.7,91.6,521.9,92.4,521.9L92.4,521.9z"/>
	</g>
</g>
<g>
	<g>
		<path d="M93.6,522.1c0.1,1.6-2.2,2.4-1.4,4c0.6,1,1.4,0.8,0.2,1.5c-0.8,0.4-1.6,0.8-2.3,1.4c-0.8,0.6-0.9,1.1-0.2,1.8
			c0.5,0.6,1.5,0.9,2.2,1.2c0.9,0.4,1.2,0.4,1.3,1.5c0,0.8,1.3,0.8,1.3,0c-0.1-1.4-0.3-1.8-1.5-2.4c-0.3-0.1-2.5-1.3-2.4-1
			c0-0.3,2.2-1.3,2.4-1.4c0.9-0.5,1.8-0.9,1.3-2c-0.6-1.3-1.3-0.7-0.5-2c0.5-0.8,1-1.5,1-2.5C94.9,521.3,93.6,521.3,93.6,522.1
			L93.6,522.1z"/>
	</g>
</g>
<g>
	<g>
		<path d="M93.7,500.4c0,4,0,8.1,0,12.1c0,0.8,1.3,0.8,1.3,0c0-4,0-8.1,0-12.1C94.9,499.6,93.7,499.6,93.7,500.4L93.7,500.4z"/>
	</g>
</g>
<g>
	<g>
		<path d="M101.7,490.7c-2.6,3.1-5.2,6.1-7.8,9.2c-0.5,0.6,0.4,1.5,0.9,0.9c2.6-3.1,5.2-6.1,7.8-9.2
			C103.1,491,102.2,490.1,101.7,490.7L101.7,490.7z"/>
	</g>
</g>
<g>
	<g>
		<path d="M86.5,491.5c2.4,3.1,4.9,6.2,7.3,9.4c0.5,0.6,1.4-0.3,0.9-0.9c-2.4-3.1-4.9-6.2-7.3-9.4C86.9,490,86.1,490.8,86.5,491.5
			L86.5,491.5z"/>
	</g>
</g>
<g>
	<g>
		<path d="M93.4,533.5c-0.6,2.6-6.7,3.3-8.8,3.8c-3.6,0.8-7.3,1.4-10.9,2.2c-1.5,0.3-9.1,1.8-5.6,4.7c0.6,0.5,1.5-0.4,0.9-0.9
			c-1.5-1.2,4.6-2.5,5.4-2.6c3.2-0.7,6.4-1.2,9.7-1.9c2.8-0.6,9.8-1.3,10.6-4.9C94.8,533,93.6,532.7,93.4,533.5L93.4,533.5z"/>
	</g>
</g>
<g>
	<g>
		<path d="M122.3,549c5.2,19.3-62.7,4.3-58.5,20.1c0.2,0.8,1.4,0.4,1.2-0.3c-3.4-12.8,64.1,1,58.5-20.1
			C123.3,547.9,122.1,548.3,122.3,549L122.3,549z"/>
	</g>
</g>
<g>
	<g>
		<path d="M125.4,572.7c4,9.8-24.2,10.2-28.9,10.5c-13.3,0.9-28.1-0.2-41.1,3.6c-2.6,0.8-6.6,2.3-5.4,5.8c0.3,0.8,1.5,0.4,1.2-0.3
			c-2.2-6.6,27.6-6.9,31-7c7.8-0.4,15.6-0.7,23.4-1.5c5.5-0.6,11.5-1.1,16.6-3.4c3.4-1.5,6.1-4.1,4.5-7.9
			C126.3,571.6,125.1,571.9,125.4,572.7L125.4,572.7z"/>
	</g>
</g>
<g>
	<g>
		<path d="M140.6,596.9c7.5,13.1-41,12.7-47.1,12.7c-0.8,0-0.8,1.3,0,1.3c6,0,57.3,1.3,48.2-14.6
			C141.3,595.6,140.2,596.2,140.6,596.9L140.6,596.9z"/>
	</g>
</g>
<text transform="matrix(1 0 0 1 79.4843 484.4463)" class="st0 st13 st16">KOGNITION</text>
<g>
	<g>
		<path d="M93.1,609.7c-1.8-0.2-3.4,0.7-3.4,2.7c0,1.5,0.8,3.3,2.2,3.9c0.7,0.3,1.4-0.7,0.6-1.1c-0.9-0.4-1.5-1.5-1.6-2.5
			c-0.1-1.4,0.9-1.9,2.2-1.7C93.9,611,93.9,609.7,93.1,609.7L93.1,609.7z"/>
	</g>
</g>
<g>
	<g>
		<path d="M92.1,616.2c0.8,0.7,1.6,2.2,0.5,3.1c-0.6,0.5,0.3,1.4,0.9,0.9c1.6-1.3,0.8-3.8-0.5-4.9C92.3,614.8,91.4,615.7,92.1,616.2
			L92.1,616.2z"/>
	</g>
</g>
<g>
	<g>
		<path d="M92.6,619.3c-0.8,0.7-1.6,1.8-1.3,2.9c0.2,0.9,0.9,1.5,1.8,1.6c0.8,0.1,1.1-1.1,0.3-1.2c-1.6-0.2-0.6-1.8,0.1-2.4
			C94.1,619.6,93.2,618.8,92.6,619.3L92.6,619.3z"/>
	</g>
</g>
<g>
	<g>
		<path d="M93.1,623.9c0.3,0.2,1,0.7,0.9,1.1c-0.1,0.3-0.5,0.4-0.7,0.4c-0.8,0.1-0.8,1.3,0,1.3c0.8-0.1,1.7-0.5,1.9-1.4
			c0.3-1.1-0.7-2-1.4-2.5C93.1,622.3,92.4,623.4,93.1,623.9L93.1,623.9z"/>
	</g>
</g>
<g>
	<g>
		<path d="M495.8,668.3c0,16,0,32,0,48c0,1.6,2.5,1.6,2.5,0c0-16,0-32,0-48C498.3,666.7,495.8,666.7,495.8,668.3L495.8,668.3z"/>
	</g>
</g>
<g>
	<g>
		<path d="M385.4,694.8c1.4-3.5,5.4-7.4,9.5-6.3c1.6,0.4,2.2-2,0.7-2.4c-5.6-1.5-10.6,3.2-12.6,8
			C382.4,695.7,384.8,696.3,385.4,694.8L385.4,694.8z"/>
	</g>
</g>
<g>
	<g>
		<path d="M382.6,703.9c2,4.8,7,9.5,12.6,8c1.6-0.4,0.9-2.8-0.7-2.4c-4.1,1.1-8.1-2.7-9.5-6.3C384.4,701.8,382,702.4,382.6,703.9
			L382.6,703.9z"/>
	</g>
</g>
<g>
	<g>
		<path d="M405.7,706c-0.3,6.1-9.6,6.2-9.6,0C396.1,699.8,405.3,699.9,405.7,706c0.1,1.6,2.6,1.6,2.5,0c-0.2-4-3.2-7.3-7.3-7.3
			c-4,0-7.3,3.3-7.3,7.3c0,3.8,3.1,7.1,7,7.3c4.3,0.2,7.4-3.2,7.6-7.3C408.3,704.4,405.8,704.4,405.7,706z"/>
	</g>
</g>
<g>
	<g>
		<path d="M418.6,706.3c-0.3,6.1-9.6,6.2-9.6,0C409,700.1,418.3,700.2,418.6,706.3c0.1,1.6,2.6,1.6,2.5,0c-0.2-4-3.2-7.3-7.3-7.3
			c-4,0-7.3,3.3-7.3,7.3c0,3.8,3.1,7.1,7,7.3c4.3,0.2,7.4-3.2,7.6-7.3C421.2,704.7,418.7,704.7,418.6,706.3z"/>
	</g>
</g>
<g>
	<g>
		<path d="M418.7,706.2c0,5.9,0.3,12.3-1.1,18.1c-0.3,1.2-0.7,3.4-2.2,3.2c-2.1-0.2-4.4-4.3-5.4-5.7c-0.9-1.3-3.1-0.1-2.2,1.3
			c1.9,2.7,7.1,10.4,10.8,5.4c1.5-2.1,1.8-5.1,2.1-7.6c0.5-4.9,0.5-9.8,0.5-14.7C421.2,704.6,418.7,704.6,418.7,706.2L418.7,706.2z"
			/>
	</g>
</g>
<g>
	<g>
		<g>
			<path d="M421,699.8c0,4.1,0,8.2,0,12.4c0,1.6,2.5,1.6,2.5,0c0-4.1,0-8.2,0-12.4C423.5,698.2,421,698.2,421,699.8L421,699.8z"/>
		</g>
	</g>
	<g>
		<g>
			<path d="M423.5,704.8c0.1-2.3,2.8-3.6,4.8-3.9c2.7-0.5,4.8,0.6,5.3,3.4c0.2,1.6,2.6,0.9,2.4-0.7c-1.2-8.1-14.6-6.4-15,1.2
				C420.9,706.4,423.4,706.4,423.5,704.8L423.5,704.8z"/>
		</g>
	</g>
	<g>
		<g>
			<path d="M433.7,704.7c0,2.6,0,5.1,0,7.7c0,1.6,2.5,1.6,2.5,0c0-2.6,0-5.1,0-7.7C436.2,703.1,433.7,703.1,433.7,704.7L433.7,704.7
				z"/>
		</g>
	</g>
</g>
<g>
	<g>
		<g>
			<path d="M436.3,699.9c0,4.1,0,8.2,0,12.4c0,1.6,2.5,1.6,2.5,0c0-4.1,0-8.2,0-12.4C438.8,698.3,436.3,698.3,436.3,699.9
				L436.3,699.9z"/>
		</g>
	</g>
	<circle cx="437.5" cy="687.1" r="1.6"/>
</g>
<g>
	<g>
		<g>
			<g>
				<path d="M443.1,687.1c0,6.8,0,13.7,0,20.5c0,1.6,2.5,1.6,2.5,0c0-6.8,0-13.7,0-20.5C445.6,685.5,443.1,685.4,443.1,687.1
					L443.1,687.1z"/>
			</g>
		</g>
		<g>
			<g>
				<path d="M455.6,706.8c-0.1,2.3-2.8,3.6-4.8,3.9c-2.7,0.5-4.8-0.6-5.3-3.4c-0.2-1.6-2.6-0.9-2.4,0.7c1.2,8.1,14.6,6.4,15-1.2
					C458.2,705.2,455.7,705.2,455.6,706.8L455.6,706.8z"/>
			</g>
		</g>
	</g>
	<g>
		<g>
			<path d="M438.4,701.2c4.5,0,9,0,13.5,0c1.6,0,1.6-2.5,0-2.5c-4.5,0-9,0-13.5,0C436.8,698.7,436.8,701.2,438.4,701.2L438.4,701.2z
				"/>
		</g>
	</g>
</g>
<g>
	<g>
		<g>
			<path d="M455.8,699.8c0,4.1,0,8.2,0,12.4c0,1.6,2.5,1.6,2.5,0c0-4.1,0-8.2,0-12.4C458.3,698.2,455.8,698.2,455.8,699.8
				L455.8,699.8z"/>
		</g>
	</g>
	<circle cx="457.1" cy="687" r="1.6"/>
</g>
<g>
	<g>
		<path d="M470,706.1c-0.3,6.1-9.6,6.2-9.6,0C460.4,699.9,469.6,699.9,470,706.1c0.1,1.6,2.6,1.6,2.5,0c-0.2-4-3.2-7.3-7.3-7.3
			c-4,0-7.3,3.3-7.3,7.3c0,3.8,3.1,7.1,7,7.3c4.3,0.2,7.4-3.2,7.6-7.3C472.6,704.5,470.1,704.5,470,706.1z"/>
	</g>
</g>
<g>
	<g>
		<path d="M409.7,721.4c-1.7-2.8,1.5-3.9,3.7-4.7c2.5-1,5.3-1.8,7.5-3.5c1.3-0.9,0-3.1-1.3-2.2c-3.8,2.8-16.5,4.5-12,11.6
			C408.4,724,410.5,722.8,409.7,721.4L409.7,721.4z"/>
	</g>
</g>
<g>
	<g>
		<g>
			<path d="M472.3,700.3c0,4.1,0,8.2,0,12.4c0,1.6,2.5,1.6,2.5,0c0-4.1,0-8.2,0-12.4C474.8,698.7,472.3,698.7,472.3,700.3
				L472.3,700.3z"/>
		</g>
	</g>
	<g>
		<g>
			<path d="M474.8,705.3c0.1-2.3,2.8-3.6,4.8-3.9c2.7-0.5,4.8,0.6,5.3,3.4c0.2,1.6,2.6,0.9,2.4-0.7c-1.2-8.1-14.6-6.4-15,1.2
				C472.2,706.9,474.7,706.9,474.8,705.3L474.8,705.3z"/>
		</g>
	</g>
	<g>
		<g>
			<path d="M484.9,705.2c0,2.6,0,5.1,0,7.7c0,1.6,2.5,1.6,2.5,0c0-2.6,0-5.1,0-7.7C487.4,703.6,484.9,703.6,484.9,705.2L484.9,705.2
				z"/>
		</g>
	</g>
</g>
<g>
	<g>
		<path d="M486.2,714.1c3,0,4.6,2.1,6.9,3.6c1.7,1.2,3.5,1,4.9-0.6c1-1.2-0.7-3-1.8-1.8c-1.3,1.5-2.9-0.6-4-1.5
			c-1.8-1.4-3.7-2.2-6-2.2C484.6,711.6,484.6,714.1,486.2,714.1L486.2,714.1z"/>
	</g>
</g>
<g>
	<g>
		<path d="M382.6,685.8c0,8.9,0,17.8,0,26.7c0,1.6,2.5,1.6,2.5,0c0-8.9,0-17.8,0-26.7C385.1,684.1,382.6,684.1,382.6,685.8
			L382.6,685.8z"/>
	</g>
</g>
<g>
	<g>
		<path d="M498.2,667.3c-1.6-8.4-5.8-16.7-14.5-19.3c-12.3-3.6-25.7,4.7-35.3,11.4c-1.3,0.9-0.1,3.1,1.3,2.2
			c8.9-6.2,21.1-14.1,32.6-11.4c8.4,2,12.2,10,13.6,17.8C496.1,669.6,498.5,668.9,498.2,667.3L498.2,667.3z"/>
	</g>
</g>
<g>
	<g>
		<path d="M403,652.5c7.4,19.1,31.8,17.2,46.6,9.1c1.4-0.8,0.2-2.9-1.3-2.2c-13.2,7.2-36.1,9.9-42.9-7.6
			C404.9,650.3,402.4,651,403,652.5L403,652.5z"/>
	</g>
</g>
<g>
	<g>
		<path d="M385.4,648.9c-0.3,16.5,16.6,21.2,29.7,16.2c1.5-0.6,0.8-3-0.7-2.4c-11.6,4.4-26.9,1.1-26.6-13.8
			C388,647.3,385.5,647.3,385.4,648.9L385.4,648.9z"/>
	</g>
</g>
<g>
	<g>
		<path d="M396.2,606.9c-13.4,9.8-16.5,27.3-10.7,42.4c0.6,1.5,3,0.8,2.4-0.7c-5.4-13.9-3-30.4,9.6-39.5
			C398.7,608.1,397.5,605.9,396.2,606.9L396.2,606.9z"/>
	</g>
</g>
<g>
	<g>
		<path d="M410.3,611c-5.3,0.5-13.5-0.2-10.9-7.6c1.5-4.1,6.2-9,11-8.2c1.6,0.3,2.2-2.1,0.7-2.4c-6.3-1.1-12.5,4.7-14.2,10.4
			c-2.7,8.9,6.6,11,13.4,10.3C411.9,613.3,411.9,610.8,410.3,611L410.3,611z"/>
	</g>
</g>
<g>
	<g>
		<path d="M432,578.2c-10-3.5-20.2,6.6-22.4,15.5c-0.4,1.6,2,2.2,2.4,0.7c1.8-7.6,10.6-16.7,19.3-13.7
			C432.8,581.1,433.5,578.7,432,578.2L432,578.2z"/>
	</g>
</g>
<g>
	<g>
		<path d="M450.2,570.5c-8.3-1.1-17-0.7-19.8,8.5c-0.5,1.5,1.9,2.2,2.4,0.7c2.4-8.1,10.4-7.6,17.4-6.7
			C451.8,573.3,451.8,570.8,450.2,570.5L450.2,570.5z"/>
	</g>
</g>
<g>
	<g>
		<path d="M431.2,590.9c3.1,5.5,11.2,4.6,14.8,0.3c1-1.2-0.7-3-1.8-1.8c-2.5,3.1-8.5,4.5-10.9,0.3
			C432.5,588.3,430.4,589.5,431.2,590.9L431.2,590.9z"/>
	</g>
</g>
<g>
	<g>
		<path d="M449.3,570.9c-2.4,2.3-3.2,5.4-3.7,8.6c-0.3,2.6,0.4,7.8-1.5,9.9c-1.1,1.2,0.7,3,1.8,1.8c1.6-1.8,1.6-4.6,1.8-6.9
			c0.3-4,0.3-8.7,3.4-11.6C452.3,571.6,450.5,569.8,449.3,570.9L449.3,570.9z"/>
	</g>
</g>
<g>
	<g>
		<path d="M483.5,578c-4.8-12.2-24.4-14.6-33.9-7.3c-1.3,1,0,3.1,1.3,2.2c5.2-4,11.5-4.7,17.8-3c4.5,1.3,10.5,4.1,12.4,8.8
			C481.6,580.2,484,579.5,483.5,578L483.5,578z"/>
	</g>
</g>
<g>
	<g>
		<path d="M518.4,579.6c-4-9.4-19.4-13.8-27.9-8.9c-1.4,0.8-0.1,3,1.3,2.2c7.4-4.3,21.1-0.1,24.5,8
			C516.8,582.4,519,581.1,518.4,579.6L518.4,579.6z"/>
	</g>
</g>
<g>
	<g>
		<path d="M516,580.3c-0.2,6.2-3.3,11-7.4,15.5c-2.3,2.6-5.2,5-6.7,8.2c-0.7,1.4,1.4,2.7,2.2,1.3c2-4.1,6.2-7.2,9-10.8
			c3.3-4.2,5.3-8.8,5.5-14.2C518.6,578.7,516.1,578.7,516,580.3L516,580.3z"/>
	</g>
</g>
<g>
	<g>
		<path d="M533.7,588.2c-2.6-5.4-10.6-13.4-17.1-9c-1.3,0.9-0.1,3.1,1.3,2.2c5.1-3.5,11.7,4,13.7,8.1
			C532.3,590.9,534.4,589.6,533.7,588.2L533.7,588.2z"/>
	</g>
</g>
<g>
	<g>
		<path d="M542.5,598.5c0.9-5.7-4.4-10.7-9.8-10.9c-1.6-0.1-1.6,2.4,0,2.5c3.7,0.1,8.1,3.7,7.4,7.7
			C539.8,599.4,542.2,600.1,542.5,598.5L542.5,598.5z"/>
	</g>
</g>
<g>
	<g>
		<path d="M530,603.8c2-3.1,6-4.7,9.5-4.3c5.4,0.5,7.9,4.9,8.6,9.8c0.2,1.6,2.6,0.9,2.4-0.7c-0.9-5.8-4.2-10.8-10.3-11.6
			c-4.7-0.6-9.8,1.5-12.4,5.5C526.9,603.9,529.1,605.1,530,603.8L530,603.8z"/>
	</g>
</g>
<g>
	<g>
		<path d="M548.4,609.8c4.3,3.9,8.4,8.2,9.9,13.9c1.2,4.5,0.9,9.3,0.7,14c-0.1,1.6,2.4,1.6,2.5,0c0.3-5.2,0.6-10.7-1.1-15.7
			c-1.9-5.7-5.9-10.1-10.3-14C549,606.9,547.2,608.7,548.4,609.8L548.4,609.8z"/>
	</g>
</g>
<g>
	<g>
		<path d="M559.1,638c1.2,8.6,1.2,19-4.2,26.3c-6.1,8.2-16.2,6.2-24.2,2.2c-1.4-0.7-2.7,1.4-1.3,2.2c8.6,4.3,19.3,6.4,26.4-1.6
			c7-7.9,7-20,5.6-29.8C561.3,635.8,558.9,636.5,559.1,638L559.1,638z"/>
	</g>
</g>
<g>
	<g>
		<path d="M530.7,666.6c-5.8-3.4-12.2-7.6-19.1-8.1c-6.6-0.5-11.6,3.5-15.5,8.3c-1,1.2,0.8,3,1.8,1.8c4-5,8.9-8.7,15.6-7.3
			c5.7,1.2,11,4.6,16,7.5C530.9,669.5,532.1,667.4,530.7,666.6L530.7,666.6z"/>
	</g>
</g>
<g>
	<g>
		<path d="M430.7,583.2c0.6,2.9,0.4,9-3.3,10c-1.6,0.4-0.9,2.8,0.7,2.4c5.2-1.4,5.9-8.7,5.1-13.1C432.8,581,430.4,581.6,430.7,583.2
			L430.7,583.2z"/>
	</g>
</g>
<g>
	<g>
		<path d="M495.6,607.5c3.9-2.9,10.9-1.2,14.5,1.6c1.3,1,3-0.8,1.8-1.8c-4.4-3.5-12.6-5.7-17.5-2
			C493.1,606.3,494.4,608.5,495.6,607.5L495.6,607.5z"/>
	</g>
</g>
<g>
	<g>
		<path d="M549.6,632.9c3.8,1.8,8,5,9.7,8.9c0.6,1.5,3,0.8,2.4-0.7c-1.9-4.6-6.4-8.3-10.8-10.4C549.5,630,548.2,632.2,549.6,632.9
			L549.6,632.9z"/>
	</g>
</g>
<g>
	<g>
		<path d="M395.2,651.2c1.6,1.8,4.6,2.3,6.9,2.2c4.3-0.1,7.9-2.3,10.8-5.3c1.1-1.2-0.7-2.9-1.8-1.8c-2.4,2.5-5.4,4.5-9,4.6
			c-1.6,0-3.9-0.2-5.1-1.5C395.9,648.2,394.1,650,395.2,651.2L395.2,651.2z"/>
	</g>
</g>
<g>
	<g>
		<path d="M417.8,605.3c-2.4,0-4.7,2-6.1,3.8c-2.7,3.3-3.4,7.5-2.9,11.7c0.2,1.6,2.7,1.6,2.5,0c-0.4-3.4-0.1-6.8,2-9.7
			c1-1.3,2.7-3.2,4.5-3.2C419.4,607.8,419.4,605.3,417.8,605.3L417.8,605.3z"/>
	</g>
</g>
<path id="SVGID_x5F_4_x5F_" class="st4" d="M475.4,621.2c11.1-9.6,36.8-2.7,46.2,5.2"/>
<text><textPath  xlink:href="#SVGID_x5F_4_x5F_" startOffset="2.400000e-02%">
<tspan  class="st0 st13" style="font-size:9px;">Interaktion</tspan></textPath>
</text>
<path id="SVGID_x5F_5_x5F_" class="st4" d="M382.4,640.3c3.4,4.6,23.7,10.8,40.5-7.8"/>
<text><textPath  xlink:href="#SVGID_x5F_5_x5F_" startOffset="14.551%">
<tspan  class="st0 st13" style="font-size:9px;">Mensch</tspan></textPath>
</text>
<g>
	<g>
		<path d="M473.4,570.8c4.5-5.4,13.4-3.6,16.9,1.7c0.9,1.3,3.1,0.1,2.2-1.3c-4.4-6.5-15.3-8.9-20.9-2.2
			C470.6,570.2,472.4,572,473.4,570.8L473.4,570.8z"/>
	</g>
</g>
<g>
	<g>
		<path id="SVGID_x5F_6_x5F_" class="st4" d="M424.8,602.4c6.2,6.8,28.9,9.2,36.5-10.6"/>
		<text>		<textPath  xlink:href="#SVGID_x5F_6_x5F_" startOffset="0%">
<tspan  class="st0 st13" style="font-size:9px;">Technik</tspan>		</textPath>
</text>
	</g>
</g>
<text transform="matrix(1 0 0 1 705.5518 620.0938)" class="st5" style="font-size:12.892px;">KOGNITION</text>
<text transform="matrix(1 0 0 1 644.3281 590.291)" class="st5" style="font-size:12.892px;">MENSCH-TECHNIK-INTERAKTION</text>
<line class="st7" x1="645" y1="615.3" x2="697.4" y2="615.3"/>
<line class="st7" x1="780.4" y1="615.3" x2="832.7" y2="615.3"/>
<path d="M1112.3,684.7c0.5-0.6,1.2-0.7,1.9-0.5c3,0.6,5.9,1.2,8.9,1.8c0.5,0.1,1,0.2,1.2,0.7c0.4,0.9-0.1,1.8-1.1,1.8
	c-0.2,0-0.5,0-0.7-0.1c-3-0.6-5.9-1.2-8.9-1.7c-0.8-0.1-1.3-0.4-1.6-1.2C1112.2,685.2,1112.2,685,1112.3,684.7z"/>
<path d="M1182.9,699.5c-0.5,0.6-1.2,0.7-1.9,0.5c-2.9-0.6-5.8-1.2-8.7-1.7c-1-0.2-1.5-0.9-1.1-1.8c0.2-0.5,0.6-0.8,1.1-0.7
	c0.2,0,0.5,0,0.7,0.1c2.9,0.6,5.7,1.1,8.6,1.7c0.8,0.1,1.3,0.4,1.6,1.2C1183,699,1182.9,699.2,1182.9,699.5z"/>
<path d="M1167,695.4c-0.7,3.5-2.6,7-5.7,9.9c-2.1,2-4.1,4.1-5.6,6.7c-0.8,1.4-1.3,2.8-1.2,4.4c0,0.7-0.4,1.2-1.1,1.3
	c-0.6,0.1-1.2-0.3-1.4-1c-0.1-0.5-0.1-1-0.1-1.4c0.2-2.1,1-3.9,2.1-5.7c1.5-2.4,3.6-4.5,5.6-6.4c2.7-2.6,4.3-5.7,4.9-9.4
	c0.8-5.1-0.5-9.7-3.8-13.6c-2.3-2.8-5.2-4.6-8.7-5.5c-4.7-1.2-9.1-0.5-13.2,2.1c-3,1.8-5.2,4.3-6.5,7.5c-1.9,4.5-1.9,9.1,0.1,13.7
	c1,2.2,1.9,4.4,2.5,6.8c0.6,2.4,0.8,4.9,0,7.3c-0.1,0.4-0.3,0.8-0.6,1.2c-0.4,0.5-1,0.6-1.6,0.3c-0.5-0.3-0.8-0.9-0.5-1.5
	c0.9-1.9,0.7-3.9,0.3-5.9c-0.5-2.7-1.7-5.2-2.7-7.7c-2.2-5.2-2-10.5,0.4-15.6c1.5-3.3,3.8-6,6.9-7.9c4.1-2.7,8.6-3.7,13.5-3
	c3.6,0.5,6.8,1.9,9.6,4.2c3.3,2.7,5.4,6.1,6.5,10.3C1167.6,689.2,1167.6,691.9,1167,695.4z"/>
<path d="M1141.3,723.6c-2.6-0.5-5.3-1.1-7.9-1.5c-2.2-0.4-3.4-2.1-2.8-4.3c0.2-0.9,0.4-1.7,1.2-2.3c0.8-0.6,1.7-0.9,2.7-0.7
	c2.7,0.5,5.5,1.1,8.2,1.6c2.7,0.5,5.5,1.1,8.2,1.6c2,0.4,3,1.8,2.6,3.8c-0.1,0.8-0.3,1.6-0.8,2.2c-0.7,1-1.8,1.4-3.1,1.2
	C1146.8,724.7,1144.1,724.1,1141.3,723.6z M1142.2,718.9c-2.7-0.5-5.4-1.1-8.1-1.6c-0.3-0.1-0.8,0-0.8,0.1c-0.2,0.5-0.4,1-0.3,1.5
	c0,0.5,0.5,0.5,0.9,0.5c5.3,1,10.5,2.1,15.8,3.1c0.1,0,0.3,0.1,0.4,0.1c0.4,0.1,0.7-0.1,0.8-0.5c0.1-0.2,0.1-0.4,0.1-0.6
	c0.1-0.8,0-1-0.7-1.1C1147.6,720,1144.9,719.5,1142.2,718.9z"/>
<path d="M1132.7,726.9c0.1-0.5,0.2-1.1,0.3-1.6c0.2-0.8,0.8-1.2,1.5-1.1c0.7,0.1,1.1,0.8,1,1.6c-0.1,0.7-0.3,1.3-0.4,2
	c0,0.2,0.1,0.5,0.2,0.6c1.4,1.1,2.9,2.1,4.4,3.1c0.1,0.1,0.4,0.1,0.6,0.1c1.7-0.4,3.4-0.9,5.1-1.3c0.4-0.1,0.6-0.3,0.6-0.7
	c0.1-0.6,0.2-1.3,0.4-1.9c0.3-1,1.5-1.3,2.1-0.5c0.2,0.3,0.3,0.8,0.3,1.1c-0.1,1-0.4,2-0.6,3.1c-0.1,0.6-0.6,1-1.2,1.1
	c-1.7,0.4-3.3,0.8-5,1.2c-0.7,0.2-1.3,0.3-2,0.5c-0.5,0.1-1,0-1.5-0.3c-1.9-1.4-3.8-2.7-5.7-4c-0.6-0.4-0.8-1-0.7-1.7
	C1132.6,727.8,1132.6,727.4,1132.7,726.9C1132.7,726.9,1132.7,726.9,1132.7,726.9z"/>
<path d="M1114.2,707.1c0.1-0.6,0.5-0.9,0.9-1.1c1-0.5,2.1-1,3.1-1.5c2.1-1,4.2-2,6.3-2.9c0.3-0.1,0.6-0.3,0.9-0.3
	c0.6-0.2,1.3,0.2,1.5,0.7c0.2,0.6,0,1.3-0.7,1.6c-1.2,0.6-2.5,1.2-3.7,1.8c-2.2,1-4.3,2-6.5,3.1c-0.5,0.2-1.1,0.2-1.5-0.1
	c-0.3-0.3-0.4-0.7-0.6-1.1C1114.1,707.1,1114.1,707.1,1114.2,707.1z"/>
<path d="M1122.3,665.6c0.2-0.6,0.5-0.9,1-1c0.5-0.2,1,0,1.3,0.4c0.7,0.7,1.3,1.4,1.9,2.1c1.7,1.9,3.5,3.8,5.2,5.7
	c0.6,0.7,0.7,1.5,0,2c-0.5,0.4-1.3,0.3-1.9-0.3c-1.5-1.7-3-3.3-4.5-5c-0.9-0.9-1.7-1.8-2.5-2.8
	C1122.6,666.4,1122.4,666,1122.3,665.6z"/>
<path d="M1172.9,718.9c-0.2,0.1-0.4,0.5-0.8,0.7c-0.5,0.2-1,0.1-1.4-0.3c-2-2.2-4-4.4-6-6.5c-0.4-0.4-0.8-0.8-1.1-1.2
	c-0.5-0.6-0.5-1.4,0-1.9c0.6-0.5,1.3-0.5,1.8,0.1c1.4,1.5,2.8,3,4.2,4.6c0.9,1,1.8,1.9,2.7,2.9
	C1172.7,717.7,1173,718.1,1172.9,718.9z"/>
<path d="M1169.4,680.9c0.3-0.3,0.5-0.7,0.9-0.9c3-1.4,5.9-2.8,8.9-4.2c1-0.4,1.8,0,1.9,0.9c0.1,0.5-0.2,1.1-0.7,1.3
	c-3,1.4-6.1,2.9-9.1,4.3c-0.5,0.2-1,0.2-1.5-0.1C1169.5,681.9,1169.4,681.5,1169.4,680.9z"/>
<line class="st17" x1="1143.9" y1="694.7" x2="1139.6" y2="716.7"/>
<line class="st17" x1="1149.9" y1="696.3" x2="1145.7" y2="717.5"/>
<g>
	<g>
		<g>
			<path d="M1149.9,696.8c0-1.2-0.4-2.4-1.5-3c-1.5-0.8-3.4-0.1-4.8,0.6c-0.6,0.3-0.1,1.1,0.5,0.9c1.9-0.8,4.8-1.4,4.7,1.5
				C1148.9,697.4,1149.9,697.4,1149.9,696.8L1149.9,696.8z"/>
		</g>
	</g>
	<g>
		<g>
			<path d="M1138.3,692.9c0.5,2.6,3.6,3,5.7,2.4c0.6-0.2,0.4-1.2-0.3-1c-1.6,0.5-4.1,0.4-4.5-1.7
				C1139.1,692,1138.2,692.3,1138.3,692.9L1138.3,692.9z"/>
		</g>
	</g>
	<g>
		<g>
			<path d="M1136.3,691.8c-0.2,0.9,0,1.8,0.7,2.4c0.8,0.7,1.9,0.8,2.9,0.7c0.6-0.1,0.4-1.1-0.3-1c-1.2,0.2-2.7-0.4-2.4-1.8
				C1137.4,691.5,1136.4,691.2,1136.3,691.8L1136.3,691.8z"/>
		</g>
	</g>
	<g>
		<g>
			<path d="M1138.7,687c-2,0.9-2.7,3.1-2.4,5.2c0.1,0.6,1.1,0.4,1-0.3c-0.3-1.6,0.4-3.3,1.9-4C1139.7,687.5,1139.2,686.7,1138.7,687
				L1138.7,687z"/>
		</g>
	</g>
	<g>
		<g>
			<path d="M1140.4,687.7c-0.5,0-1.1-0.2-0.7-0.7c0.2-0.3,0.7-0.6,1.1-0.5c0.6,0.2,0.9-0.7,0.3-1c-0.9-0.3-1.9,0.3-2.3,1.1
				c-0.2,0.4-0.2,0.9,0,1.3c0.4,0.5,1.1,0.7,1.7,0.7C1141.1,688.8,1141,687.8,1140.4,687.7L1140.4,687.7z"/>
		</g>
	</g>
	<g>
		<g>
			<path d="M1143.9,684.4c-1.3-0.7-2.9,0.2-3.5,1.4c-0.3,0.6,0.6,1.1,0.9,0.5c0.3-0.7,1.3-1.5,2.1-1.1
				C1144,685.6,1144.5,684.7,1143.9,684.4L1143.9,684.4z"/>
		</g>
	</g>
	<g>
		<g>
			<path d="M1146.2,683.9c-1.1-0.4-2.3-0.5-2.9,0.7c-0.3,0.6,0.6,1.1,0.9,0.5c0.4-0.7,1.2-0.5,1.8-0.2
				C1146.5,685.1,1146.8,684.1,1146.2,683.9L1146.2,683.9z"/>
		</g>
	</g>
	<g>
		<g>
			<path d="M1143,686.3c0.3,0.9,1.5,1.2,2.2,0.6c0.5-0.4,0-1.3-0.5-0.9c-0.2,0.1-0.7,0.3-0.8,0
				C1143.8,685.4,1142.8,685.7,1143,686.3L1143,686.3z"/>
		</g>
	</g>
	<g>
		<g>
			<path d="M1145.8,683.9c-0.4,0.3-0.6,0.6-0.8,1.1c-0.1,0.2-0.1,0.4-0.2,0.6c0,0.1-0.1,0.2-0.1,0.3c0,0.1-0.1,0.2,0,0.1
				c-0.5,0.4,0,1.3,0.5,0.9c0.3-0.2,0.4-0.6,0.5-1c0.1-0.4,0.2-0.9,0.5-1.1C1146.9,684.5,1146.4,683.6,1145.8,683.9L1145.8,683.9z"
				/>
		</g>
	</g>
	<g>
		<g>
			<path d="M1150.2,685.8c-0.4-1.8-2.9-2.5-4.4-1.8c-0.6,0.3-0.1,1.1,0.5,0.9c0.9-0.5,2.7,0.1,2.9,1.2
				C1149.3,686.7,1150.3,686.4,1150.2,685.8L1150.2,685.8z"/>
		</g>
	</g>
	<g>
		<g>
			<path d="M1154.3,686.8c-0.3-1.4-2.2-2.4-3.5-2c-0.6,0.2-0.3,1.2,0.3,1c0.8-0.3,2.1,0.4,2.3,1.3
				C1153.4,687.7,1154.4,687.4,1154.3,686.8L1154.3,686.8z"/>
		</g>
	</g>
	<g>
		<g>
			<path d="M1153.3,686.8c-0.3,1.2-1.5,1.5-2.2,2.4c-0.4,0.5,0.5,1,0.9,0.5c0.3-0.4,0.9-0.6,1.2-1c0.5-0.5,0.9-1,1.1-1.7
				C1154.4,686.4,1153.4,686.2,1153.3,686.8L1153.3,686.8z"/>
		</g>
	</g>
	<g>
		<g>
			<path d="M1155.9,688.2c-0.2-0.9-1.2-2.1-2.2-1.7c-0.6,0.2-0.3,1.2,0.3,1c0.5-0.2,0.9,0.7,1,1
				C1155.1,689.1,1156.1,688.8,1155.9,688.2L1155.9,688.2z"/>
		</g>
	</g>
	<g>
		<g>
			<path d="M1156.7,689.7c0.3-0.8-0.3-1.7-1.2-1.9c-0.6-0.2-0.9,0.8-0.3,1c0.3,0.1,0.6,0.4,0.5,0.7
				C1155.5,690.1,1156.5,690.3,1156.7,689.7L1156.7,689.7z"/>
		</g>
	</g>
	<g>
		<g>
			<path d="M1155,690.3c0.2-0.2,0.6-0.3,0.9-0.2c0.5,0.1,0.6,0.6,0.5,1c0,0.6,1,0.6,1,0c0-0.9-0.3-1.7-1.2-2
				c-0.7-0.2-1.5-0.1-1.9,0.4C1153.8,690,1154.5,690.7,1155,690.3L1155,690.3z"/>
		</g>
	</g>
	<g>
		<g>
			<path d="M1156.5,691.3c0.4,0.5,0.8,1.1,0.8,1.7c0,0.5-0.1,1.1-0.2,1.6c-0.2,0.6,0.8,0.9,1,0.3c0.4-1.5,0.3-2.7-0.7-4
				C1156.9,690.3,1156.1,690.8,1156.5,691.3L1156.5,691.3z"/>
		</g>
	</g>
	<g>
		<g>
			<path d="M1157,694.7c-0.1,0.9-0.2,2.1-1,2.7c-0.8,0.7-1.8,0.2-2.5-0.3c-0.5-0.4-1,0.5-0.5,0.9c1,0.8,2.4,1.2,3.5,0.4
				c1.1-0.8,1.4-2.4,1.5-3.7C1158.1,694.1,1157.1,694.1,1157,694.7L1157,694.7z"/>
		</g>
	</g>
	<g>
		<g>
			<path d="M1153.6,697.2c-0.7-0.6-1.4-1.3-2.3-1.5c-0.9-0.2-1.6,0.2-2.3,0.8c-0.5,0.4,0.2,1.1,0.7,0.7c1.3-1,2.2-0.1,3.2,0.8
				C1153.4,698.3,1154.1,697.6,1153.6,697.2L1153.6,697.2z"/>
		</g>
	</g>
	<g>
		<g>
			<path d="M1143.1,685.2c0,0.1-0.1,0.7-0.3,0.8c-0.6,0.1-0.6,1.1,0,1c0.9-0.1,1.2-1,1.3-1.8
				C1144.2,684.6,1143.2,684.6,1143.1,685.2L1143.1,685.2z"/>
		</g>
	</g>
	<g>
		<g>
			<path d="M1150.8,689.9c0.4-0.2,1,0.2,1.2,0.5c0.4,0.5,1.1-0.2,0.7-0.7c-0.6-0.7-1.6-1-2.5-0.7
				C1149.7,689.3,1150.2,690.2,1150.8,689.9L1150.8,689.9z"/>
		</g>
	</g>
	<g>
		<g>
			<path d="M1156.2,694.2c0.3,0.3,0.7,0.7,0.8,1.1c0.1,0.6,1.1,0.4,1-0.3c-0.2-0.7-0.7-1.3-1.2-1.7
				C1156.2,693,1155.7,693.8,1156.2,694.2L1156.2,694.2z"/>
		</g>
	</g>
	<g>
		<g>
			<path d="M1137.4,692.6c0.6,0.9,1.9,0.7,2.6,0.2c0.5-0.4,0-1.2-0.5-0.9c-0.3,0.2-1,0.5-1.3,0.2
				C1137.9,691.6,1137.1,692.1,1137.4,692.6L1137.4,692.6z"/>
		</g>
	</g>
	<g>
		<g>
			<path d="M1141.6,687.2c-1.1-0.2-1.8,1-1.9,2c-0.1,0.6,0.9,0.6,1,0c0-0.3,0.1-0.6,0.4-0.8c0.1-0.1,0.1-0.1,0.2-0.1
				c0.1,0,0.2,0,0,0C1141.9,688.3,1142.2,687.3,1141.6,687.2L1141.6,687.2z"/>
		</g>
	</g>
	<g>
		<g>
			<path d="M1149.1,685c0.4-0.3,1.2,0,1.3,0.5c0.2,0.6,1.2,0.3,1-0.3c-0.3-0.7-0.8-1.1-1.5-1.3c-0.5-0.1-1.1,0-1.5,0.4
				C1147.9,684.7,1148.6,685.4,1149.1,685L1149.1,685z"/>
		</g>
	</g>
</g>
<text transform="matrix(1 0 0 1 991.8867 798.124)" class="st5" style="font-size:15.4357px;">KOGNITION</text>
<text transform="matrix(1 0 0 1 918.583 762.4414)" class="st5" style="font-size:15.4357px;">MENSCH-TECHNIK-INTERAKTION</text>
<line class="st7" x1="919.4" y1="792.3" x2="982.1" y2="792.3"/>
<line class="st7" x1="1081.4" y1="792.3" x2="1144.2" y2="792.3"/>
<text transform="matrix(1 0 0 1 912.9747 373.2782)"><tspan x="0" y="0" class="st13" style="font-size:48px;">K</tspan><tspan x="29.5" y="0" class="st13" style="font-size:48px; letter-spacing:-3;">	</tspan><tspan x="36" y="0" class="st13" style="font-size:48px; letter-spacing:26;">	</tspan><tspan x="72" y="0" class="st13" style="font-size:48px;">GNITION</tspan></text>
<g>
	<g>
		<path class="st18" d="M963.9,352.6c0,0.2,0,0.4-0.1,0.5c-0.1,0.3-0.2,0.5-0.4,0.7c-0.6,0.4-0.8,0.9-0.9,1.6
			c-0.1,0.7-0.1,1.3-0.1,2c0,0.1,0,0.1,0,0.2c0,0.1-0.1,0.2-0.2,0.2c-0.1,0-0.2,0-0.3-0.1c-0.3-0.3-0.5-0.5-0.7-0.8
			c-0.1-0.1-0.1-0.2-0.1-0.4c0-0.4,0-0.8,0-1.2c-0.2,0-0.5,0-0.6-0.2c0-0.1-0.1,0-0.2,0c-0.7,0.1-1.3,0.1-1.9-0.2
			c-0.6-0.3-1-0.7-1.1-1.4c0-0.2-0.1-0.3,0-0.5c0-0.1,0-0.1-0.1-0.1c-0.6-0.1-1-0.5-1.2-1.1c-0.1-0.3-0.2-0.5-0.2-0.8
			c0-0.1,0-0.1,0-0.2c-0.3-0.8-0.3-1.5,0.1-2.2c0-0.1,0.1-0.1,0.1-0.2c0-0.6,0.4-1.1,0.9-1.4c0.1-0.1,0.1-0.1,0.2-0.3
			c0.2-1.1,0.8-1.8,1.8-2.2c0.1,0,0.2-0.1,0.2-0.2c0.6-0.9,1.8-1.3,2.8-1c0.1,0,0.1,0,0.2,0c0.7-0.5,1.5-0.6,2.3-0.3
			c0.1,0,0.1,0,0.2,0c1-0.2,2,0,2.8,0.6c0.1,0.1,0.3,0.1,0.5,0.1c0.7,0.1,1.2,0.5,1.7,1.1c0.1,0.1,0.2,0.2,0.3,0.2
			c0.8,0.5,1.3,1.2,1.3,2.2c0,0.3,0,0.6,0,0.8c0.1,0.6-0.2,1-0.6,1.3c-0.1,0-0.1,0.1-0.1,0.2c-0.2,0.6-0.7,0.9-1.3,1
			c-0.1,0-0.2,0-0.3,0c-0.2,0-0.2,0-0.3,0.2c-0.2,1.1-0.9,1.7-1.9,2c-0.8,0.2-1.5,0.3-2.3,0c0,0-0.1,0-0.1,0
			C964,352.6,963.9,352.5,963.9,352.6z"/>
	</g>
</g>
<path class="st7" d="M969.1,369.1c0,0,3.7,0.7,5.9-1l0.3-1.1l-0.4-1.8l0.8-1.2l-0.3-1H975l0.4-0.3l0.5-0.8l-0.3-0.9l0.1-0.6l1.2-0.2
	c0,0,0.4-0.7,0.8-1.2c-1-1.3-2.7-4.1-2.8-4.9c0,0,1.8-0.6-0.2-4.5c-1.4-12.4-22.5-10.8-21.5,0c0,5.7,0,5.7,0,5.7s0.5,1,0.9,1.3
	c0.3,0,0.4,3.6,1.1,6.3c0,0-1.4,4.9-1.4,5.6C961.6,378.9,969.1,369.1,969.1,369.1z"/>
<text transform="matrix(1 0 0 1 915.0662 326.3141)" class="st13 st10" style="letter-spacing:2;">Mensch - Technik - Interaktion</text>
<g>
	<text transform="matrix(1 0 0 1 636.9168 248)"><tspan x="0" y="0" class="st13" style="font-size:34.06px;">Men  ch</tspan><tspan x="0" y="40.9" class="st13" style="font-size:34.06px;">Techn  k</tspan><tspan x="0" y="81.7" class="st13" style="font-size:34.06px;">Interakti  n</tspan></text>
	<g>
		<text transform="matrix(1 0 0 1 636.5775 370.685)" class="st5" style="font-size:34.062px;">K</text>
		<g>
			<g>
				<path class="st18" d="M666.2,360.1c0,0.1,0,0.2,0,0.3c0,0.1-0.1,0.3-0.2,0.3c-0.3,0.2-0.4,0.5-0.5,0.8c-0.1,0.3,0,0.7,0,1
					c0,0,0,0.1,0,0.1c0,0.1,0,0.1-0.1,0.1c-0.1,0-0.1,0-0.1,0c-0.1-0.1-0.3-0.3-0.4-0.4c0-0.1-0.1-0.1-0.1-0.2c0-0.2,0-0.4,0-0.6
					c-0.1,0-0.2,0-0.3-0.1c0,0-0.1,0-0.1,0c-0.3,0.1-0.7,0-1-0.1c-0.3-0.1-0.5-0.4-0.6-0.7c0-0.1,0-0.2,0-0.3c0,0,0-0.1,0-0.1
					c-0.3-0.1-0.5-0.3-0.6-0.5c-0.1-0.1-0.1-0.3-0.1-0.4c0,0,0-0.1,0-0.1c-0.2-0.4-0.1-0.8,0.1-1.1c0,0,0-0.1,0-0.1
					c0-0.3,0.2-0.5,0.4-0.7c0.1,0,0.1-0.1,0.1-0.1c0.1-0.6,0.4-0.9,0.9-1.1c0.1,0,0.1,0,0.1-0.1c0.3-0.5,0.9-0.7,1.4-0.5
					c0,0,0.1,0,0.1,0c0.4-0.3,0.8-0.3,1.2-0.2c0,0,0.1,0,0.1,0c0.5-0.1,1,0,1.4,0.3c0.1,0,0.2,0,0.2,0.1c0.4,0.1,0.6,0.3,0.8,0.6
					c0,0,0.1,0.1,0.1,0.1c0.4,0.2,0.7,0.6,0.6,1.1c0,0.1,0,0.3,0,0.4c0,0.3-0.1,0.5-0.3,0.7c0,0,0,0.1-0.1,0.1
					c-0.1,0.3-0.3,0.4-0.6,0.5c-0.1,0-0.1,0-0.2,0c-0.1,0-0.1,0-0.1,0.1c-0.1,0.5-0.5,0.8-1,1C667,360.2,666.6,360.2,666.2,360.1
					C666.2,360.1,666.2,360.1,666.2,360.1C666.2,360.1,666.2,360.1,666.2,360.1z"/>
			</g>
		</g>
		<path class="st7" d="M668.8,368.4c0,0,1.9,0.3,3-0.5l0.2-0.6l-0.2-0.9l0.4-0.6l-0.1-0.5h-0.2l0.2-0.1l0.2-0.4l-0.2-0.5l0.1-0.3
			l0.6-0.1c0,0,0.2-0.4,0.4-0.6c-0.5-0.6-1.4-2.1-1.4-2.5c0,0,0.9-0.3-0.1-2.3c-0.7-6.2-11.3-5.4-10.8,0c0,2.9,0,2.9,0,2.9
			s0.3,0.5,0.5,0.7c0.1,0,0.2,1.8,0.5,3.2c0,0-0.7,2.5-0.7,2.8C665,373.4,668.8,368.4,668.8,368.4z"/>
		<text transform="matrix(1 0 0 1 676.917 370.8333)" class="st13" style="font-size:34.06px;">gnition</text>
	</g>
	<g>
		<path class="st0" d="M732.9,266.9l-0.6-0.7l0.7-3l1.3,0l0.6,2.9l-0.6,0.7l-0.1,9l1.8,0l0,1.5c-1,0.4-1.2,1-0.6,1.8l0.6,0.5
			l-0.1,8.3l-0.7,0.8l-3.8,0l-0.8-0.5l0.1-8.6c1.1-0.7,1-1.4,0-2.1l0-1.5l2.3-0.1L732.9,266.9z"/>
	</g>
	<path class="st18" d="M709.3,246.5c-0.1,0.5,1.2,0.8,1,1.3c-1.2,1-2.6-0.1-3-1.5c-0.2-0.7,0.8-0.9,1.2-0.8c4,0.7,4.7-0.3,4.7-1.9
		c-0.2-1.9-4.3-2.6-4.7-3c-1-0.7-1.9-1.5-2.3-2.5c-0.1-0.2-0.5-1.2-0.2-2c-1.2-0.6-0.1,3.1-0.4,3.8c-0.1,0.2-0.7,0.5-0.9-0.1
		s-0.7-4.5,0.5-5.5c0.5-0.4,1.5-0.1,1.8-0.1c0.1,0-0.1-0.4-0.1-0.4c-0.4,0-1.3-0.9-1.3-1.8c0-2.7,5.9-1.7,4.2,1.3
		c-0.1,0.5,0,0.5,0.4,0.5c0.8-1.5,5.8-1.2,6-0.6c0.3,0.6-0.4,0.7-0.4,0.7c-3.3-0.3-5.7,1-5.7,1.4c-0.6,1,0.3,1.9,0.7,2.2
		c1.1,1,4,1.5,4.7,2.4c1,0.5,1.8,2.4,1.7,3.4c0,0.9-0.4,2.4-0.7,2.7c0.3,0.3,0.4,0.6,0.5,0.9c0.1,1.1-1.1,1-2.1,0.7
		c0.1-0.5,0.4-0.9-0.4-1.8c1-0.6,1.4-1.9,1.5-2.2c0.6-1.8-0.4-2.3-2.5-2.9C716,242.1,714.6,248,709.3,246.5z"/>
	<g>
		<path class="st0" d="M773.8,330.2c-0.1-0.5-0.2-0.9-0.3-1.4c0-0.2-0.1-0.3-0.1-0.5c0-0.1,0-0.1-0.1-0.1c-0.4-0.1-0.7-0.2-1.1-0.3
			c-0.1,0-0.1,0-0.1,0.1c-0.4,0.5-0.8,0.9-1.2,1.4c-0.1,0.1-0.1,0.1-0.2,0c-0.3-0.2-0.7-0.4-1-0.6c-0.1,0-0.1-0.1,0-0.1
			c0.2-0.6,0.4-1.1,0.6-1.7c0-0.1,0-0.1,0-0.2c-0.3-0.2-0.5-0.5-0.8-0.8c0-0.1-0.1-0.1-0.2,0c-0.6,0.2-1.1,0.4-1.7,0.6
			c-0.1,0-0.1,0-0.1,0c-0.2-0.4-0.4-0.7-0.6-1c0-0.1,0-0.1,0-0.1c0.5-0.4,0.9-0.8,1.4-1.2c0.1-0.1,0.1-0.1,0.1-0.2
			c-0.1-0.3-0.2-0.7-0.3-1c0-0.1-0.1-0.1-0.1-0.1c-0.6-0.1-1.2-0.2-1.7-0.3c-0.1,0-0.1,0-0.1-0.1c0-0.4,0-0.8,0-1.2
			c0-0.1,0-0.1,0.1-0.1c0.6-0.1,1.2-0.2,1.7-0.3c0.1,0,0.1,0,0.1-0.1c0.1-0.3,0.1-0.7,0.3-1c0-0.1,0-0.1,0-0.2
			c-0.5-0.4-0.9-0.8-1.4-1.1c-0.1-0.1-0.1-0.1,0-0.2c0.2-0.3,0.4-0.7,0.6-1c0-0.1,0.1-0.1,0.1,0c0.6,0.2,1.1,0.4,1.7,0.6
			c0.1,0,0.1,0,0.2,0c0.2-0.3,0.5-0.5,0.7-0.7c0.1,0,0.1-0.1,0-0.2c-0.2-0.6-0.4-1.1-0.6-1.7c0-0.1,0-0.1,0.1-0.2
			c0.3-0.2,0.7-0.4,1-0.6c0.1,0,0.1,0,0.1,0c0.4,0.5,0.8,0.9,1.1,1.4c0.1,0.1,0.1,0.1,0.2,0.1c0.3-0.1,0.6-0.2,1-0.3
			c0.1,0,0.1-0.1,0.1-0.1c0.1-0.6,0.2-1.2,0.3-1.7c0-0.1,0-0.1,0.1-0.1c0.4,0,0.8,0,1.2,0c0.1,0,0.1,0,0.1,0.1
			c0.1,0.6,0.2,1.2,0.3,1.8c0,0.1,0.1,0.1,0.1,0.1c0.3,0.1,0.7,0.1,1,0.3c0.1,0,0.1,0,0.2,0c0.4-0.5,0.8-0.9,1.1-1.4
			c0.1-0.1,0.1-0.1,0.2,0c0.3,0.2,0.7,0.4,1,0.6c0.1,0,0.1,0.1,0.1,0.2c-0.2,0.6-0.4,1.1-0.6,1.7c0,0.1,0,0.1,0,0.2
			c0.3,0.2,0.5,0.5,0.7,0.7c0.1,0.1,0.1,0.1,0.2,0c0.6-0.2,1.1-0.4,1.7-0.6c0.1,0,0.1,0,0.2,0.1c0.2,0.3,0.4,0.7,0.6,1
			c0,0.1,0,0.1,0,0.1c-0.5,0.4-0.9,0.8-1.4,1.2c-0.1,0.1-0.1,0.1,0,0.2c0.1,0.3,0.2,0.7,0.3,1c0,0.1,0.1,0.1,0.1,0.1
			c0.6,0.1,1.2,0.2,1.7,0.3c0.1,0,0.1,0,0.1,0.1c0,0.4,0,0.8,0,1.2c0,0.1,0,0.1-0.1,0.1c-0.6,0.1-1.2,0.2-1.8,0.3
			c-0.1,0-0.1,0-0.1,0.1c-0.1,0.3-0.1,0.7-0.3,1c0,0.1,0,0.1,0,0.2c0.5,0.4,0.9,0.8,1.4,1.1c0.1,0.1,0.1,0.1,0,0.2
			c-0.2,0.3-0.4,0.7-0.6,1c0,0.1-0.1,0.1-0.1,0.1c-0.6-0.2-1.1-0.4-1.7-0.6c-0.1,0-0.1,0-0.2,0c-0.2,0.3-0.5,0.5-0.7,0.7
			c-0.1,0.1-0.1,0.1,0,0.2c0.2,0.6,0.4,1.1,0.6,1.7c0,0.1,0,0.1,0,0.1c-0.4,0.2-0.7,0.4-1,0.6c-0.1,0-0.1,0-0.1,0
			c-0.4-0.5-0.8-0.9-1.2-1.4c-0.1-0.1-0.1-0.1-0.2-0.1c-0.3,0.1-0.6,0.2-1,0.3c-0.1,0-0.1,0.1-0.2,0.2c-0.1,0.6-0.2,1.2-0.3,1.8
			c0,0,0,0,0,0.1C774.8,330.2,774.3,330.2,773.8,330.2z"/>
		
			<ellipse transform="matrix(1.922686e-03 -1 1 1.922686e-03 451.1177 1095.8405)" class="st3" cx="774.5" cy="321.9" rx="4.1" ry="4.1"/>
	</g>
</g>
<path d="M644.3,706.1c1.1-1.8,2.7-2.3,4.7-2.3c7.9,0.1,15.8,0,23.7,0c1.3,0,2.6,0,3.5,1.2c1.5,2,0.6,4.8-1.9,5.2
	c-0.6,0.1-1.2,0.1-1.8,0.1c-7.9,0-15.7,0-23.6,0c-2,0-3.6-0.5-4.7-2.3C644.3,707.5,644.3,706.8,644.3,706.1z"/>
<path d="M832.7,708.2c-1.1,1.8-2.7,2.3-4.7,2.3c-7.8-0.1-15.5,0-23.3,0c-2.8,0-4.3-1.6-3.8-3.9c0.3-1.4,1.1-2.2,2.5-2.5
	c0.6-0.1,1.2-0.1,1.8-0.1c7.6,0,15.2,0,22.8,0c2,0,3.6,0.4,4.7,2.3C832.7,706.8,832.7,707.5,832.7,708.2z"/>
<path d="M790,705.7c0,9.2-3,19.3-9.6,28.4c-4.5,6.2-8.5,12.6-10.8,20c-1.2,3.9-1.8,7.9-0.8,12c0.4,1.8-0.5,3.2-2.1,3.8
	c-1.6,0.6-3.2-0.1-4-1.8c-0.5-1.1-0.8-2.4-1-3.6c-0.6-5.4,0.6-10.6,2.6-15.6c2.7-7,6.9-13.2,11.1-19.3c5.6-7.9,8.2-16.8,7.8-26.5
	c-0.5-13.5-6.1-24.5-16.6-33.1c-7.2-5.9-15.6-9.1-25-9.6c-12.6-0.7-23.5,3.4-32.8,12c-6.7,6.2-11,13.8-12.9,22.6
	c-2.6,12.6-0.4,24.4,7.2,35c3.7,5.2,7.2,10.4,9.8,16.2c2.7,6,4.6,12.1,3.8,18.8c-0.1,1.1-0.5,2.3-0.9,3.3c-0.7,1.6-2.3,2.2-3.9,1.6
	c-1.6-0.5-2.5-2-2.1-3.7c1.3-5.4-0.2-10.4-2.1-15.4c-2.6-6.7-6.9-12.4-10.8-18.3c-8.2-12.4-10.4-25.8-7-40.2
	c2.2-9.3,6.8-17.2,13.5-23.8c9.2-9,20.2-13.9,33.1-14.6c9.5-0.5,18.4,1.4,26.6,5.9c9.7,5.3,17.1,13,21.8,23.1
	C788.2,689.5,789.8,696.5,790,705.7z"/>
<path d="M660.5,762.5c-0.1-1.5,0.8-2.4,1.8-3.2c2.4-1.8,4.8-3.6,7.2-5.4c4.9-3.6,9.7-7.2,14.6-10.8c0.6-0.5,1.3-1,2-1.3
	c1.6-0.8,3.5-0.2,4.3,1.1c0.9,1.5,0.5,3.4-0.9,4.4c-2.8,2.2-5.7,4.3-8.5,6.4c-5,3.7-10.1,7.4-15.1,11.1c-1.2,0.9-2.6,1.2-3.8,0.4
	c-0.9-0.6-1.4-1.7-2-2.5C660.3,762.7,660.4,762.6,660.5,762.5z"/>
<path d="M660.2,652.1c0.3-1.6,0.8-2.6,2-3.2c1.2-0.7,2.4-0.5,3.5,0.3c2,1.4,4.1,2.9,6.1,4.4c5.4,4,10.9,8,16.3,12
	c2,1.5,2.4,3.4,1.2,5.2c-1,1.4-3.3,1.5-5,0.2c-4.7-3.5-9.4-7-14.1-10.4c-2.7-2-5.4-3.9-7.9-5.9C661.3,654.1,660.8,653,660.2,652.1z"
	/>
<path d="M817,763.1c-0.3,0.5-0.8,1.6-1.7,2.2c-1.1,0.8-2.5,0.6-3.7-0.2c-6.2-4.6-12.4-9.1-18.6-13.7c-1.2-0.9-2.4-1.7-3.5-2.6
	c-1.7-1.3-2.1-3.3-1-4.8c1.2-1.6,3-1.9,4.8-0.6c4.4,3.1,8.7,6.4,13.1,9.5c2.8,2,5.6,4.1,8.3,6.1C815.9,759.9,816.9,760.8,817,763.1z
	"/>
<path d="M788.7,667.5c0.6-0.9,1.1-2,1.9-2.7c6.9-5.2,13.8-10.3,20.8-15.3c2.2-1.6,4.6-1,5.4,1.3c0.5,1.3,0,2.9-1.1,3.8
	c-7,5.2-14.1,10.4-21.1,15.6c-1.2,0.9-2.4,1.1-3.8,0.4C789.5,669.9,789.1,668.9,788.7,667.5z"/>
<line class="st19" x1="730.4" y1="715.7" x2="730.4" y2="774.3"/>
<line class="st19" x1="746.7" y1="716.8" x2="746.7" y2="773.3"/>
<g>
	<g>
		<g>
			<path d="M746.6,717.9c-0.6-2.9-2.1-5.7-5-6.6c-4.2-1.3-8.6,1.4-11.9,3.6c-1.3,0.9-0.1,3.1,1.3,2.2c4.7-3.2,11.7-6.2,13.3,1.5
				C744.5,720.1,746.9,719.5,746.6,717.9L746.6,717.9z"/>
		</g>
	</g>
	<g>
		<g>
			<path d="M715,713.7c2.7,6.5,10.6,6.2,15.9,3.4c1.4-0.8,0.2-2.9-1.3-2.2c-3.7,1.9-10.2,3.1-12.2-1.9
				C716.8,711.6,714.4,712.2,715,713.7L715,713.7z"/>
		</g>
	</g>
	<g>
		<g>
			<path d="M709.5,712.3c-0.1,5.7,5.7,7.7,10.4,5.9c1.5-0.6,0.8-3-0.7-2.4c-3.1,1.2-7.3,0.6-7.3-3.5
				C712,710.7,709.5,710.7,709.5,712.3L709.5,712.3z"/>
		</g>
	</g>
	<g>
		<g>
			<path d="M713.3,698.4c-4.5,3.4-5.7,9.1-3.8,14.3c0.6,1.5,3,0.8,2.4-0.7c-1.5-4-1-8.7,2.6-11.5
				C715.8,699.6,714.5,697.4,713.3,698.4L713.3,698.4z"/>
		</g>
	</g>
	<g>
		<g>
			<path d="M718.1,699.5c-0.8,0.1-2,0.2-2.6-0.3c-0.1-0.1-0.1-0.2-0.1-0.2c0-0.3,0-0.5,0.1-0.8c0.2-0.5,0.6-1.1,1.1-1.4
				c0.2-0.2,0.5-0.3,0.7-0.4c0.3-0.1,0.5-0.1,0.6-0.1c1.6,0.3,2.2-2.1,0.7-2.4c-2.5-0.4-4.8,1.6-5.5,3.9c-0.3,1.1-0.2,2.4,0.6,3.2
				c1.1,1.2,2.9,1.2,4.4,1.1C719.7,701.9,719.7,699.4,718.1,699.5L718.1,699.5z"/>
		</g>
	</g>
	<g>
		<g>
			<path d="M725.2,689.3c-3.6-1.2-7.3,2.2-8.1,5.5c-0.4,1.6,2,2.2,2.4,0.7c0.5-2,2.7-4.5,5-3.7C726,692.2,726.7,689.8,725.2,689.3
				L725.2,689.3z"/>
		</g>
	</g>
	<g>
		<g>
			<path d="M730.7,686.8c-3-0.4-6.1,0-7.1,3.3c-0.5,1.5,1.9,2.2,2.4,0.7c0.6-2.1,2.9-1.7,4.6-1.5C732.3,689.5,732.3,687,730.7,686.8
				L730.7,686.8z"/>
		</g>
	</g>
	<g>
		<g>
			<path d="M724,694.5c1.2,2.2,4.5,2,6,0.3c0.4-0.5,0.5-1.3,0-1.8c-0.4-0.4-1.3-0.5-1.8,0c-0.3,0.4-0.7,0.7-1.2,0.7
				c-0.2,0-0.4-0.1-0.6-0.2c-0.2-0.1-0.2-0.1-0.3-0.2C725.3,691.9,723.2,693.1,724,694.5L724,694.5z"/>
		</g>
	</g>
	<g>
		<g>
			<path d="M729.8,687.2c-0.9,0.9-1.2,2-1.4,3.2c-0.1,0.6-0.1,1.2-0.2,1.7c0,0.2,0,0.4,0,0.6c0,0-0.2,0.5,0,0.3
				c-1.1,1.2,0.7,3,1.8,1.8c1.4-1.6,0.1-4.4,1.6-5.8C732.7,687.8,731,686.1,729.8,687.2L729.8,687.2z"/>
		</g>
	</g>
	<g>
		<g>
			<path d="M742,689.8c-1.8-4.3-8.4-5.5-11.9-2.8c-1.3,1,0,3.1,1.3,2.2c1.5-1.1,3.1-1.3,4.9-0.9c1.1,0.3,2.9,1,3.3,2.2
				C740.2,691.9,742.6,691.3,742,689.8L742,689.8z"/>
		</g>
	</g>
	<g>
		<g>
			<path d="M752.9,690.1c-1.4-3.4-6.9-4.9-9.9-3.1c-1.4,0.8-0.1,3,1.3,2.2c2-1.1,5.6,0.1,6.5,2.2
				C751.3,692.8,753.5,691.6,752.9,690.1L752.9,690.1z"/>
		</g>
	</g>
	<g>
		<g>
			<path d="M750.5,690.7c-0.1,3.2-3,4.5-4.3,7c-0.7,1.4,1.4,2.7,2.2,1.3c0.6-1.3,1.9-2.2,2.8-3.3c1.1-1.5,1.8-3.1,1.9-5
				C753.1,689.1,750.6,689.1,750.5,690.7L750.5,690.7z"/>
		</g>
	</g>
	<g>
		<g>
			<path d="M757.7,692.8c-1-2.1-4.1-4.8-6.5-3.1c-1.3,0.9-0.1,3.1,1.3,2.2c1.1-0.8,2.7,1.4,3.1,2.2
				C756.2,695.5,758.4,694.2,757.7,692.8L757.7,692.8z"/>
		</g>
	</g>
	<g>
		<g>
			<path d="M760.5,696.7c0.4-2.4-1.6-4.4-3.9-4.5c-1.6-0.1-1.6,2.4,0,2.5c0.4,0,0.8,0.2,1.1,0.5c0.1,0.1,0.3,0.3,0.3,0.5
				c0.1,0.1,0.1,0.3,0.1,0.4c-0.1,0.7,0.2,1.3,0.9,1.5C759.6,697.7,760.4,697.4,760.5,696.7L760.5,696.7z"/>
		</g>
	</g>
	<g>
		<g>
			<path d="M756.5,698.6c0.4-0.7,1.5-1,2.3-0.9c1.3,0.2,1.7,1.3,1.9,2.5c0.2,1.6,2.6,0.9,2.4-0.7c-0.3-2.2-1.8-4-4.1-4.3
				c-1.8-0.2-3.7,0.6-4.6,2.2C753.5,698.7,755.6,699.9,756.5,698.6L756.5,698.6z"/>
		</g>
	</g>
	<g>
		<g>
			<path d="M761,700.6c1.3,1.1,2.4,2.4,2.9,4c0.4,1.3,0.3,2.8,0.2,4.1c-0.1,1.6,2.4,1.6,2.5,0c0.2-4.1-0.7-7.1-3.8-9.9
				C761.5,697.8,759.8,699.6,761,700.6L761,700.6z"/>
		</g>
	</g>
	<g>
		<g>
			<path d="M764.1,709.1c0.3,2.4,0.4,5.4-1.1,7.5c-1.6,2.3-4.4,1.6-6.5,0.5c-1.4-0.7-2.7,1.4-1.3,2.2c3,1.5,6.8,2.2,9.3-0.6
				c2.5-2.7,2.5-6.8,2-10.2C766.3,706.9,763.9,707.6,764.1,709.1L764.1,709.1z"/>
		</g>
	</g>
	<g>
		<g>
			<path d="M756.4,717.1c-2-1.1-4.2-2.6-6.5-2.7c-2.3-0.1-4,1.2-5.4,2.9c-1,1.2,0.7,3,1.8,1.8c1.1-1.4,2.3-2.4,4.2-2
				c1.7,0.4,3.2,1.4,4.6,2.2C756.6,720.1,757.8,717.9,756.4,717.1L756.4,717.1z"/>
		</g>
	</g>
	<g>
		<g>
			<path d="M723.7,691.9c0.1,0.5,0.1,2-0.4,2.1c-1.6,0.4-0.9,2.8,0.7,2.4c2.1-0.6,2.5-3.3,2.2-5.2
				C725.8,689.7,723.4,690.3,723.7,691.9L723.7,691.9z"/>
		</g>
	</g>
	<g>
		<g>
			<path d="M745.4,700c0.9-0.7,2.7-0.3,3.5,0.4c1.3,1,3-0.8,1.8-1.8c-1.7-1.3-4.7-2.2-6.5-0.8C742.9,698.8,744.1,701,745.4,700
				L745.4,700z"/>
		</g>
	</g>
	<g>
		<g>
			<path d="M761.5,708c1,0.5,2.2,1.3,2.6,2.3c0.3,0.6,0.8,1.1,1.5,0.9c0.6-0.2,1.1-0.9,0.9-1.5c-0.7-1.7-2.2-3-3.8-3.8
				c-0.6-0.3-1.3-0.2-1.7,0.4C760.8,706.8,760.9,707.7,761.5,708L761.5,708z"/>
		</g>
	</g>
	<g>
		<g>
			<path d="M712.8,713.6c0.6,0.7,1.8,1,2.8,1c1.6,0,2.9-0.8,4-1.9c1.1-1.2-0.7-2.9-1.8-1.8c-0.6,0.6-1.3,1.1-2.2,1.2
				c-0.3,0-0.5,0-0.7-0.1c-0.2,0-0.3-0.1-0.3-0.1C713.5,710.7,711.7,712.4,712.8,713.6L712.8,713.6z"/>
		</g>
	</g>
	<g>
		<g>
			<path d="M720.5,697.8c-2.7,0-4,3.5-3.7,5.7c0.1,0.7,0.5,1.2,1.3,1.3c0.6,0,1.3-0.6,1.3-1.3c-0.1-0.9-0.1-1.9,0.5-2.6
				c0.1-0.2,0.3-0.3,0.5-0.4c0.1-0.1,0.3-0.1,0.3-0.2c0,0-0.2,0-0.1,0C722.1,700.2,722.1,697.7,720.5,697.8L720.5,697.8z"/>
		</g>
	</g>
	<g>
		<g>
			<path d="M738.6,688.4c1-1.3,3.1-0.9,4,0.4c0.9,1.3,3.1,0.1,2.2-1.3c-1-1.5-2.5-2.4-4.3-2.4c-1.3,0-2.8,0.5-3.6,1.5
				C735.8,687.8,737.6,689.6,738.6,688.4L738.6,688.4z"/>
		</g>
	</g>
</g>
<g>
	<g>
		<path d="M708.9,789c19.4,0,38.9,0,58.3,0c3.2,0,3.2-5,0-5c-19.4,0-38.9,0-58.3,0C705.7,784,705.7,789,708.9,789L708.9,789z"/>
	</g>
</g>
<g>
	<g>
		<path d="M708.9,777.5c19.4,0,38.9,0,58.3,0c3.2,0,3.2-5,0-5c-19.4,0-38.9,0-58.3,0C705.7,772.5,705.7,777.5,708.9,777.5
			L708.9,777.5z"/>
	</g>
</g>
<g>
	<g>
		<path d="M718.9,795.9c-1.2,4.4-1.2,9.5,0.1,13.8c2.8,8.9,11.4,12.3,20.1,12.3c8.8,0,17.3-3.5,20.2-12.4c1.4-4.4,1.4-9.5,0.3-13.9
			c-0.8-3.1-5.6-1.8-4.8,1.3c0.8,2.9,0.8,6.3,0.3,9.2c-1.5,7.9-8.5,10.8-15.9,10.8c-7.4,0-14.3-2.8-15.8-10.7
			c-0.5-3-0.4-6.2,0.4-9.2C724.5,794.1,719.7,792.8,718.9,795.9L718.9,795.9z"/>
	</g>
</g>
<text transform="matrix(1 0 0 1 369.5464 391.9829)"><tspan x="0" y="0" class="st5 st10">Mensch - Technik - Interaktion</tspan><tspan x="59.8" y="24" class="st5 st10">Kognition</tspan></text>
<line class="st7" x1="370.9" y1="411.5" x2="421.2" y2="411.5"/>
<line class="st7" x1="494.6" y1="411.5" x2="544.9" y2="411.5"/>
</svg>
