<svg id="Ebene_1" data-name="Ebene 1" xmlns="http://www.w3.org/2000/svg" viewBox="0 0 162.51 154.51">
  <defs>
    <style>
      .cls-1 {
        fill: #bb1f71;
      }

      .cls-1, .cls-2, .cls-3 {
        opacity: 0.5;
      }

      .cls-2 {
        fill: #e02887;
      }

      .cls-3 {
        fill: #a3195b;
      }

      .cls-4 {
        fill: #fff;
      }
    </style>
  </defs>
  <title>Logo_weiß</title>
  <rect class="cls-1" x="85.77" y="229.34" width="139.33" height="138.53" rx="30.17" ry="30.17" transform="translate(-4.09 -247.83) rotate(12.05)"/>
  <rect class="cls-2" x="77.27" y="230.45" width="139.33" height="138.53" rx="30.17" ry="30.17" transform="translate(-130.06 -184.02) rotate(-12.23)"/>
  <rect class="cls-3" x="10.34" y="6.28" width="139.33" height="138.53" rx="30.17" ry="30.17"/>
  <path class="cls-4" d="M118.41,262.95l-16.27,82.77h12.51l8.18-41.1h41.76c5.64,0,5.08-10.35.38-10.35h-39l3.2-20.5h46.28c7.05,0,7.43-10.63,0-10.63Z" transform="translate(-69.88 -221.96)"/>
  <path class="cls-4" d="M197.42,267.37c0-10.35-9.69-19.09-16.37-19.09l-37-.19-1.69,10.35H179c3.29,0,7.71,2.16,7.71,10.44-1,7.48-5.72,11.13-14.29,11.36a14.73,14.73,0,0,0-3.59-.45s-36.78-.56-36.49-.28l-1.41,10.72H167c3.86,0,8.37,3.67,8.37,11.1a9.27,9.27,0,0,1-9.45,9.45H126.12l-6.21,35.6h12.13l5-25.87h28.69c8.47,0,20.13-5.74,20.13-19.47A25,25,0,0,0,182.48,288C189.79,287.88,197.42,279.44,197.42,267.37Z" transform="translate(-69.88 -221.96)"/>
</svg>
