<svg id="Ebene_1" data-name="Ebene 1" xmlns="http://www.w3.org/2000/svg" viewBox="0 0 162.51 154.51">
  <defs>
    <style>
      .cls-1 {
        fill: #bb1f71;
      }

      .cls-1, .cls-2, .cls-3 {
        opacity: 0.5;
      }

      .cls-2 {
        fill: #e02887;
      }

      .cls-3 {
        fill: #a3195b;
      }

      .cls-4 {
        fill: #a8dae7;
      }
    </style>
  </defs>
  <title>Logo</title>
  <rect class="cls-1" x="534.69" y="315.83" width="139.33" height="138.53" rx="30.17" ry="30.17" transform="translate(-425.06 -426.16) rotate(12.05)"/>
  <rect class="cls-2" x="526.19" y="316.94" width="139.33" height="138.53" rx="30.17" ry="30.17" transform="translate(-587.11 -173.4) rotate(-12.23)"/>
  <rect class="cls-3" x="10.34" y="6.28" width="139.33" height="138.53" rx="30.17" ry="30.17"/>
  <path class="cls-4" d="M567.33,349.43,551.06,432.2h12.51l8.18-41.1h41.76c5.64,0,5.08-10.35.38-10.35h-39l3.2-20.5h46.28c7.05,0,7.43-10.63,0-10.63Z" transform="translate(-518.8 -308.44)"/>
  <path class="cls-4" d="M646.34,353.85c0-10.35-9.69-19.09-16.37-19.09l-37-.19-1.69,10.35h36.59c3.29,0,7.71,2.16,7.71,10.44-1,7.48-5.72,11.13-14.29,11.36a14.73,14.73,0,0,0-3.59-.45S581,365.7,581.25,366l-1.41,10.72H616c3.86,0,8.37,3.67,8.37,11.1a9.27,9.27,0,0,1-9.45,9.45H575l-6.21,35.6H581L586,407h28.69c8.47,0,20.13-5.74,20.13-19.47a25,25,0,0,0-3.37-13.08C638.71,374.36,646.34,365.92,646.34,353.85Z" transform="translate(-518.8 -308.44)"/>
</svg>
