<svg id="Ebene_1" data-name="Ebene 1" xmlns="http://www.w3.org/2000/svg" viewBox="0 0 15.13 15.38">
  <defs>
    <style>
      .cls-1 {
        fill: #a8dae7;
      }
    </style>
  </defs>
  <title>portfolioicon</title>
  <g>
    <path class="cls-1" d="M36.15,42.07l2.46-7.3c.43-1,1-1.53,1.76-1.52h7.75v-.81a.9.9,0,0,0-.85-1H37c-.48.06-.78.39-.8,1.11Z" transform="translate(-36.15 -29.25)"/>
    <path class="cls-1" d="M47.41,44.63H36.72c-.28,0-.43-.5-.28-.93L39.38,35a1,1,0,0,1,1-.72H50.72c.41,0,.72.27.46,1.1l-2.74,8.11C48.27,44.17,47.82,44.63,47.41,44.63Z" transform="translate(-36.15 -29.25)"/>
    <path class="cls-1" d="M44.15,31.43v-.88c0-.57-.61-1.3-.88-1.3H41.09c-.51,0-1,.78-1,1.45v.73h.73v-.68a.44.44,0,0,1,.31-.46h2c.17,0,.3.23.3.44v.71Z" transform="translate(-36.15 -29.25)"/>
  </g>
</svg>
